{
.appVersion = "1045";
classes = (
{
automatic = 1;

glyphs = (
{
glyphname = A;
layers = (
{
anchors = (
{
name = bottom;
position = "{328, -150}";
},
{
name = ogonek;
position = "{555, 0}";
},
{
name = top;
position = "{480, 810}";
}
);
background = {
paths = (
{
closed = 1;
nodes = (
"-392.68 293 LINE",
"-287.68 293 LINE",
"-310.68 489 LINE"
);
},
{
closed = 1;
nodes = (
"-734.68 0 LINE",
"-389.68 732 LINE",
"-160.68 732 LINE",
"-54.68 0 LINE",
"-253.68 0 LINE",
"-274.68 128 LINE",
"-462.68 128 LINE",
"-519.68 0 LINE"
);
},
{
closed = 1;
nodes = (
"334 292 LINE",
"446 578 LINE",
"467 292 LINE"
);
},
{
closed = 1;
nodes = (
"15 0 LINE",
"214 0 LINE",
"262 118 LINE",
"485 118 LINE",
"496 0 LINE",
"697 0 LINE",
"595 743 LINE",
"353 743 LINE"
);
}
);
};
layerId = "FDCB0490-BEB2-4154-BC16-7BC1D55E5E84";
paths = (
{
closed = 1;
nodes = (
"214 0 LINE",
"262 118 LINE",
"485 118 LINE",
"496 0 LINE",
"697 0 LINE",
"595 743 LINE",
"353 743 LINE",
"15 0 LINE"
);
},
{
closed = 1;
nodes = (
"446 578 LINE",
"467 292 LINE",
"334 292 LINE"
);
}
);
width = 709;
},
{
anchors = (
{
name = bottom;
position = "{307, -150}";
},
{
name = ogonek;
position = "{592, 0}";
},
{
name = top;
position = "{459, 810}";
}
);
background = {
components = (
{
name = V;
transform = "{-1, 0, 0, -1, 776, 732}";
}
);
paths = (
{
closed = 1;
nodes = (
"-380 277 LINE",
"-65 277 LINE",
"-151 709 LINE"
);
},
{
closed = 1;
nodes = (
"-555 0 LINE",
"-165 732 LINE",
"-131 732 LINE",
"15 0 LINE",
"-9 0 LINE",
"-60 253 LINE",
"-393 253 LINE",
"-527 0 LINE"
);
}
);
};
layerId = "DE62D6C8-A9BF-4A7E-9D02-9A707AFEE35E";
paths = (
{
closed = 1;
nodes = (
"70 0 LINE",
"206 254 LINE",
"539 254 LINE",
"590 0 LINE",
"615 0 LINE",
"469 732 LINE",
"435 732 LINE",
"45 0 LINE"
);
},
{
closed = 1;
nodes = (
"448 706 LINE",
"535 276 LINE",
"218 276 LINE"
);
}
);
width = 660;
}
);
leftKerningGroup = A;
note = "\012    GF Latin Plus glyph\012  ";
rightKerningGroup = A;
unicode = 0041;
userData = {
com.fontlab.hintData = {
hhints = (
{
position = 0;
width = 21;
},
{
position = 128;
width = 165;
},
{
position = 712;
width = 20;
}
);
};
com.typemytype.robofont.layerData = {
background = {
anchors = (
);
components = (
);
contours = (
{
points = (
{
segmentType = line;
smooth = 0;
x = -392.67960;
y = 293;
},
{
segmentType = line;
smooth = 0;
x = -287.67960;
y = 293;
},
{
segmentType = line;
smooth = 0;
x = -310.67960;
y = 489;
}
);
},
{
points = (
{
segmentType = line;
smooth = 0;
x = -734.67963;
y = 0;
},
{
segmentType = line;
smooth = 0;
x = -389.67960;
y = 732;
},
{
segmentType = line;
smooth = 0;
x = -160.67960;
y = 732;
},
{
segmentType = line;
smooth = 0;
x = -54.67960;
y = 0;
},
{
segmentType = line;
smooth = 0;
x = -253.67960;
y = 0;
},
{
segmentType = line;
smooth = 0;
x = -274.67960;
y = 128;
},
{
segmentType = line;
smooth = 0;
x = -462.67960;
y = 128;
},
{
segmentType = line;
smooth = 0;
x = -519.67963;
y = 0;
}
);
},
{
points = (
{
segmentType = line;
smooth = 0;
x = 334;
y = 292;
},
{
segmentType = line;
smooth = 0;
x = 446;
y = 578;
},
{
segmentType = line;
smooth = 0;
x = 467;
y = 292;
}
);
},
{
points = (
{
segmentType = line;
smooth = 0;
x = 15;
y = 0;
},
{
segmentType = line;
smooth = 0;
x = 214;
y = 0;
},
{
segmentType = line;
smooth = 0;
x = 262;
y = 118;
},
{
segmentType = line;
smooth = 0;
x = 485;
y = 118;
},
{
segmentType = line;
smooth = 0;
x = 496;
y = 0;
},
{
segmentType = line;
smooth = 0;
x = 697;
y = 0;
},
{
segmentType = line;
smooth = 0;
x = 595;
y = 743;
},
{
segmentType = line;
smooth = 0;
x = 353;
y = 743;
}
);
}
);
lib = {
};
name = A;
unicodes = (
);
width = 709;
};
};
};
},
{
glyphname = AE;
layers = (
{
anchors = (
{
name = top;
position = "{680, 810}";
}
);
background = {
paths = (
{
closed = 1;
nodes = (
"392 282 LINE",
"547 527 LINE",
"509 282 LINE"
);
},
{
closed = 1;
nodes = (
"6 0 LINE",
"195 0 LINE",
"281 118 LINE",
"483 118 LINE",
"483 111 LINE SMOOTH",
"481 19 OFFCURVE",
"539 -6 OFFCURVE",
"659 -6 CURVE SMOOTH",
"779 -6 OFFCURVE",
"873 3 OFFCURVE",
"959 14 CURVE",
"985 176 LINE",
"728 176 LINE SMOOTH",
"699 176 OFFCURVE",
"666 175 OFFCURVE",
"674 228 CURVE SMOOTH",
"683 284 LINE",
"954 294 LINE",
"978 448 LINE",
"710 458 LINE",
"720 516 LINE SMOOTH",
"724 546 OFFCURVE",
"740 564 OFFCURVE",
"779 564 CURVE SMOOTH",
"1046 564 LINE",
"1072 727 LINE",
"1008 734 OFFCURVE",
"893 743 OFFCURVE",
"768 743 CURVE SMOOTH",
"584 743 OFFCURVE",
"471 692 OFFCURVE",
"351 514 CURVE SMOOTH"
);
}
);
};
layerId = "FDCB0490-BEB2-4154-BC16-7BC1D55E5E84";
paths = (
{
closed = 1;
nodes = (
"655 -6 OFFCURVE",
"854 0 OFFCURVE",
"959 14 CURVE",
"985 176 LINE",
"737 176 LINE SMOOTH",
"708 176 OFFCURVE",
"665 175 OFFCURVE",
"674 228 CURVE SMOOTH",
"683 284 LINE",
"954 294 LINE",
"978 448 LINE",
"710 458 LINE",
"716 496 LINE SMOOTH",
"724 548 OFFCURVE",
"735 564 OFFCURVE",
"787 564 CURVE SMOOTH",
"1046 564 LINE",
"1072 727 LINE",
"958 738 OFFCURVE",
"845 743 OFFCURVE",
"775 743 CURVE SMOOTH",
"637 743 OFFCURVE",
"485 715 OFFCURVE",
"376 552 CURVE SMOOTH",
"6 0 LINE",
"195 0 LINE",
"281 118 LINE",
"483 118 LINE",
"483 103 LINE SMOOTH",
"483 22 OFFCURVE",
"537 -6 OFFCURVE",
"655 -6 CURVE SMOOTH"
);
},
{
closed = 1;
nodes = (
"547 527 LINE",
"509 282 LINE",
"392 282 LINE"
);
}
);
width = 1011.12;
},
{
anchors = (
{
name = top;
position = "{609, 810}";
}
);
background = {
paths = (
{
closed = 1;
nodes = (
"279 276 LINE",
"522 276 LINE",
"582 657 LINE"
);
},
{
closed = 1;
nodes = (
"30 0 LINE",
"499 590 LINE SMOOTH",
"578 689 OFFCURVE",
"610 737 OFFCURVE",
"720 732 CURVE SMOOTH",
"985 722 LINE",
"983 708 LINE",
"716 708 LINE SMOOTH",
"600 708 OFFCURVE",
"608 667 OFFCURVE",
"596 592 CURVE SMOOTH",
"561 375 LINE",
"890 370 LINE",
"887 356 LINE",
"558 351 LINE",
"521 123 LINE SMOOTH",
"506 31 OFFCURVE",
"562 21 OFFCURVE",
"617 21 CURVE SMOOTH",
"874 21 LINE",
"872 7 LINE",
"622 -3 LINE SMOOTH",
"557 -5 OFFCURVE",
"479 8 OFFCURVE",
"497 121 CURVE SMOOTH",
"518 252 LINE",
"259 252 LINE",
"60 0 LINE"
);
}
);
};
layerId = "DE62D6C8-A9BF-4A7E-9D02-9A707AFEE35E";
paths = (
{
closed = 1;
nodes = (
"705 -1 OFFCURVE",
"788 1 OFFCURVE",
"871 3 CURVE",
"874 19 LINE",
"617 19 LINE SMOOTH",
"562 19 OFFCURVE",
"506 31 OFFCURVE",
"521 123 CURVE SMOOTH",
"558 352 LINE",
"887 355 LINE",
"890 371 LINE",
"561 374 LINE",
"596 592 LINE SMOOTH",
"608 667 OFFCURVE",
"600 710 OFFCURVE",
"716 710 CURVE SMOOTH",
"983 710 LINE",
"986 726 LINE",
"897 728 OFFCURVE",
"809 730 OFFCURVE",
"720 732 CURVE SMOOTH",
"610 734 OFFCURVE",
"578 689 OFFCURVE",
"499 590 CURVE SMOOTH",
"30 0 LINE",
"60 0 LINE",
"259 252 LINE",
"518 252 LINE",
"497 121 LINE SMOOTH",
"479 8 OFFCURVE",
"557 -5 OFFCURVE",
"622 -3 CURVE SMOOTH"
);
},
{
closed = 1;
nodes = (
"583 661 LINE",
"521 274 LINE",
"277 274 LINE"
);
}
);
width = 896;
}
);
leftKerningGroup = A;
note = "\012    GF Latin Plus glyph\012  ";
rightKerningGroup = E;
unicode = 00C6;
userData = {
com.fontlab.hintData = {
hhints = (
{
position = -3;
width = 179;
},
{
position = 14;
width = 162;
},
{
position = 272;
width = 181;
},
{
position = 281;
width = 161;
},
{
position = 553;
width = 179;
},
{
position = 553;
width = 163;
}
);
};
com.typemytype.robofont.layerData = {
background = {
anchors = (
);
components = (
);
contours = (
{
points = (
{
segmentType = line;
smooth = 0;
x = 392;
y = 282;
},
{
segmentType = line;
smooth = 0;
x = 547;
y = 527;
},
{
segmentType = line;
smooth = 0;
x = 509;
y = 282;
}
);
},
{
points = (
{
segmentType = line;
smooth = 0;
x = 6;
y = 0;
},
{
segmentType = line;
smooth = 0;
x = 195;
y = 0;
},
{
segmentType = line;
smooth = 0;
x = 281;
y = 118;
},
{
segmentType = line;
smooth = 0;
x = 483;
y = 118;
},
{
segmentType = line;
smooth = 1;
x = 483;
y = 111;
},
{
smooth = 0;
x = 481;
y = 19;
},
{
smooth = 0;
x = 539;
y = -6;
},
{
segmentType = curve;
smooth = 1;
x = 659;
y = -6;
},
{
smooth = 0;
x = 779;
y = -6;
},
{
smooth = 0;
x = 873;
y = 3;
},
{
segmentType = curve;
smooth = 0;
x = 959;
y = 14;
},
{
segmentType = line;
smooth = 0;
x = 985;
y = 176;
},
{
segmentType = line;
smooth = 1;
x = 728;
y = 176;
},
{
smooth = 0;
x = 699;
y = 176;
},
{
smooth = 0;
x = 666;
y = 175;
},
{
segmentType = curve;
smooth = 1;
x = 674;
y = 228;
},
{
segmentType = line;
smooth = 0;
x = 683;
y = 284;
},
{
segmentType = line;
smooth = 0;
x = 954;
y = 294;
},
{
segmentType = line;
smooth = 0;
x = 978;
y = 448;
},
{
segmentType = line;
smooth = 0;
x = 710;
y = 458;
},
{
segmentType = line;
smooth = 1;
x = 720;
y = 516;
},
{
smooth = 0;
x = 724;
y = 546;
},
{
smooth = 0;
x = 740;
y = 564;
},
{
segmentType = curve;
smooth = 1;
x = 779;
y = 564;
},
{
segmentType = line;
smooth = 0;
x = 1046;
y = 564;
},
{
segmentType = line;
smooth = 0;
x = 1072;
y = 727;
},
{
smooth = 0;
x = 1008;
y = 734;
},
{
smooth = 0;
x = 893;
y = 743;
},
{
segmentType = curve;
smooth = 1;
x = 768;
y = 743;
},
{
smooth = 0;
x = 584;
y = 743;
},
{
smooth = 0;
x = 471;
y = 692;
},
{
segmentType = curve;
smooth = 1;
x = 351;
y = 514;
}
);
}
);
lib = {
};
name = AE;
unicodes = (
);
width = 1011.12433;
};
};
};
},
{
glyphname = B;
layers = (
{
anchors = (
{
name = top;
position = "{411, 810}";
}
);
background = {
paths = (
{
closed = 1;
nodes = (
"923 451 LINE",
"942 569 LINE",
"1054 569 LINE SMOOTH",
"1075 569 OFFCURVE",
"1095 555 OFFCURVE",
"1088 510 CURVE SMOOTH",
"1083 477 OFFCURVE",
"1064 451 OFFCURVE",
"1035 451 CURVE SMOOTH"
);
},
{
closed = 1;
nodes = (
"880 174 LINE",
"900 304 LINE",
"1023 304 LINE SMOOTH",
"1058 304 OFFCURVE",
"1074 279 OFFCURVE",
"1068 239 CURVE SMOOTH",
"1062 199 OFFCURVE",
"1038 174 OFFCURVE",
"1003 174 CURVE SMOOTH"
);
},
{
closed = 1;
nodes = (
"658 0 LINE",
"981 0 LINE SMOOTH",
"1135 0 OFFCURVE",
"1223 57 OFFCURVE",
"1246 204 CURVE SMOOTH",
"1263 309 OFFCURVE",
"1217 369 OFFCURVE",
"1150 386 CURVE",
"1221 403 OFFCURVE",
"1264 459 OFFCURVE",
"1277 545 CURVE SMOOTH",
"1297 668 OFFCURVE",
"1244 743 OFFCURVE",
"1084 743 CURVE SMOOTH",
"776 743 LINE"
);
},
{
closed = 1;
nodes = (
"321 451 LINE",
"340 569 LINE",
"452 569 LINE SMOOTH",
"473 569 OFFCURVE",
"493 555 OFFCURVE",
"486 510 CURVE SMOOTH",
"481 477 OFFCURVE",
"462 451 OFFCURVE",
"433 451 CURVE SMOOTH"
);
},
{
closed = 1;
nodes = (
"278 174 LINE",
"298 304 LINE",
"421 304 LINE SMOOTH",
"456 304 OFFCURVE",
"472 279 OFFCURVE",
"466 239 CURVE SMOOTH",
"460 199 OFFCURVE",
"436 174 OFFCURVE",
"401 174 CURVE SMOOTH"
);
},
{
closed = 1;
nodes = (
"56 0 LINE",
"379 0 LINE SMOOTH",
"533 0 OFFCURVE",
"621 57 OFFCURVE",
"644 204 CURVE SMOOTH",
"661 309 OFFCURVE",
"615 369 OFFCURVE",
"548 386 CURVE",
"619 403 OFFCURVE",
"662 459 OFFCURVE",
"675 545 CURVE SMOOTH",
"695 668 OFFCURVE",
"642 743 OFFCURVE",
"482 743 CURVE SMOOTH",
"174 743 LINE"
);
}
);
};
layerId = "FDCB0490-BEB2-4154-BC16-7BC1D55E5E84";
paths = (
{
closed = 1;
nodes = (
"360 0 LINE SMOOTH",
"522 0 OFFCURVE",
"621 42 OFFCURVE",
"642 175 CURVE SMOOTH",
"648 210 OFFCURVE",
"648 226 OFFCURVE",
"648 240 CURVE SMOOTH",
"648 325 OFFCURVE",
"615 365 OFFCURVE",
"539 386 CURVE",
"616 403 OFFCURVE",
"664 464 OFFCURVE",
"675 532 CURVE SMOOTH",
"678 551 OFFCURVE",
"679 568 OFFCURVE",
"679 585 CURVE SMOOTH",
"679 677 OFFCURVE",
"640 743 OFFCURVE",
"479 743 CURVE SMOOTH",
"173 743 LINE",
"57 0 LINE"
);
},
{
closed = 1;
nodes = (
"298 304 LINE",
"402 304 LINE SMOOTH",
"449 304 OFFCURVE",
"466 291 OFFCURVE",
"466 260 CURVE SMOOTH",
"466 253 OFFCURVE",
"466 247 OFFCURVE",
"465 240 CURVE SMOOTH",
"458 189 OFFCURVE",
"437 174 OFFCURVE",
"385 174 CURVE SMOOTH",
"278 174 LINE"
);
},
{
closed = 1;
nodes = (
"340 569 LINE",
"438 569 LINE SMOOTH",
"471 569 OFFCURVE",
"487 559 OFFCURVE",
"487 531 CURVE SMOOTH",
"487 521 OFFCURVE",
"485 511 OFFCURVE",
"482 497 CURVE SMOOTH",
"477 474 OFFCURVE",
"465 451 OFFCURVE",
"425 451 CURVE SMOOTH",
"321 451 LINE"
);
}
);
width = 649;
},
{
anchors = (
{
name = top;
position = "{399, 810}";
}
);
background = {
paths = (
{
closed = 1;
nodes = (
"167 395 LINE",
"396 395 LINE SMOOTH",
"489 395 OFFCURVE",
"566 457 OFFCURVE",
"586 555 CURVE SMOOTH",
"610 675 OFFCURVE",
"555 708 OFFCURVE",
"445 708 CURVE SMOOTH",
"216 708 LINE"
);
},
{
closed = 1;
nodes = (
"108 25 LINE",
"337 25 LINE SMOOTH",
"416 25 OFFCURVE",
"511 54 OFFCURVE",
"535 204 CURVE SMOOTH",
"550 296 OFFCURVE",
"484 373 OFFCURVE",
"392 371 CURVE",
"163 371 LINE"
);
},
{
closed = 1;
nodes = (
"80 0 LINE",
"196 732 LINE",
"449 732 LINE SMOOTH",
"597 732 OFFCURVE",
"628 665 OFFCURVE",
"611 558 CURVE SMOOTH",
"596 462 OFFCURVE",
"519 391 OFFCURVE",
"455 384 CURVE",
"497 374 OFFCURVE",
"576 311 OFFCURVE",
"558 197 CURVE SMOOTH",
"542 95 OFFCURVE",
"487 0 OFFCURVE",
"333 0 CURVE SMOOTH"
);
}
);
};
layerId = "DE62D6C8-A9BF-4A7E-9D02-9A707AFEE35E";
paths = (
{
closed = 1;
nodes = (
"333 0 LINE SMOOTH",
"465 0 OFFCURVE",
"532 68 OFFCURVE",
"555 179 CURVE SMOOTH",
"560 201 OFFCURVE",
"561 219 OFFCURVE",
"561 233 CURVE SMOOTH",
"561 328 OFFCURVE",
"493 373 OFFCURVE",
"455 384 CURVE",
"519 399 OFFCURVE",
"576 452 OFFCURVE",
"591 548 CURVE SMOOTH",
"594 565 OFFCURVE",
"595 581 OFFCURVE",
"595 597 CURVE SMOOTH",
"595 682 OFFCURVE",
"543 732 OFFCURVE",
"429 732 CURVE SMOOTH",
"196 732 LINE",
"80 0 LINE"
);
},
{
closed = 1;
nodes = (
"163 372 LINE",
"395 372 LINE SMOOTH",
"477 372 OFFCURVE",
"537 319 OFFCURVE",
"537 233 CURVE SMOOTH",
"537 221 OFFCURVE",
"536 203 OFFCURVE",
"532 185 CURVE SMOOTH",
"510 88 OFFCURVE",
"462 22 OFFCURVE",
"337 22 CURVE SMOOTH",
"107 22 LINE"
);
},
{
closed = 1;
nodes = (
"216 710 LINE",
"425 710 LINE SMOOTH",
"518 710 OFFCURVE",
"572 677 OFFCURVE",
"572 596 CURVE SMOOTH",
"572 580 OFFCURVE",
"570 564 OFFCURVE",
"566 545 CURVE SMOOTH",
"546 447 OFFCURVE",
"489 394 OFFCURVE",
"396 394 CURVE SMOOTH",
"166 394 LINE"
);
}
);
width = 597;
}
);
note = "\012    GF Latin Plus glyph\012  ";
unicode = 0042;
userData = {
com.fontlab.hintData = {
hhints = (
{
position = 0;
width = 164;
},
{
position = 306;
width = 154;
},
{
position = 568;
width = 164;
}
);
};
com.typemytype.robofont.layerData = {
background = {
anchors = (
);
components = (
);
contours = (
{
points = (
{
segmentType = line;
smooth = 0;
x = 923;
y = 451;
},
{
segmentType = line;
smooth = 0;
x = 942;
y = 569;
},
{
segmentType = line;
smooth = 1;
x = 1054;
y = 569;
},
{
smooth = 0;
x = 1075;
y = 569;
},
{
smooth = 0;
x = 1095;
y = 555;
},
{
segmentType = curve;
smooth = 1;
x = 1088;
y = 510;
},
{
smooth = 0;
x = 1083;
y = 477;
},
{
smooth = 0;
x = 1064;
y = 451;
},
{
segmentType = curve;
smooth = 1;
x = 1035;
y = 451;
}
);
},
{
points = (
{
segmentType = line;
smooth = 0;
x = 880;
y = 174;
},
{
segmentType = line;
smooth = 0;
x = 900;
y = 304;
},
{
segmentType = line;
smooth = 1;
x = 1023;
y = 304;
},
{
smooth = 0;
x = 1058;
y = 304;
},
{
smooth = 0;
x = 1074;
y = 279;
},
{
segmentType = curve;
smooth = 1;
x = 1068;
y = 239;
},
{
smooth = 0;
x = 1062;
y = 199;
},
{
smooth = 0;
x = 1038;
y = 174;
},
{
segmentType = curve;
smooth = 1;
x = 1003;
y = 174;
}
);
},
{
points = (
{
segmentType = line;
smooth = 0;
x = 658;
y = 0;
},
{
segmentType = line;
smooth = 1;
x = 981;
y = 0;
},
{
smooth = 0;
x = 1135;
y = 0;
},
{
smooth = 0;
x = 1223;
y = 57;
},
{
segmentType = curve;
smooth = 1;
x = 1246;
y = 204;
},
{
smooth = 0;
x = 1263;
y = 309;
},
{
smooth = 0;
x = 1217;
y = 369;
},
{
segmentType = curve;
smooth = 0;
x = 1150;
y = 386;
},
{
smooth = 0;
x = 1221;
y = 403;
},
{
smooth = 0;
x = 1264;
y = 459;
},
{
segmentType = curve;
smooth = 1;
x = 1277;
y = 545;
},
{
smooth = 0;
x = 1297;
y = 668;
},
{
smooth = 0;
x = 1244;
y = 743;
},
{
segmentType = curve;
smooth = 1;
x = 1084;
y = 743;
},
{
segmentType = line;
smooth = 0;
x = 776;
y = 743;
}
);
},
{
points = (
{
segmentType = line;
smooth = 0;
x = 321;
y = 451;
},
{
segmentType = line;
smooth = 0;
x = 340;
y = 569;
},
{
segmentType = line;
smooth = 1;
x = 452;
y = 569;
},
{
smooth = 0;
x = 473;
y = 569;
},
{
smooth = 0;
x = 493;
y = 555;
},
{
segmentType = curve;
smooth = 1;
x = 486;
y = 510;
},
{
smooth = 0;
x = 481;
y = 477;
},
{
smooth = 0;
x = 462;
y = 451;
},
{
segmentType = curve;
smooth = 1;
x = 433;
y = 451;
}
);
},
{
points = (
{
segmentType = line;
smooth = 0;
x = 278;
y = 174;
},
{
segmentType = line;
smooth = 0;
x = 298;
y = 304;
},
{
segmentType = line;
smooth = 1;
x = 421;
y = 304;
},
{
smooth = 0;
x = 456;
y = 304;
},
{
smooth = 0;
x = 472;
y = 279;
},
{
segmentType = curve;
smooth = 1;
x = 466;
y = 239;
},
{
smooth = 0;
x = 460;
y = 199;
},
{
smooth = 0;
x = 436;
y = 174;
},
{
segmentType = curve;
smooth = 1;
x = 401;
y = 174;
}
);
},
{
points = (
{
segmentType = line;
smooth = 0;
x = 56;
y = 0;
},
{
segmentType = line;
smooth = 1;
x = 379;
y = 0;
},
{
smooth = 0;
x = 533;
y = 0;
},
{
smooth = 0;
x = 621;
y = 57;
},
{
segmentType = curve;
smooth = 1;
x = 644;
y = 204;
},
{
smooth = 0;
x = 661;
y = 309;
},
{
smooth = 0;
x = 615;
y = 369;
},
{
segmentType = curve;
smooth = 0;
x = 548;
y = 386;
},
{
smooth = 0;
x = 619;
y = 403;
},
{
smooth = 0;
x = 662;
y = 459;
},
{
segmentType = curve;
smooth = 1;
x = 675;
y = 545;
},
{
smooth = 0;
x = 695;
y = 668;
},
{
smooth = 0;
x = 642;
y = 743;
},
{
segmentType = curve;
smooth = 1;
x = 482;
y = 743;
},
{
segmentType = line;
smooth = 0;
x = 174;
y = 743;
}
);
}
);
lib = {
};
name = B;
unicodes = (
);
width = 649;
};
};
};
},
{
glyphname = C;
layers = (
{
anchors = (
{
name = bottom;
position = "{308, -150}";
},
{
name = top;
position = "{460, 810}";
}
);
background = {
components = (
{
name = O;
}
);
paths = (
{
closed = 1;
nodes = (
"98 399 CURVE SMOOTH",
"134 632 OFFCURVE",
"211 740 OFFCURVE",
"410 740 CURVE SMOOTH",
"554 740 OFFCURVE",
"587 732 OFFCURVE",
"668 700 CURVE",
"644 549 LINE SMOOTH",
"643 549 OFFCURVE",
"546 566 OFFCURVE",
"443 566 CURVE SMOOTH",
"359 566 OFFCURVE",
"324 570 OFFCURVE",
"292 366 CURVE SMOOTH",
"266 202 OFFCURVE",
"279 168 OFFCURVE",
"380 168 CURVE SMOOTH",
"485 168 OFFCURVE",
"585 177 OFFCURVE",
"585 177 CURVE",
"561 26 LINE",
"495 0 OFFCURVE",
"440 -9 OFFCURVE",
"292 -6 CURVE SMOOTH",
"108 -3 OFFCURVE",
"60 153 OFFCURVE"
);
}
);
};
layerId = "FDCB0490-BEB2-4154-BC16-7BC1D55E5E84";
paths = (
{
closed = 1;
nodes = (
"415 -6 OFFCURVE",
"492.963 -1.015 OFFCURVE",
"561 26 CURVE",
"585 179 LINE",
"528.996 173 OFFCURVE",
"484 168 OFFCURVE",
"400 168 CURVE SMOOTH",
"308 168 OFFCURVE",
"278 195 OFFCURVE",
"278 256 CURVE SMOOTH",
"278 284 OFFCURVE",
"283 320 OFFCURVE",
"290 366 CURVE SMOOTH",
"321 562 OFFCURVE",
"370 575 OFFCURVE",
"456 575 CURVE SMOOTH",
"516 575 OFFCURVE",
"589.975 562.007 OFFCURVE",
"643 546 CURVE",
"668 700 LINE",
"624.977 721.011 OFFCURVE",
"544 749 OFFCURVE",
"420 749 CURVE SMOOTH",
"223 749 OFFCURVE",
"134 632 OFFCURVE",
"98 399 CURVE SMOOTH",
"90 348 OFFCURVE",
"86 300 OFFCURVE",
"86 258 CURVE SMOOTH",
"86 95 OFFCURVE",
"170 -6 OFFCURVE",
"348 -6 CURVE SMOOTH"
);
}
);
width = 592;
},
{
anchors = (
{
name = bottom;
position = "{297, -150}";
},
{
name = top;
position = "{429, 810}";
}
);
background = {
components = (
{
name = O;
transform = "{1, 0, 0, 1, 1, 0}";
}
);
paths = (
{
closed = 1;
nodes = (
"118 376 CURVE SMOOTH",
"154 606 OFFCURVE",
"215 740 OFFCURVE",
"418 740 CURVE SMOOTH",
"470 740 OFFCURVE",
"562 729 OFFCURVE",
"630 716 CURVE",
"628 702 LINE SMOOTH",
"627 702 OFFCURVE",
"508 716 OFFCURVE",
"416 716 CURVE SMOOTH",
"269 716 OFFCURVE",
"186 646 OFFCURVE",
"142 366 CURVE SMOOTH",
"106 138 OFFCURVE",
"155 18 OFFCURVE",
"307 18 CURVE SMOOTH",
"412 18 OFFCURVE",
"521 30 OFFCURVE",
"521 30 CURVE",
"519 16 LINE",
"447 3 OFFCURVE",
"354 -6 OFFCURVE",
"302 -6 CURVE SMOOTH",
"117 -6 OFFCURVE",
"84 161 OFFCURVE"
);
}
);
};
layerId = "DE62D6C8-A9BF-4A7E-9D02-9A707AFEE35E";
paths = (
{
closed = 1;
nodes = (
"374 -6 OFFCURVE",
"454 1 OFFCURVE",
"518 14 CURVE",
"521 30 LINE",
"466 21 OFFCURVE",
"412 16 OFFCURVE",
"307 16 CURVE SMOOTH",
"186 16 OFFCURVE",
"139 73 OFFCURVE",
"139 211 CURVE SMOOTH",
"139 256 OFFCURVE",
"146 319 OFFCURVE",
"154 366 CURVE SMOOTH",
"195 601 OFFCURVE",
"263 716 OFFCURVE",
"416 716 CURVE SMOOTH",
"498 716 OFFCURVE",
"560 710 OFFCURVE",
"628 700 CURVE",
"632 716 LINE",
"577 726 OFFCURVE",
"511 738 OFFCURVE",
"418 738 CURVE SMOOTH",
"247 738 OFFCURVE",
"166 606 OFFCURVE",
"130 376 CURVE SMOOTH",
"122 328 OFFCURVE",
"114 263 OFFCURVE",
"114 210 CURVE SMOOTH",
"114 67 OFFCURVE",
"168 -6 OFFCURVE",
"302 -6 CURVE SMOOTH"
);
}
);
width = 589;
}
);
leftKerningGroup = O;
note = "\012    GF Latin Plus glyph\012  ";
unicode = 0043;
userData = {
com.fontlab.hintData = {
hhints = (
{
position = -6;
width = 174;
},
{
position = 566;
width = 174;
}
);
};
com.typemytype.robofont.layerData = {
background = {
anchors = (
);
components = (
{
baseGlyph = O;
transformation = (
1,
0,
0,
1,
0,
0
);
}
);
contours = (
{
points = (
{
segmentType = curve;
smooth = 1;
x = 98;
y = 399;
},
{
smooth = 0;
x = 134;
y = 632;
},
{
smooth = 0;
x = 211;
y = 740;
},
{
segmentType = curve;
smooth = 1;
x = 410;
y = 740;
},
{
smooth = 0;
x = 554;
y = 740;
},
{
smooth = 0;
x = 587;
y = 732;
},
{
segmentType = curve;
smooth = 0;
x = 668;
y = 700;
},
{
segmentType = line;
smooth = 1;
x = 644;
y = 549;
},
{
smooth = 0;
x = 643;
y = 549;
},
{
smooth = 0;
x = 546;
y = 566;
},
{
segmentType = curve;
smooth = 1;
x = 443;
y = 566;
},
{
smooth = 0;
x = 359;
y = 566;
},
{
smooth = 0;
x = 324;
y = 570;
},
{
segmentType = curve;
smooth = 1;
x = 292;
y = 366;
},
{
smooth = 0;
x = 266;
y = 202;
},
{
smooth = 0;
x = 279;
y = 168;
},
{
segmentType = curve;
smooth = 1;
x = 380;
y = 168;
},
{
smooth = 0;
x = 485;
y = 168;
},
{
smooth = 0;
x = 585;
y = 177;
},
{
segmentType = curve;
smooth = 0;
x = 585;
y = 177;
},
{
segmentType = line;
smooth = 0;
x = 561;
y = 26;
},
{
smooth = 0;
x = 495;
y = 0;
},
{
smooth = 0;
x = 440;
y = -9;
},
{
segmentType = curve;
smooth = 1;
x = 292;
y = -6;
},
{
smooth = 0;
x = 108;
y = -3;
},
{
smooth = 0;
x = 60;
y = 153;
}
);
}
);
lib = {
};
name = C;
unicodes = (
);
width = 592;
};
};
};
},
{
glyphname = D;
layers = (
{
anchors = (
{
name = bottom;
position = "{298, -150}";
},
{
name = top;
position = "{450, 810}";
}
);
background = {
components = (
{
name = I;
},
{
name = O;
transform = "{1, 0, 0, 1, -8, 0}";
}
);
paths = (
{
closed = 1;
nodes = (
"265 164 LINE",
"369 164 LINE SMOOTH",
"433 164 OFFCURVE",
"459 223 OFFCURVE",
"481 364 CURVE SMOOTH",
"510 545 OFFCURVE",
"481 568 OFFCURVE",
"423 568 CURVE SMOOTH",
"329 568 LINE"
);
},
{
closed = 1;
nodes = (
"45 0 LINE",
"161 732 LINE",
"477 732 LINE SMOOTH",
"676 732 OFFCURVE",
"707 557 OFFCURVE",
"674 333 CURVE SMOOTH",
"633 53 OFFCURVE",
"545 0 OFFCURVE",
"378 0 CURVE SMOOTH"
);
}
);
};
layerId = "FDCB0490-BEB2-4154-BC16-7BC1D55E5E84";
paths = (
{
closed = 1;
nodes = (
"340 0 LINE SMOOTH",
"554 0 OFFCURVE",
"674 85 OFFCURVE",
"715 344 CURVE SMOOTH",
"723 393 OFFCURVE",
"726 440 OFFCURVE",
"726 483 CURVE SMOOTH",
"726 636 OFFCURVE",
"672 743 OFFCURVE",
"464 743 CURVE SMOOTH",
"173 743 LINE",
"55 0 LINE"
);
},
{
closed = 1;
nodes = (
"339 569 LINE",
"416 569 LINE SMOOTH",
"497 569 OFFCURVE",
"532 548 OFFCURVE",
"532 474 CURVE SMOOTH",
"532 456 OFFCURVE",
"528 421 OFFCURVE",
"521 375 CURVE SMOOTH",
"498 232 OFFCURVE",
"452.915 174 OFFCURVE",
"361 174 CURVE SMOOTH",
"277 174 LINE"
);
}
);
width = 696;
},
{
anchors = (
{
name = bottom;
position = "{267, -150}";
},
{
name = top;
position = "{419, 810}";
}
);
background = {
components = (
{
name = I;
},
{
name = O;
transform = "{1, 0, 0, 1, -20, 0}";
}
);
paths = (
{
closed = 1;
nodes = (
"108 24 LINE",
"339 24 LINE SMOOTH",
"521 24 OFFCURVE",
"601 216 OFFCURVE",
"626 364 CURVE SMOOTH",
"666 601 OFFCURVE",
"594 708 OFFCURVE",
"443 708 CURVE SMOOTH",
"216 708 LINE"
);
},
{
closed = 1;
nodes = (
"80 0 LINE",
"196 732 LINE",
"448 732 LINE SMOOTH",
"674 732 OFFCURVE",
"677 504 OFFCURVE",
"649 355 CURVE SMOOTH",
"613 163 OFFCURVE",
"524 0 OFFCURVE",
"339 0 CURVE SMOOTH"
);
}
);
};
layerId = "DE62D6C8-A9BF-4A7E-9D02-9A707AFEE35E";
paths = (
{
closed = 1;
nodes = (
"339 0 LINE SMOOTH",
"531 0 OFFCURVE",
"619 163 OFFCURVE",
"649 355 CURVE SMOOTH",
"655 393 OFFCURVE",
"661 436 OFFCURVE",
"661 478 CURVE SMOOTH",
"661 645 OFFCURVE",
"607 732 OFFCURVE",
"448 732 CURVE SMOOTH",
"196 732 LINE",
"80 0 LINE"
);
},
{
closed = 1;
nodes = (
"216 710 LINE",
"443 710 LINE SMOOTH",
"596 710 OFFCURVE",
"637 628 OFFCURVE",
"637 481 CURVE SMOOTH",
"637 447 OFFCURVE",
"633 407 OFFCURVE",
"626 364 CURVE SMOOTH",
"598 183 OFFCURVE",
"519 22 OFFCURVE",
"338 22 CURVE SMOOTH",
"107 22 LINE"
);
}
);
width = 663;
}
);
note = "\012    GF Latin Plus glyph\012  ";
rightKerningGroup = O;
unicode = 0044;
userData = {
com.fontlab.hintData = {
hhints = (
{
position = 0;
width = 164;
},
{
position = 568;
width = 164;
}
);
};
com.typemytype.robofont.layerData = {
background = {
anchors = (
);
components = (
{
baseGlyph = I;
transformation = (
1,
0,
0,
1,
0,
0
);
},
{
baseGlyph = O;
transformation = (
1,
0,
0,
1,
-8,
0
);
}
);
contours = (
{
points = (
{
segmentType = line;
smooth = 0;
x = 265;
y = 164;
},
{
segmentType = line;
smooth = 1;
x = 369;
y = 164;
},
{
smooth = 0;
x = 433;
y = 164;
},
{
smooth = 0;
x = 459;
y = 223;
},
{
segmentType = curve;
smooth = 1;
x = 481;
y = 364;
},
{
smooth = 0;
x = 510;
y = 545;
},
{
smooth = 0;
x = 481;
y = 568;
},
{
segmentType = curve;
smooth = 1;
x = 423;
y = 568;
},
{
segmentType = line;
smooth = 0;
x = 329;
y = 568;
}
);
},
{
points = (
{
segmentType = line;
smooth = 0;
x = 45;
y = 0;
},
{
segmentType = line;
smooth = 0;
x = 161;
y = 732;
},
{
segmentType = line;
smooth = 1;
x = 477;
y = 732;
},
{
smooth = 0;
x = 676;
y = 732;
},
{
smooth = 0;
x = 707;
y = 557;
},
{
segmentType = curve;
smooth = 1;
x = 674;
y = 333;
},
{
smooth = 0;
x = 633;
y = 53;
},
{
smooth = 0;
x = 545;
y = 0;
},
{
segmentType = curve;
smooth = 1;
x = 378;
y = 0;
}
);
}
);
lib = {
};
name = D;
unicodes = (
);
width = 696;
};
};
};
},
{
glyphname = Eth;
layers = (
{
background = {
paths = (
{
closed = 1;
nodes = (
"265 164 LINE",
"374 164 LINE SMOOTH",
"431 164 OFFCURVE",
"458 223 OFFCURVE",
"480 364 CURVE SMOOTH",
"509 545 OFFCURVE",
"485 568 OFFCURVE",
"438 568 CURVE SMOOTH",
"329 568 LINE",
"304 410 LINE",
"393 410 LINE",
"381 336 LINE",
"292 336 LINE"
);
},
{
closed = 1;
nodes = (
"33 336 LINE",
"45 410 LINE",
"110 410 LINE",
"161 732 LINE",
"484 732 LINE SMOOTH",
"683 732 OFFCURVE",
"707 540 OFFCURVE",
"674 333 CURVE SMOOTH",
"633 77 OFFCURVE",
"555 0 OFFCURVE",
"388 0 CURVE SMOOTH",
"45 0 LINE",
"98 336 LINE"
);
}
);
};
components = (
{
name = D;
}
);
layerId = "FDCB0490-BEB2-4154-BC16-7BC1D55E5E84";
paths = (
{
closed = 1;
nodes = (
"378 311 LINE",
"398 435 LINE",
"74 435 LINE",
"54 311 LINE"
);
}
);
width = 696;
},
{
background = {
paths = (
{
closed = 1;
nodes = (
"107 24 LINE",
"338 24 LINE SMOOTH",
"520 24 OFFCURVE",
"600 216 OFFCURVE",
"625 364 CURVE SMOOTH",
"665 601 OFFCURVE",
"593 708 OFFCURVE",
"442 708 CURVE SMOOTH",
"215 708 LINE",
"163 380 LINE",
"322 380 LINE",
"320 366 LINE",
"161 366 LINE"
);
},
{
closed = 1;
nodes = (
"72 366 LINE",
"74 380 LINE",
"139 380 LINE",
"195 732 LINE",
"447 732 LINE SMOOTH",
"673 732 OFFCURVE",
"677 504 OFFCURVE",
"649 355 CURVE SMOOTH",
"613 163 OFFCURVE",
"523 0 OFFCURVE",
"338 0 CURVE SMOOTH",
"79 0 LINE",
"137 366 LINE"
);
}
);
};
components = (
{
name = D;
}
);
layerId = "DE62D6C8-A9BF-4A7E-9D02-9A707AFEE35E";
paths = (
{
closed = 1;
nodes = (
"386 362 LINE",
"390 384 LINE",
"66 384 LINE",
"62 362 LINE"
);
}
);
width = 663;
}
);
note = "\012    GF Latin Plus glyph\012  ";
rightKerningGroup = O;
unicode = 00D0;
userData = {
com.fontlab.hintData = {
hhints = (
{
position = 0;
width = 164;
},
{
position = 336;
width = 74;
},
{
position = 568;
width = 164;
}
);
};
com.typemytype.robofont.layerData = {
background = {
anchors = (
);
components = (
);
contours = (
{
points = (
{
segmentType = line;
smooth = 0;
x = 265;
y = 164;
},
{
segmentType = line;
smooth = 1;
x = 374;
y = 164;
},
{
smooth = 0;
x = 431;
y = 164;
},
{
smooth = 0;
x = 458;
y = 223;
},
{
segmentType = curve;
smooth = 1;
x = 480;
y = 364;
},
{
smooth = 0;
x = 509;
y = 545;
},
{
smooth = 0;
x = 485;
y = 568;
},
{
segmentType = curve;
smooth = 1;
x = 438;
y = 568;
},
{
segmentType = line;
smooth = 0;
x = 329;
y = 568;
},
{
segmentType = line;
smooth = 0;
x = 304;
y = 410;
},
{
segmentType = line;
smooth = 0;
x = 393;
y = 410;
},
{
segmentType = line;
smooth = 0;
x = 381;
y = 336;
},
{
segmentType = line;
smooth = 0;
x = 292;
y = 336;
}
);
},
{
points = (
{
segmentType = line;
smooth = 0;
x = 33;
y = 336;
},
{
segmentType = line;
smooth = 0;
x = 45;
y = 410;
},
{
segmentType = line;
smooth = 0;
x = 110;
y = 410;
},
{
segmentType = line;
smooth = 0;
x = 161;
y = 732;
},
{
segmentType = line;
smooth = 1;
x = 484;
y = 732;
},
{
smooth = 0;
x = 683;
y = 732;
},
{
smooth = 0;
x = 707;
y = 540;
},
{
segmentType = curve;
smooth = 1;
x = 674;
y = 333;
},
{
smooth = 0;
x = 633;
y = 77;
},
{
smooth = 0;
x = 555;
y = 0;
},
{
segmentType = curve;
smooth = 1;
x = 388;
y = 0;
},
{
segmentType = line;
smooth = 0;
x = 45;
y = 0;
},
{
segmentType = line;
smooth = 0;
x = 98;
y = 336;
}
);
}
);
lib = {
};
name = Eth;
unicodes = (
);
width = 696;
};
};
};
},
{
glyphname = Dcroat;
layers = (
{
background = {
paths = (
{
closed = 1;
nodes = (
"276 164 LINE",
"385 164 LINE SMOOTH",
"442 164 OFFCURVE",
"469 223 OFFCURVE",
"491 364 CURVE SMOOTH",
"520 545 OFFCURVE",
"496 568 OFFCURVE",
"449 568 CURVE SMOOTH",
"340 568 LINE",
"315 410 LINE",
"404 410 LINE",
"392 336 LINE",
"303 336 LINE"
);
},
{
closed = 1;
nodes = (
"44 336 LINE",
"56 410 LINE",
"121 410 LINE",
"172 732 LINE",
"495 732 LINE SMOOTH",
"694 732 OFFCURVE",
"718 540 OFFCURVE",
"685 333 CURVE SMOOTH",
"644 77 OFFCURVE",
"566 0 OFFCURVE",
"399 0 CURVE SMOOTH",
"56 0 LINE",
"109 336 LINE"
);
}
);
};
components = (
{
name = Eth;
}
);
layerId = "FDCB0490-BEB2-4154-BC16-7BC1D55E5E84";
width = 696;
},
{
background = {
paths = (
{
closed = 1;
nodes = (
"108 24 LINE",
"339 24 LINE SMOOTH",
"521 24 OFFCURVE",
"601 216 OFFCURVE",
"626 364 CURVE SMOOTH",
"666 601 OFFCURVE",
"594 708 OFFCURVE",
"443 708 CURVE SMOOTH",
"216 708 LINE",
"164 380 LINE",
"323 380 LINE",
"321 366 LINE",
"162 366 LINE"
);
},
{
closed = 1;
nodes = (
"73 366 LINE",
"75 380 LINE",
"140 380 LINE",
"196 732 LINE",
"448 732 LINE SMOOTH",
"674 732 OFFCURVE",
"678 504 OFFCURVE",
"650 355 CURVE SMOOTH",
"614 163 OFFCURVE",
"524 0 OFFCURVE",
"339 0 CURVE SMOOTH",
"80 0 LINE",
"138 366 LINE"
);
}
);
};
components = (
{
name = Eth;
}
);
layerId = "DE62D6C8-A9BF-4A7E-9D02-9A707AFEE35E";
width = 663;
}
);
note = "\012    GF Latin Plus glyph\012  ";
rightKerningGroup = O;
unicode = 0110;
userData = {
com.fontlab.hintData = {
hhints = (
{
position = 0;
width = 164;
},
{
position = 336;
width = 74;
},
{
position = 568;
width = 164;
}
);
};
com.typemytype.robofont.layerData = {
background = {
anchors = (
);
components = (
);
contours = (
{
points = (
{
segmentType = line;
smooth = 0;
x = 276;
y = 164;
},
{
segmentType = line;
smooth = 1;
x = 385;
y = 164;
},
{
smooth = 0;
x = 442;
y = 164;
},
{
smooth = 0;
x = 469;
y = 223;
},
{
segmentType = curve;
smooth = 1;
x = 491;
y = 364;
},
{
smooth = 0;
x = 520;
y = 545;
},
{
smooth = 0;
x = 496;
y = 568;
},
{
segmentType = curve;
smooth = 1;
x = 449;
y = 568;
},
{
segmentType = line;
smooth = 0;
x = 340;
y = 568;
},
{
segmentType = line;
smooth = 0;
x = 315;
y = 410;
},
{
segmentType = line;
smooth = 0;
x = 404;
y = 410;
},
{
segmentType = line;
smooth = 0;
x = 392;
y = 336;
},
{
segmentType = line;
smooth = 0;
x = 303;
y = 336;
}
);
},
{
points = (
{
segmentType = line;
smooth = 0;
x = 44;
y = 336;
},
{
segmentType = line;
smooth = 0;
x = 56;
y = 410;
},
{
segmentType = line;
smooth = 0;
x = 121;
y = 410;
},
{
segmentType = line;
smooth = 0;
x = 172;
y = 732;
},
{
segmentType = line;
smooth = 1;
x = 495;
y = 732;
},
{
smooth = 0;
x = 694;
y = 732;
},
{
smooth = 0;
x = 718;
y = 540;
},
{
segmentType = curve;
smooth = 1;
x = 685;
y = 333;
},
{
smooth = 0;
x = 644;
y = 77;
},
{
smooth = 0;
x = 566;
y = 0;
},
{
segmentType = curve;
smooth = 1;
x = 399;
y = 0;
},
{
segmentType = line;
smooth = 0;
x = 56;
y = 0;
},
{
segmentType = line;
smooth = 0;
x = 109;
y = 336;
}
);
}
);
lib = {
};
name = Dcroat;
unicodes = (
);
width = 696;
};
};
};
},
{
glyphname = E;
layers = (
{
anchors = (
{
name = bottom;
position = "{278, -150}";
},
{
name = ogonek;
position = "{541, 12}";
},
{
name = top;
position = "{430, 810}";
}
);
background = {
paths = (
{
closed = 1;
nodes = (
"82 173 CURVE SMOOTH",
"145 572 LINE SMOOTH",
"168 716 OFFCURVE",
"269 732 OFFCURVE",
"358 732 CURVE",
"358 732 OFFCURVE",
"547 732 OFFCURVE",
"662 716 CURVE",
"636 553 LINE",
"389 553 LINE SMOOTH",
"337 553 OFFCURVE",
"333 524 OFFCURVE",
"329 497 CURVE SMOOTH",
"323 457 LINE",
"569 446 LINE",
"543 285 LINE",
"294 276 LINE",
"286 228 LINE SMOOTH",
"277 175 OFFCURVE",
"311 176 OFFCURVE",
"340 176 CURVE SMOOTH",
"577 176 LINE",
"551 14 LINE",
"445 0 OFFCURVE",
"251 -3 OFFCURVE",
"251 -3 CURVE",
"176.667 -5.333 OFFCURVE",
"58 20 OFFCURVE"
);
}
);
};
layerId = "FDCB0490-BEB2-4154-BC16-7BC1D55E5E84";
paths = (
{
closed = 1;
nodes = (
"363 -6 OFFCURVE",
"458 3 OFFCURVE",
"551 12 CURVE",
"577 176 LINE",
"331 176 LINE SMOOTH",
"292 176 OFFCURVE",
"280 195 OFFCURVE",
"285 228 CURVE SMOOTH",
"294 286 LINE",
"544 296 LINE",
"568 450 LINE",
"322 460 LINE",
"329 507 LINE SMOOTH",
"335 544 OFFCURVE",
"348 564 OFFCURVE",
"390 564 CURVE SMOOTH",
"638 564 LINE",
"664 728 LINE",
"558 737 OFFCURVE",
"460 743 OFFCURVE",
"360 743 CURVE SMOOTH",
"251 743 OFFCURVE",
"165 697 OFFCURVE",
"143 556 CURVE SMOOTH",
"82 173 LINE SMOOTH",
"58 20 OFFCURVE",
"177 -6 OFFCURVE",
"251 -6 CURVE SMOOTH"
);
}
);
width = 604;
},
{
anchors = (
{
name = bottom;
position = "{277, -150}";
},
{
name = ogonek;
position = "{495, 0}";
},
{
name = top;
position = "{429, 810}";
}
);
background = {
paths = (
{
closed = 1;
nodes = (
"100 128 CURVE SMOOTH",
"176 607 LINE SMOOTH",
"192 705 OFFCURVE",
"258 734 OFFCURVE",
"322 732 CURVE SMOOTH",
"618 722 LINE",
"616 708 LINE",
"319 708 LINE SMOOTH",
"257 708 OFFCURVE",
"212 677 OFFCURVE",
"200 602 CURVE SMOOTH",
"164 375 LINE",
"522 370 LINE",
"520 356 LINE",
"160 351 LINE",
"124 123 LINE SMOOTH",
"109 31 OFFCURVE",
"165 21 OFFCURVE",
"220 21 CURVE SMOOTH",
"507 21 LINE",
"505 7 LINE",
"216 -3 LINE SMOOTH",
"150 -5 OFFCURVE",
"82 15 OFFCURVE"
);
}
);
};
layerId = "DE62D6C8-A9BF-4A7E-9D02-9A707AFEE35E";
paths = (
{
closed = 1;
nodes = (
"312 -4 OFFCURVE",
"409 -2 OFFCURVE",
"505 0 CURVE",
"508 16 LINE",
"220 16 LINE SMOOTH",
"156 16 OFFCURVE",
"110 31 OFFCURVE",
"124 123 CURVE SMOOTH",
"159 351 LINE",
"519 353 LINE",
"522 369 LINE",
"163 375 LINE",
"199 602 LINE SMOOTH",
"212 683 OFFCURVE",
"257 710 OFFCURVE",
"319 710 CURVE SMOOTH",
"616 710 LINE",
"619 726 LINE",
"520 728 OFFCURVE",
"421 730 OFFCURVE",
"322 732 CURVE SMOOTH",
"258 733 OFFCURVE",
"192 705 OFFCURVE",
"176 607 CURVE SMOOTH",
"100 128 LINE SMOOTH",
"82 15 OFFCURVE",
"150 -7 OFFCURVE",
"216 -6 CURVE SMOOTH"
);
}
);
width = 565;
}
);
leftKerningGroup = E;
note = "\012    GF Latin Plus glyph\012  ";
rightKerningGroup = E;
unicode = 0045;
userData = {
com.fontlab.hintData = {
hhints = (
{
position = -3;
width = 179;
},
{
position = 14;
width = 162;
},
{
position = 276;
width = 181;
},
{
position = 285;
width = 161;
},
{
position = 553;
width = 179;
},
{
position = 553;
width = 163;
}
);
};
com.typemytype.robofont.layerData = {
background = {
anchors = (
);
components = (
);
contours = (
{
points = (
{
segmentType = curve;
smooth = 1;
x = 82;
y = 173;
},
{
segmentType = line;
smooth = 1;
x = 145;
y = 572;
},
{
smooth = 0;
x = 168;
y = 716;
},
{
smooth = 0;
x = 269;
y = 732;
},
{
segmentType = curve;
smooth = 0;
x = 358;
y = 732;
},
{
smooth = 0;
x = 358;
y = 732;
},
{
smooth = 0;
x = 547;
y = 732;
},
{
segmentType = curve;
smooth = 0;
x = 662;
y = 716;
},
{
segmentType = line;
smooth = 0;
x = 636;
y = 553;
},
{
segmentType = line;
smooth = 1;
x = 389;
y = 553;
},
{
smooth = 0;
x = 337;
y = 553;
},
{
smooth = 0;
x = 333;
y = 524;
},
{
segmentType = curve;
smooth = 1;
x = 329;
y = 497;
},
{
segmentType = line;
smooth = 0;
x = 323;
y = 457;
},
{
segmentType = line;
smooth = 0;
x = 569;
y = 446;
},
{
segmentType = line;
smooth = 0;
x = 543;
y = 285;
},
{
segmentType = line;
smooth = 0;
x = 294;
y = 276;
},
{
segmentType = line;
smooth = 1;
x = 286;
y = 228;
},
{
smooth = 0;
x = 277;
y = 175;
},
{
smooth = 0;
x = 311;
y = 176;
},
{
segmentType = curve;
smooth = 1;
x = 340;
y = 176;
},
{
segmentType = line;
smooth = 0;
x = 577;
y = 176;
},
{
segmentType = line;
smooth = 0;
x = 551;
y = 14;
},
{
smooth = 0;
x = 445;
y = 0;
},
{
smooth = 0;
x = 251;
y = -3;
},
{
segmentType = curve;
smooth = 0;
x = 251;
y = -3;
},
{
smooth = 0;
x = 176.66701;
y = -5.33330;
},
{
smooth = 0;
x = 58;
y = 20;
}
);
}
);
lib = {
};
name = E;
unicodes = (
);
width = 604;
};
};
};
},
{
glyphname = F;
layers = (
{
anchors = (
{
name = top;
position = "{440, 810}";
}
);
background = {
components = (
{
name = E;
}
);
paths = (
{
closed = 1;
nodes = (
"40 0 LINE",
"127 552 LINE SMOOTH",
"150 696 OFFCURVE",
"252 732 OFFCURVE",
"342 732 CURVE",
"342 732 OFFCURVE",
"531 732 OFFCURVE",
"646 716 CURVE",
"621 553 LINE",
"374 553 LINE SMOOTH",
"322 553 OFFCURVE",
"317 524 OFFCURVE",
"313 497 CURVE SMOOTH",
"306 453 LINE",
"553 442 LINE",
"528 281 LINE",
"277 272 LINE",
"234 0 LINE"
);
}
);
};
layerId = "FDCB0490-BEB2-4154-BC16-7BC1D55E5E84";
paths = (
{
closed = 1;
nodes = (
"249 0 LINE",
"290 256 LINE",
"540 266 LINE",
"565 420 LINE",
"317 429 LINE",
"329 508 LINE SMOOTH",
"334 543 OFFCURVE",
"348 563 OFFCURVE",
"390 563 CURVE SMOOTH",
"636 563 LINE",
"662 727 LINE",
"567 737 OFFCURVE",
"478 743 OFFCURVE",
"358 743 CURVE SMOOTH",
"268 743 OFFCURVE",
"167 707 OFFCURVE",
"144 563 CURVE SMOOTH",
"55 0 LINE"
);
}
);
width = 572;
},
{
anchors = (
{
name = top;
position = "{419, 810}";
}
);
background = {
components = (
{
name = E;
}
);
paths = (
{
closed = 1;
nodes = (
"80 0 LINE",
"174 598 LINE SMOOTH",
"192 712 OFFCURVE",
"254 734 OFFCURVE",
"321 732 CURVE SMOOTH",
"617 722 LINE",
"615 708 LINE",
"316 708 LINE SMOOTH",
"250 708 OFFCURVE",
"211 679 OFFCURVE",
"199 602 CURVE SMOOTH",
"163 375 LINE",
"522 370 LINE",
"519 356 LINE",
"160 351 LINE",
"104 0 LINE"
);
}
);
};
layerId = "DE62D6C8-A9BF-4A7E-9D02-9A707AFEE35E";
paths = (
{
closed = 1;
nodes = (
"104 0 LINE",
"160 351 LINE",
"519 353 LINE",
"522 369 LINE",
"163 375 LINE",
"199 602 LINE SMOOTH",
"212 681 OFFCURVE",
"250 710 OFFCURVE",
"316 710 CURVE SMOOTH",
"616 710 LINE",
"619 726 LINE",
"520 728 OFFCURVE",
"420 730 OFFCURVE",
"321 732 CURVE SMOOTH",
"254 733 OFFCURVE",
"193 711 OFFCURVE",
"175 598 CURVE SMOOTH",
"80 0 LINE"
);
}
);
width = 544;
}
);
leftKerningGroup = E;
note = "\012    GF Latin Plus glyph\012  ";
rightKerningGroup = F;
unicode = 0046;
userData = {
com.fontlab.hintData = {
hhints = (
{
position = 0;
width = 21;
},
{
position = 272;
width = 181;
},
{
position = 281;
width = 161;
},
{
position = 553;
width = 179;
},
{
position = 553;
width = 163;
}
);
};
com.typemytype.robofont.layerData = {
background = {
anchors = (
);
components = (
{
baseGlyph = E;
transformation = (
1,
0,
0,
1,
0,
0
);
}
);
contours = (
{
points = (
{
segmentType = line;
smooth = 0;
x = 40;
y = 0;
},
{
segmentType = line;
smooth = 1;
x = 127;
y = 552;
},
{
smooth = 0;
x = 150;
y = 696;
},
{
smooth = 0;
x = 252;
y = 732;
},
{
segmentType = curve;
smooth = 0;
x = 342;
y = 732;
},
{
smooth = 0;
x = 342;
y = 732;
},
{
smooth = 0;
x = 531;
y = 732;
},
{
segmentType = curve;
smooth = 0;
x = 646;
y = 716;
},
{
segmentType = line;
smooth = 0;
x = 621;
y = 553;
},
{
segmentType = line;
smooth = 1;
x = 374;
y = 553;
},
{
smooth = 0;
x = 322;
y = 553;
},
{
smooth = 0;
x = 317;
y = 524;
},
{
segmentType = curve;
smooth = 1;
x = 313;
y = 497;
},
{
segmentType = line;
smooth = 0;
x = 306;
y = 453;
},
{
segmentType = line;
smooth = 0;
x = 553;
y = 442;
},
{
segmentType = line;
smooth = 0;
x = 528;
y = 281;
},
{
segmentType = line;
smooth = 0;
x = 277;
y = 272;
},
{
segmentType = line;
smooth = 0;
x = 234;
y = 0;
}
);
}
);
lib = {
};
name = F;
unicodes = (
);
width = 572;
};
};
};
},
{
glyphname = G;
layers = (
{
anchors = (
{
name = bottom;
position = "{298, -150}";
},
{
name = top;
position = "{450, 810}";
}
);
background = {
components = (
{
name = C;
transform = "{1, 0, 0, 1, 700, 0}";
}
);
paths = (
{
closed = 1;
nodes = (
"-507 410 CURVE SMOOTH",
"-461 643 OFFCURVE",
"-404 740 OFFCURVE",
"-205 740 CURVE SMOOTH",
"-46 740 OFFCURVE",
"-36 738 OFFCURVE",
"93 701 CURVE",
"69 554 LINE",
"63 554 OFFCURVE",
"-44 576 OFFCURVE",
"-171 576 CURVE SMOOTH",
"-264 576 OFFCURVE",
"-287 531 OFFCURVE",
"-313 368 CURVE SMOOTH",
"-339 204 OFFCURVE",
"-338 173 OFFCURVE",
"-250 173 CURVE SMOOTH",
"-188 173 OFFCURVE",
"-171 219 OFFCURVE",
"-171 219 CURVE",
"-159 294 LINE",
"-208 294 LINE",
"-189 414 LINE",
"-140 438 OFFCURVE",
"-76 439 OFFCURVE",
"-10 439 CURVE SMOOTH",
"11 439 OFFCURVE",
"34 438 OFFCURVE",
"58 436 CURVE",
"-12 0 LINE",
"-149 0 LINE",
"-196 49 LINE",
"-230 12 OFFCURVE",
"-248 0 OFFCURVE",
"-328 -5 CURVE SMOOTH",
"-537 -18 OFFCURVE",
"-548 202 OFFCURVE"
);
},
{
closed = 1;
nodes = (
"95 370 CURVE SMOOTH",
"63 164 OFFCURVE",
"76 -5 OFFCURVE",
"259 -5 CURVE SMOOTH",
"343 -5 OFFCURVE",
"421 27 OFFCURVE",
"457 49 CURVE",
"475 0 LINE",
"621 0 LINE",
"691 441 LINE",
"660 442 OFFCURVE",
"625 443 OFFCURVE",
"577 443 CURVE SMOOTH",
"523 443 OFFCURVE",
"444 439 OFFCURVE",
"400 433 CURVE",
"376 279 LINE",
"479 279 LINE",
"464 183 LINE",
"444 179 OFFCURVE",
"402 173 OFFCURVE",
"352 173 CURVE SMOOTH",
"284 173 OFFCURVE",
"263 205 OFFCURVE",
"289 370 CURVE SMOOTH",
"315 532 OFFCURVE",
"338 576 OFFCURVE",
"454 576 CURVE SMOOTH",
"548 576 OFFCURVE",
"629 569 OFFCURVE",
"673 562 CURVE",
"697 713 LINE",
"619 735 OFFCURVE",
"563 750 OFFCURVE",
"445 750 CURVE SMOOTH",
"202 750 OFFCURVE",
"132 599 OFFCURVE"
);
}
);
};
layerId = "FDCB0490-BEB2-4154-BC16-7BC1D55E5E84";
paths = (
{
closed = 1;
nodes = (
"327 -6 OFFCURVE",
"417 24 OFFCURVE",
"457 49 CURVE",
"475 0 LINE",
"621 0 LINE",
"691 441 LINE",
"667.744 441.861 OFFCURVE",
"601.444 443 OFFCURVE",
"567 443 CURVE SMOOTH",
"493.096 443 OFFCURVE",
"436.23 435.273 OFFCURVE",
"401 433 CURVE",
"376 279 LINE",
"479 279 LINE",
"464 183 LINE",
"441 178 OFFCURVE",
"386 173 OFFCURVE",
"345 173 CURVE SMOOTH",
"297 173 OFFCURVE",
"278 203 OFFCURVE",
"278 250 CURVE SMOOTH",
"278 279 OFFCURVE",
"282 317 OFFCURVE",
"290 368 CURVE SMOOTH",
"315 531 OFFCURVE",
"343 576 OFFCURVE",
"457 576 CURVE SMOOTH",
"568 576 OFFCURVE",
"637 568 OFFCURVE",
"673 561 CURVE",
"697 713 LINE",
"636 733 OFFCURVE",
"564 749 OFFCURVE",
"432 749 CURVE SMOOTH",
"248 749 OFFCURVE",
"137 643 OFFCURVE",
"100 410 CURVE SMOOTH",
"91.009 353.359 OFFCURVE",
"82 291 OFFCURVE",
"82 231 CURVE SMOOTH",
"82 68 OFFCURVE",
"134 -6 OFFCURVE",
"275 -6 CURVE SMOOTH"
);
}
);
width = 666;
},
{
anchors = (
{
name = bottom;
position = "{297, -150}";
},
{
name = top;
position = "{449, 810}";
}
);
background = {
components = (
{
name = C;
}
);
paths = (
{
closed = 1;
nodes = (
"-458 377 CURVE SMOOTH",
"-426 577 OFFCURVE",
"-380 740 OFFCURVE",
"-181 740 CURVE SMOOTH",
"-129 740 OFFCURVE",
"-4 726 OFFCURVE",
"64 713 CURVE",
"61 694 LINE",
"55 694 OFFCURVE",
"-91 716 OFFCURVE",
"-185 716 CURVE SMOOTH",
"-351 716 OFFCURVE",
"-400 585 OFFCURVE",
"-434 368 CURVE SMOOTH",
"-473 120 OFFCURVE",
"-449 19 OFFCURVE",
"-290 19 CURVE SMOOTH",
"-212 19 OFFCURVE",
"-45 69 OFFCURVE",
"-45 69 CURVE",
"1 364 LINE",
"-213 364 LINE",
"-210 378 LINE",
"-168 389 OFFCURVE",
"-120 389 OFFCURVE",
"-39 389 CURVE SMOOTH",
"-18 389 OFFCURVE",
"5 388 OFFCURVE",
"29 386 CURVE",
"-32 0 LINE",
"-46 0 LINE",
"-46 54 LINE",
"-79 38 OFFCURVE",
"-204 -5 OFFCURVE",
"-294 -5 CURVE SMOOTH",
"-501 -7 OFFCURVE",
"-491 170 OFFCURVE"
);
}
);
};
layerId = "DE62D6C8-A9BF-4A7E-9D02-9A707AFEE35E";
paths = (
{
closed = 1;
nodes = (
"390 -6 OFFCURVE",
"510 38 OFFCURVE",
"542 53 CURVE",
"540 0 LINE",
"556 0 LINE",
"614 366 LINE",
"590 368 OFFCURVE",
"567 369 OFFCURVE",
"546 369 CURVE SMOOTH",
"465 369 OFFCURVE",
"411 369 OFFCURVE",
"375 363 CURVE",
"373 347 LINE",
"587 347 LINE",
"543 69 LINE",
"501 50 OFFCURVE",
"383 16 OFFCURVE",
"308 16 CURVE SMOOTH",
"188 16 OFFCURVE",
"139 74 OFFCURVE",
"139 209 CURVE SMOOTH",
"139 253 OFFCURVE",
"144 306 OFFCURVE",
"154 368 CURVE SMOOTH",
"188 585 OFFCURVE",
"256 718 OFFCURVE",
"423 718 CURVE SMOOTH",
"509 718 OFFCURVE",
"588 707 OFFCURVE",
"649 694 CURVE",
"651 710 LINE",
"593 726 OFFCURVE",
"526 740 OFFCURVE",
"427 740 CURVE SMOOTH",
"238 740 OFFCURVE",
"163 590 OFFCURVE",
"130 377 CURVE SMOOTH",
"121 317 OFFCURVE",
"115 264 OFFCURVE",
"115 217 CURVE SMOOTH",
"115 63 OFFCURVE",
"168 -6 OFFCURVE",
"304 -6 CURVE SMOOTH"
);
}
);
width = 636;
}
);
leftKerningGroup = O;
note = "\012    GF Latin Plus glyph\012  ";
unicode = 0047;
userData = {
com.fontlab.hintData = {
hhints = (
{
position = 576;
width = 164;
}
);
};
com.typemytype.robofont.layerData = {
background = {
anchors = (
);
components = (
{
baseGlyph = C;
transformation = (
1,
0,
0,
1,
700,
0
);
}
);
contours = (
{
points = (
{
segmentType = curve;
smooth = 1;
x = -507;
y = 410;
},
{
smooth = 0;
x = -461;
y = 643;
},
{
smooth = 0;
x = -404;
y = 740;
},
{
segmentType = curve;
smooth = 1;
x = -205;
y = 740;
},
{
smooth = 0;
x = -46;
y = 740;
},
{
smooth = 0;
x = -36;
y = 738;
},
{
segmentType = curve;
smooth = 0;
x = 93;
y = 701;
},
{
segmentType = line;
smooth = 0;
x = 69;
y = 554;
},
{
smooth = 0;
x = 63;
y = 554;
},
{
smooth = 0;
x = -44;
y = 576;
},
{
segmentType = curve;
smooth = 1;
x = -171;
y = 576;
},
{
smooth = 0;
x = -264;
y = 576;
},
{
smooth = 0;
x = -287;
y = 531;
},
{
segmentType = curve;
smooth = 1;
x = -313;
y = 368;
},
{
smooth = 0;
x = -339;
y = 204;
},
{
smooth = 0;
x = -338;
y = 173;
},
{
segmentType = curve;
smooth = 1;
x = -250;
y = 173;
},
{
smooth = 0;
x = -188;
y = 173;
},
{
smooth = 0;
x = -171;
y = 219;
},
{
segmentType = curve;
smooth = 0;
x = -171;
y = 219;
},
{
segmentType = line;
smooth = 0;
x = -159;
y = 294;
},
{
segmentType = line;
smooth = 0;
x = -208;
y = 294;
},
{
segmentType = line;
smooth = 0;
x = -189;
y = 414;
},
{
smooth = 0;
x = -140;
y = 438;
},
{
smooth = 0;
x = -76;
y = 439;
},
{
segmentType = curve;
smooth = 1;
x = -10;
y = 439;
},
{
smooth = 0;
x = 11;
y = 439;
},
{
smooth = 0;
x = 34;
y = 438;
},
{
segmentType = curve;
smooth = 0;
x = 58;
y = 436;
},
{
segmentType = line;
smooth = 0;
x = -12;
y = 0;
},
{
segmentType = line;
smooth = 0;
x = -149;
y = 0;
},
{
segmentType = line;
smooth = 0;
x = -196;
y = 49;
},
{
smooth = 0;
x = -230;
y = 12;
},
{
smooth = 0;
x = -248;
y = 0;
},
{
segmentType = curve;
smooth = 1;
x = -328;
y = -5;
},
{
smooth = 0;
x = -537;
y = -18;
},
{
smooth = 0;
x = -548;
y = 202;
}
);
},
{
points = (
{
segmentType = curve;
smooth = 1;
x = 95;
y = 370;
},
{
smooth = 0;
x = 63;
y = 164;
},
{
smooth = 0;
x = 76;
y = -5;
},
{
segmentType = curve;
smooth = 1;
x = 259;
y = -5;
},
{
smooth = 0;
x = 343;
y = -5;
},
{
smooth = 0;
x = 421;
y = 27;
},
{
segmentType = curve;
smooth = 0;
x = 457;
y = 49;
},
{
segmentType = line;
smooth = 0;
x = 475;
y = 0;
},
{
segmentType = line;
smooth = 0;
x = 621;
y = 0;
},
{
segmentType = line;
smooth = 0;
x = 691;
y = 441;
},
{
smooth = 0;
x = 660;
y = 442;
},
{
smooth = 0;
x = 625;
y = 443;
},
{
segmentType = curve;
smooth = 1;
x = 577;
y = 443;
},
{
smooth = 0;
x = 523;
y = 443;
},
{
smooth = 0;
x = 444;
y = 439;
},
{
segmentType = curve;
smooth = 0;
x = 400;
y = 433;
},
{
segmentType = line;
smooth = 0;
x = 376;
y = 279;
},
{
segmentType = line;
smooth = 0;
x = 479;
y = 279;
},
{
segmentType = line;
smooth = 0;
x = 464;
y = 183;
},
{
smooth = 0;
x = 444;
y = 179;
},
{
smooth = 0;
x = 402;
y = 173;
},
{
segmentType = curve;
smooth = 1;
x = 352;
y = 173;
},
{
smooth = 0;
x = 284;
y = 173;
},
{
smooth = 0;
x = 263;
y = 205;
},
{
segmentType = curve;
smooth = 1;
x = 289;
y = 370;
},
{
smooth = 0;
x = 315;
y = 532;
},
{
smooth = 0;
x = 338;
y = 576;
},
{
segmentType = curve;
smooth = 1;
x = 454;
y = 576;
},
{
smooth = 0;
x = 548;
y = 576;
},
{
smooth = 0;
x = 629;
y = 569;
},
{
segmentType = curve;
smooth = 0;
x = 673;
y = 562;
},
{
segmentType = line;
smooth = 0;
x = 697;
y = 713;
},
{
smooth = 0;
x = 619;
y = 735;
},
{
smooth = 0;
x = 563;
y = 750;
},
{
segmentType = curve;
smooth = 1;
x = 445;
y = 750;
},
{
smooth = 0;
x = 202;
y = 750;
},
{
smooth = 0;
x = 132;
y = 599;
}
);
}
);
lib = {
};
name = G;
unicodes = (
);
width = 666;
};
};
};
},
{
glyphname = H;
layers = (
{
anchors = (
{
name = bottom;
position = "{330, -150}";
},
{
name = top;
position = "{482, 810}";
}
);
background = {
paths = (
{
closed = 1;
nodes = (
"55 0 LINE",
"249 0 LINE",
"294 283 LINE",
"514 283 LINE",
"469 0 LINE",
"663 0 LINE",
"781 743 LINE",
"587 743 LINE",
"541 457 LINE",
"321 457 LINE",
"367 743 LINE",
"173 743 LINE"
);
}
);
};
layerId = "FDCB0490-BEB2-4154-BC16-7BC1D55E5E84";
paths = (
{
closed = 1;
nodes = (
"249 0 LINE",
"294 283 LINE",
"514 283 LINE",
"469 0 LINE",
"663 0 LINE",
"781 743 LINE",
"587 743 LINE",
"541 457 LINE",
"321 457 LINE",
"367 743 LINE",
"173 743 LINE",
"55 0 LINE"
);
}
);
width = 708;
},
{
anchors = (
{
name = bottom;
position = "{299, -150}";
},
{
name = top;
position = "{451, 810}";
}
);
background = {
paths = (
{
closed = 1;
nodes = (
"80 0 LINE",
"104 0 LINE",
"158 343 LINE",
"596 343 LINE",
"542 0 LINE",
"566 0 LINE",
"682 732 LINE",
"658 732 LINE",
"600 365 LINE",
"162 365 LINE",
"220 732 LINE",
"196 732 LINE"
);
}
);
};
layerId = "DE62D6C8-A9BF-4A7E-9D02-9A707AFEE35E";
paths = (
{
closed = 1;
nodes = (
"104 0 LINE",
"158 343 LINE",
"596 343 LINE",
"542 0 LINE",
"566 0 LINE",
"682 732 LINE",
"658 732 LINE",
"600 365 LINE",
"162 365 LINE",
"220 732 LINE",
"196 732 LINE",
"80 0 LINE"
);
}
);
width = 646;
}
);
leftKerningGroup = H;
note = "\012    GF Latin Plus glyph\012  ";
unicode = 0048;
userData = {
com.fontlab.hintData = {
hhints = (
{
position = 0;
width = 21;
},
{
position = 267;
width = 174;
},
{
position = 712;
width = 20;
}
);
};
com.typemytype.robofont.layerData = {
background = {
anchors = (
);
components = (
);
contours = (
{
points = (
{
segmentType = line;
smooth = 0;
x = 55;
y = 0;
},
{
segmentType = line;
smooth = 0;
x = 249;
y = 0;
},
{
segmentType = line;
smooth = 0;
x = 294;
y = 283;
},
{
segmentType = line;
smooth = 0;
x = 514;
y = 283;
},
{
segmentType = line;
smooth = 0;
x = 469;
y = 0;
},
{
segmentType = line;
smooth = 0;
x = 663;
y = 0;
},
{
segmentType = line;
smooth = 0;
x = 781;
y = 743;
},
{
segmentType = line;
smooth = 0;
x = 587;
y = 743;
},
{
segmentType = line;
smooth = 0;
x = 541;
y = 457;
},
{
segmentType = line;
smooth = 0;
x = 321;
y = 457;
},
{
segmentType = line;
smooth = 0;
x = 367;
y = 743;
},
{
segmentType = line;
smooth = 0;
x = 173;
y = 743;
}
);
}
);
lib = {
};
name = H;
unicodes = (
);
width = 708;
};
};
};
},
{
glyphname = Hbar;
layers = (
{
background = {
paths = (
{
closed = 1;
nodes = (
"270 441 LINE",
"440 441 LINE",
"440 516 LINE",
"270 516 LINE"
);
},
{
closed = 1;
nodes = (
"11 516 LINE",
"11 590 LINE",
"76 590 LINE",
"76 732 LINE",
"270 732 LINE",
"270 590 LINE",
"440 590 LINE",
"440 732 LINE",
"634 732 LINE",
"634 590 LINE",
"699 590 LINE",
"699 516 LINE",
"634 516 LINE",
"634 0 LINE",
"440 0 LINE",
"440 267 LINE",
"270 267 LINE",
"270 0 LINE",
"76 0 LINE",
"76 516 LINE"
);
}
);
};
components = (
{
name = H;
}
);
layerId = "FDCB0490-BEB2-4154-BC16-7BC1D55E5E84";
paths = (
{
closed = 1;
nodes = (
"789 513 LINE",
"804 607 LINE",
"106 607 LINE",
"91 513 LINE"
);
}
);
width = 708;
},
{
background = {
paths = (
{
closed = 1;
nodes = (
"132 366 LINE",
"572 366 LINE",
"572 537 LINE",
"132 537 LINE"
);
},
{
closed = 1;
nodes = (
"43 537 LINE",
"43 552 LINE",
"108 552 LINE",
"108 732 LINE",
"132 732 LINE",
"132 552 LINE",
"572 552 LINE",
"572 732 LINE",
"596 732 LINE",
"596 552 LINE",
"661 552 LINE",
"661 537 LINE",
"596 537 LINE",
"596 0 LINE",
"572 0 LINE",
"572 342 LINE",
"132 342 LINE",
"132 0 LINE",
"108 0 LINE",
"108 537 LINE"
);
}
);
};
components = (
{
name = H;
}
);
layerId = "DE62D6C8-A9BF-4A7E-9D02-9A707AFEE35E";
paths = (
{
closed = 1;
nodes = (
"726 531 LINE",
"729 553 LINE",
"92 553 LINE",
"89 531 LINE"
);
}
);
width = 646;
}
);
leftKerningGroup = H;
note = "\012    GF Latin Plus glyph\012  ";
unicode = 0126;
userData = {
com.fontlab.hintData = {
hhints = (
{
position = 0;
width = 21;
},
{
position = 267;
width = 174;
},
{
position = 516;
width = 74;
},
{
position = 712;
width = 20;
}
);
vhints = (
{
position = 76;
width = 194;
},
{
position = 440;
width = 194;
}
);
};
com.typemytype.robofont.layerData = {
background = {
anchors = (
);
components = (
);
contours = (
{
points = (
{
segmentType = line;
smooth = 0;
x = 270;
y = 441;
},
{
segmentType = line;
smooth = 0;
x = 440;
y = 441;
},
{
segmentType = line;
smooth = 0;
x = 440;
y = 516;
},
{
segmentType = line;
smooth = 0;
x = 270;
y = 516;
}
);
},
{
points = (
{
segmentType = line;
smooth = 0;
x = 11;
y = 516;
},
{
segmentType = line;
smooth = 0;
x = 11;
y = 590;
},
{
segmentType = line;
smooth = 0;
x = 76;
y = 590;
},
{
segmentType = line;
smooth = 0;
x = 76;
y = 732;
},
{
segmentType = line;
smooth = 0;
x = 270;
y = 732;
},
{
segmentType = line;
smooth = 0;
x = 270;
y = 590;
},
{
segmentType = line;
smooth = 0;
x = 440;
y = 590;
},
{
segmentType = line;
smooth = 0;
x = 440;
y = 732;
},
{
segmentType = line;
smooth = 0;
x = 634;
y = 732;
},
{
segmentType = line;
smooth = 0;
x = 634;
y = 590;
},
{
segmentType = line;
smooth = 0;
x = 699;
y = 590;
},
{
segmentType = line;
smooth = 0;
x = 699;
y = 516;
},
{
segmentType = line;
smooth = 0;
x = 634;
y = 516;
},
{
segmentType = line;
smooth = 0;
x = 634;
y = 0;
},
{
segmentType = line;
smooth = 0;
x = 440;
y = 0;
},
{
segmentType = line;
smooth = 0;
x = 440;
y = 267;
},
{
segmentType = line;
smooth = 0;
x = 270;
y = 267;
},
{
segmentType = line;
smooth = 0;
x = 270;
y = 0;
},
{
segmentType = line;
smooth = 0;
x = 76;
y = 0;
},
{
segmentType = line;
smooth = 0;
x = 76;
y = 516;
}
);
}
);
lib = {
};
name = Hbar;
unicodes = (
);
width = 708;
};
};
};
},
{
glyphname = I;
layers = (
{
anchors = (
{
name = bottom;
position = "{128, -150}";
},
{
name = ogonek;
position = "{239, 0}";
},
{
name = top;
position = "{280, 810}";
}
);
background = {
paths = (
{
closed = 1;
nodes = (
"55 0 LINE",
"171 732 LINE",
"365 732 LINE",
"249 0 LINE"
);
}
);
};
layerId = "FDCB0490-BEB2-4154-BC16-7BC1D55E5E84";
paths = (
{
closed = 1;
nodes = (
"249 0 LINE",
"367 743 LINE",
"173 743 LINE",
"55 0 LINE"
);
}
);
width = 304;
},
{
anchors = (
{
name = bottom;
position = "{68, -150}";
},
{
name = ogonek;
position = "{94, 0}";
},
{
name = top;
position = "{220, 810}";
}
);
background = {
paths = (
{
closed = 1;
nodes = (
"80 0 LINE",
"196 732 LINE",
"220 732 LINE",
"104 0 LINE"
);
}
);
};
layerId = "DE62D6C8-A9BF-4A7E-9D02-9A707AFEE35E";
paths = (
{
closed = 1;
nodes = (
"104 0 LINE",
"220 732 LINE",
"196 732 LINE",
"80 0 LINE"
);
}
);
width = 184;
}
);
note = "\012    GF Latin Plus glyph\012  ";
unicode = 0049;
userData = {
com.fontlab.hintData = {
hhints = (
{
position = 0;
width = 21;
},
{
position = 712;
width = 20;
}
);
vhints = (
{
position = 45;
width = 310;
}
);
};
com.typemytype.robofont.layerData = {
background = {
anchors = (
);
components = (
);
contours = (
{
points = (
{
segmentType = line;
smooth = 0;
x = 55;
y = 0;
},
{
segmentType = line;
smooth = 0;
x = 171;
y = 732;
},
{
segmentType = line;
smooth = 0;
x = 365;
y = 732;
},
{
segmentType = line;
smooth = 0;
x = 249;
y = 0;
}
);
}
);
lib = {
};
name = I;
unicodes = (
);
width = 304;
};
};
};
},
{
glyphname = J;
layers = (
{
anchors = (
{
name = top;
position = "{391, 810}";
}
);
background = {
paths = (
{
closed = 1;
nodes = (
"64.702 25 CURVE",
"88.702 179 LINE",
"193.702 179 OFFCURVE",
"200.702 199 OFFCURVE",
"212.702 276 CURVE SMOOTH",
"284.702 732 LINE",
"478.702 732 LINE",
"388.702 165 LINE SMOOTH",
"381.702 118 OFFCURVE",
"366.702 50 OFFCURVE",
"311.702 18 CURVE SMOOTH",
"253.702 -16 OFFCURVE",
"111.702 -9 OFFCURVE"
);
}
);
};
layerId = "FDCB0490-BEB2-4154-BC16-7BC1D55E5E84";
paths = (
{
closed = 1;
nodes = (
"302.178 -6 OFFCURVE",
"369 46 OFFCURVE",
"392 189 CURVE SMOOTH",
"480 743 LINE",
"286 743 LINE",
"205 232 LINE SMOOTH",
"198.801 192.894 OFFCURVE",
"179 170 OFFCURVE",
"123 170 CURVE SMOOTH",
"102 170 OFFCURVE",
"80 170 OFFCURVE",
"59 170 CURVE",
"34 15 LINE",
"63 3 OFFCURVE",
"115 -6 OFFCURVE",
"157 -6 CURVE SMOOTH"
);
}
);
width = 417;
},
{
anchors = (
{
name = top;
position = "{388, 810}";
}
);
background = {
paths = (
{
closed = 1;
nodes = (
"38 21 CURVE",
"44 35 LINE",
"128 8 OFFCURVE",
"243 -4 OFFCURVE",
"271 165 CURVE",
"361 732 LINE",
"385 732 LINE",
"295 165 LINE SMOOTH",
"288 118 OFFCURVE",
"270 51 OFFCURVE",
"220 18 CURVE SMOOTH",
"172 -14 OFFCURVE",
"85 -13 OFFCURVE"
);
}
);
};
layerId = "DE62D6C8-A9BF-4A7E-9D02-9A707AFEE35E";
paths = (
{
closed = 1;
nodes = (
"222 -6 OFFCURVE",
"276 47 OFFCURVE",
"295 165 CURVE SMOOTH",
"385 732 LINE",
"361 732 LINE",
"271 165 LINE SMOOTH",
"254 61 OFFCURVE",
"203 17 OFFCURVE",
"131 17 CURVE SMOOTH",
"101 17 OFFCURVE",
"64 22 OFFCURVE",
"34 35 CURVE",
"31 19 LINE",
"52 5 OFFCURVE",
"86 -6 OFFCURVE",
"130 -6 CURVE SMOOTH"
);
}
);
width = 319;
}
);
leftKerningGroup = J;
note = "\012    GF Latin Plus glyph\012  ";
rightKerningGroup = J;
unicode = 004A;
userData = {
com.fontlab.hintData = {
hhints = (
{
position = 712;
width = 20;
}
);
};
com.typemytype.robofont.layerData = {
background = {
anchors = (
);
components = (
);
contours = (
{
points = (
{
segmentType = curve;
smooth = 0;
x = 64.70160;
y = 25;
},
{
segmentType = line;
smooth = 0;
x = 88.70160;
y = 179;
},
{
smooth = 0;
x = 193.70160;
y = 179;
},
{
smooth = 0;
x = 200.70160;
y = 199;
},
{
segmentType = curve;
smooth = 1;
x = 212.70160;
y = 276;
},
{
segmentType = line;
smooth = 0;
x = 284.70160;
y = 732;
},
{
segmentType = line;
smooth = 0;
x = 478.70160;
y = 732;
},
{
segmentType = line;
smooth = 1;
x = 388.70160;
y = 165;
},
{
smooth = 0;
x = 381.70160;
y = 118;
},
{
smooth = 0;
x = 366.70160;
y = 50;
},
{
segmentType = curve;
smooth = 1;
x = 311.70160;
y = 18;
},
{
smooth = 0;
x = 253.70160;
y = -16;
},
{
smooth = 0;
x = 111.70160;
y = -9;
}
);
}
);
lib = {
};
name = J;
unicodes = (
);
width = 417;
};
};
};
},
{
glyphname = K;
layers = (
{
anchors = (
{
name = bottom;
position = "{308, -150}";
},
{
name = top;
position = "{460, 810}";
}
);
background = {
paths = (
{
closed = 1;
nodes = (
"55 0 LINE",
"171 732 LINE",
"355 732 LINE",
"309 444 LINE",
"339 444 LINE",
"534 732 LINE",
"767 732 LINE",
"508 349 LINE",
"651 0 LINE",
"433 0 LINE",
"333 280 LINE",
"284 280 LINE",
"240 0 LINE"
);
}
);
};
layerId = "FDCB0490-BEB2-4154-BC16-7BC1D55E5E84";
paths = (
{
closed = 1;
nodes = (
"249 0 LINE",
"294 286 LINE",
"381 286 LINE",
"479 0 LINE",
"671 0 LINE",
"540 369 LINE",
"769 743 LINE",
"572 743 LINE",
"398 460 LINE",
"322 460 LINE",
"367 743 LINE",
"173 743 LINE",
"55 0 LINE"
);
}
);
width = 671;
},
{
anchors = (
{
name = bottom;
position = "{247, -150}";
},
{
name = top;
position = "{399, 810}";
}
);
background = {
paths = (
{
closed = 1;
nodes = (
"80 0 LINE",
"196 732 LINE",
"220 732 LINE",
"164 379 LINE",
"317 379 LINE",
"611 732 LINE",
"641 732 LINE",
"339 368 LINE",
"526 0 LINE",
"498 0 LINE",
"317 355 LINE",
"161 355 LINE",
"105 0 LINE"
);
}
);
};
layerId = "DE62D6C8-A9BF-4A7E-9D02-9A707AFEE35E";
paths = (
{
closed = 1;
nodes = (
"104 0 LINE",
"160 356 LINE",
"318 356 LINE",
"499 0 LINE",
"526 0 LINE",
"339 367 LINE",
"631 732 LINE",
"603 732 LINE",
"319 378 LINE",
"164 378 LINE",
"220 732 LINE",
"196 732 LINE",
"80 0 LINE"
);
}
);
width = 561;
}
);
note = "\012    GF Latin Plus glyph\012  ";
rightKerningGroup = K;
unicode = 004B;
userData = {
com.fontlab.hintData = {
hhints = (
{
position = 0;
width = 21;
},
{
position = 712;
width = 20;
}
);
};
com.typemytype.robofont.layerData = {
background = {
anchors = (
);
components = (
);
contours = (
{
points = (
{
segmentType = line;
smooth = 0;
x = 55;
y = 0;
},
{
segmentType = line;
smooth = 0;
x = 171;
y = 732;
},
{
segmentType = line;
smooth = 0;
x = 355;
y = 732;
},
{
segmentType = line;
smooth = 0;
x = 309;
y = 444;
},
{
segmentType = line;
smooth = 0;
x = 339;
y = 444;
},
{
segmentType = line;
smooth = 0;
x = 534;
y = 732;
},
{
segmentType = line;
smooth = 0;
x = 767;
y = 732;
},
{
segmentType = line;
smooth = 0;
x = 508;
y = 349;
},
{
segmentType = line;
smooth = 0;
x = 651;
y = 0;
},
{
segmentType = line;
smooth = 0;
x = 433;
y = 0;
},
{
segmentType = line;
smooth = 0;
x = 333;
y = 280;
},
{
segmentType = line;
smooth = 0;
x = 284;
y = 280;
},
{
segmentType = line;
smooth = 0;
x = 240;
y = 0;
}
);
}
);
lib = {
};
name = K;
unicodes = (
);
width = 671;
};
};
};
},
{
glyphname = L;
layers = (
{
anchors = (
{
name = altcaron;
position = "{392, 630}";
},
{
name = bottom;
position = "{248, -150}";
},
{
name = dot;
position = "{414, 400}";
},
{
name = top;
position = "{280, 810}";
}
);
background = {
paths = (
{
closed = 1;
nodes = (
"80 156 CURVE SMOOTH",
"171 732 LINE",
"365 732 LINE",
"285 226 LINE SMOOTH",
"277 173 OFFCURVE",
"310 174 OFFCURVE",
"339 174 CURVE SMOOTH",
"545 174 LINE",
"517 0 LINE",
"221 0 LINE SMOOTH",
"130 0 OFFCURVE",
"62 43 OFFCURVE"
);
}
);
};
layerId = "FDCB0490-BEB2-4154-BC16-7BC1D55E5E84";
paths = (
{
closed = 1;
nodes = (
"517 0 LINE",
"545 174 LINE",
"331 174 LINE SMOOTH",
"298 174 OFFCURVE",
"284 188 OFFCURVE",
"284 213 CURVE SMOOTH",
"284 217 OFFCURVE",
"284 221 OFFCURVE",
"285 226 CURVE SMOOTH",
"367 743 LINE",
"173 743 LINE",
"87 200 LINE SMOOTH",
"84 182 OFFCURVE",
"83 166 OFFCURVE",
"83 150 CURVE SMOOTH",
"83 48 OFFCURVE",
"145 0 OFFCURVE",
"243 0 CURVE SMOOTH"
);
}
);
width = 537;
},
{
anchors = (
{
name = altcaron;
position = "{287, 580}";
},
{
name = bottom;
position = "{257, -150}";
},
{
name = dot;
position = "{404, 400}";
},
{
name = top;
position = "{229, 810}";
}
);
background = {
paths = (
{
closed = 1;
nodes = (
"100 126 CURVE SMOOTH",
"196 732 LINE",
"220 732 LINE",
"124 126 LINE SMOOTH",
"109 34 OFFCURVE",
"166 24 OFFCURVE",
"220 24 CURVE SMOOTH",
"496 24 LINE",
"492 0 LINE",
"221 0 LINE SMOOTH",
"155 0 OFFCURVE",
"82 13 OFFCURVE"
);
}
);
};
layerId = "DE62D6C8-A9BF-4A7E-9D02-9A707AFEE35E";
paths = (
{
closed = 1;
nodes = (
"492 0 LINE",
"495 22 LINE",
"209 22 LINE SMOOTH",
"162 22 OFFCURVE",
"121 32 OFFCURVE",
"121 91 CURVE SMOOTH",
"121 104 OFFCURVE",
"122.097 113.984 OFFCURVE",
"124 126 CURVE SMOOTH",
"220 732 LINE",
"196 732 LINE",
"100 126 LINE SMOOTH",
"98.097 113.984 OFFCURVE",
"97 104 OFFCURVE",
"97 91 CURVE SMOOTH",
"97 18 OFFCURVE",
"142 0 OFFCURVE",
"211 0 CURVE SMOOTH"
);
}
);
width = 517;
}
);
note = "\012    GF Latin Plus glyph\012  ";
rightKerningGroup = L;
unicode = 004C;
userData = {
com.fontlab.hintData = {
hhints = (
{
position = 0;
width = 174;
},
{
position = 712;
width = 20;
}
);
};
com.typemytype.robofont.layerData = {
background = {
anchors = (
);
components = (
);
contours = (
{
points = (
{
segmentType = curve;
smooth = 1;
x = 80;
y = 156;
},
{
segmentType = line;
smooth = 0;
x = 171;
y = 732;
},
{
segmentType = line;
smooth = 0;
x = 365;
y = 732;
},
{
segmentType = line;
smooth = 1;
x = 285;
y = 226;
},
{
smooth = 0;
x = 277;
y = 173;
},
{
smooth = 0;
x = 310;
y = 174;
},
{
segmentType = curve;
smooth = 1;
x = 339;
y = 174;
},
{
segmentType = line;
smooth = 0;
x = 545;
y = 174;
},
{
segmentType = line;
smooth = 0;
x = 517;
y = 0;
},
{
segmentType = line;
smooth = 1;
x = 221;
y = 0;
},
{
smooth = 0;
x = 130;
y = 0;
},
{
smooth = 0;
x = 62;
y = 43;
}
);
}
);
lib = {
};
name = L;
unicodes = (
);
width = 537;
};
};
};
},
{
glyphname = Lslash;
layers = (
{
background = {
paths = (
{
closed = 1;
nodes = (
"28 293 LINE",
"28 374 LINE",
"102 405 LINE",
"102 732 LINE",
"296 732 LINE",
"296 488 LINE",
"386 526 LINE",
"386 445 LINE",
"296 407 LINE",
"296 226 LINE SMOOTH",
"296 173 OFFCURVE",
"329 174 OFFCURVE",
"358 174 CURVE SMOOTH",
"564 174 LINE",
"564 0 LINE",
"268 0 LINE SMOOTH",
"177 0 OFFCURVE",
"102 43 OFFCURVE",
"102 156 CURVE SMOOTH",
"102 324 LINE"
);
}
);
};
components = (
{
name = L;
}
);
layerId = "FDCB0490-BEB2-4154-BC16-7BC1D55E5E84";
paths = (
{
closed = 1;
nodes = (
"136 333 LINE",
"294 375 LINE",
"448 438 LINE",
"464 539 LINE",
"310 476 LINE",
"152 434 LINE",
"63 398 LINE",
"47 297 LINE"
);
}
);
width = 537;
},
{
background = {
paths = (
{
closed = 1;
nodes = (
"26 360 LINE",
"26 381 LINE",
"108 417 LINE",
"108 732 LINE",
"132 732 LINE",
"132 427 LINE",
"252 479 LINE",
"252 459 LINE",
"132 407 LINE",
"132 126 LINE SMOOTH",
"132 34 OFFCURVE",
"190 24 OFFCURVE",
"244 24 CURVE SMOOTH",
"520 24 LINE",
"520 0 LINE",
"244 0 LINE SMOOTH",
"178 0 OFFCURVE",
"108 13 OFFCURVE",
"108 126 CURVE SMOOTH",
"108 396 LINE"
);
}
);
};
components = (
{
name = L;
}
);
layerId = "DE62D6C8-A9BF-4A7E-9D02-9A707AFEE35E";
paths = (
{
closed = 1;
nodes = (
"141 359 LINE",
"158 364 LINE",
"313 427 LINE",
"316 447 LINE",
"161 384 LINE",
"144 380 LINE",
"51 343 LINE",
"48 322 LINE"
);
}
);
width = 517;
}
);
note = "\012    GF Latin Plus glyph\012  ";
rightKerningGroup = L;
unicode = 0141;
userData = {
com.fontlab.hintData = {
hhints = (
{
position = 0;
width = 174;
},
{
position = 712;
width = 20;
}
);
vhints = (
{
position = 102;
width = 194;
}
);
};
com.typemytype.robofont.layerData = {
background = {
anchors = (
);
components = (
);
contours = (
{
points = (
{
segmentType = line;
smooth = 0;
x = 28;
y = 293;
},
{
segmentType = line;
smooth = 0;
x = 28;
y = 374;
},
{
segmentType = line;
smooth = 0;
x = 102;
y = 405;
},
{
segmentType = line;
smooth = 0;
x = 102;
y = 732;
},
{
segmentType = line;
smooth = 0;
x = 296;
y = 732;
},
{
segmentType = line;
smooth = 0;
x = 296;
y = 488;
},
{
segmentType = line;
smooth = 0;
x = 386;
y = 526;
},
{
segmentType = line;
smooth = 0;
x = 386;
y = 445;
},
{
segmentType = line;
smooth = 0;
x = 296;
y = 407;
},
{
segmentType = line;
smooth = 1;
x = 296;
y = 226;
},
{
smooth = 0;
x = 296;
y = 173;
},
{
smooth = 0;
x = 329;
y = 174;
},
{
segmentType = curve;
smooth = 1;
x = 358;
y = 174;
},
{
segmentType = line;
smooth = 0;
x = 564;
y = 174;
},
{
segmentType = line;
smooth = 0;
x = 564;
y = 0;
},
{
segmentType = line;
smooth = 1;
x = 268;
y = 0;
},
{
smooth = 0;
x = 177;
y = 0;
},
{
smooth = 0;
x = 102;
y = 43;
},
{
segmentType = curve;
smooth = 1;
x = 102;
y = 156;
},
{
segmentType = line;
smooth = 0;
x = 102;
y = 324;
}
);
}
);
lib = {
};
name = Lslash;
unicodes = (
);
width = 537;
};
};
};
},
{
glyphname = M;
layers = (
{
anchors = (
{
name = bottom;
position = "{418, -150}";
},
{
name = top;
position = "{570, 810}";
}
);
background = {
paths = (
{
closed = 1;
nodes = (
"35 0 LINE",
"241 743 LINE",
"423 743 LINE",
"493 221 LINE",
"729 743 LINE",
"909 743 LINE",
"880 0 LINE",
"693 0 LINE",
"712 478 LINE",
"740 477 LINE",
"547 0 LINE",
"365 0 LINE",
"323 477 LINE",
"354 478 LINE",
"222 0 LINE"
);
}
);
};
layerId = "FDCB0490-BEB2-4154-BC16-7BC1D55E5E84";
paths = (
{
closed = 1;
nodes = (
"222 0 LINE",
"330 392 LINE",
"365 0 LINE",
"547 0 LINE",
"709 400 LINE",
"693 0 LINE",
"880 0 LINE",
"909 743 LINE",
"729 743 LINE",
"493 221 LINE",
"423 743 LINE",
"241 743 LINE",
"30 0 LINE"
);
}
);
width = 906;
},
{
anchors = (
{
name = bottom;
position = "{367, -150}";
},
{
name = top;
position = "{519, 810}";
}
);
background = {
paths = (
{
closed = 1;
nodes = (
"71 0 LINE",
"268 732 LINE",
"302 732 LINE",
"407 41 LINE",
"725 732 LINE",
"764 732 LINE",
"732 0 LINE",
"707 0 LINE",
"739 701 LINE",
"415 0 LINE",
"387 0 LINE",
"284 696 LINE",
"96 0 LINE"
);
}
);
};
layerId = "DE62D6C8-A9BF-4A7E-9D02-9A707AFEE35E";
paths = (
{
closed = 1;
nodes = (
"96 0 LINE",
"277 682 LINE",
"390 0 LINE",
"412 0 LINE",
"740 682 LINE",
"708 0 LINE",
"732 0 LINE",
"764 732 LINE",
"742 732 LINE",
"407 50 LINE",
"290 732 LINE",
"268 732 LINE",
"71 0 LINE"
);
}
);
width = 770;
}
);
note = "\012    GF Latin Plus glyph\012  ";
unicode = 004D;
userData = {
com.fontlab.hintData = {
hhints = (
{
position = 0;
width = 21;
},
{
position = 712;
width = 20;
}
);
vhints = (
{
position = 665;
width = 191;
}
);
};
com.typemytype.robofont.layerData = {
background = {
anchors = (
);
components = (
);
contours = (
{
points = (
{
segmentType = line;
smooth = 0;
x = 35;
y = 0;
},
{
segmentType = line;
smooth = 0;
x = 241;
y = 743;
},
{
segmentType = line;
smooth = 0;
x = 423;
y = 743;
},
{
segmentType = line;
smooth = 0;
x = 493;
y = 221;
},
{
segmentType = line;
smooth = 0;
x = 729;
y = 743;
},
{
segmentType = line;
smooth = 0;
x = 909;
y = 743;
},
{
segmentType = line;
smooth = 0;
x = 880;
y = 0;
},
{
segmentType = line;
smooth = 0;
x = 693;
y = 0;
},
{
segmentType = line;
smooth = 0;
x = 712;
y = 478;
},
{
segmentType = line;
smooth = 0;
x = 740;
y = 477;
},
{
segmentType = line;
smooth = 0;
x = 547;
y = 0;
},
{
segmentType = line;
smooth = 0;
x = 365;
y = 0;
},
{
segmentType = line;
smooth = 0;
x = 323;
y = 477;
},
{
segmentType = line;
smooth = 0;
x = 354;
y = 478;
},
{
segmentType = line;
smooth = 0;
x = 222;
y = 0;
}
);
}
);
lib = {
};
name = M;
unicodes = (
);
width = 906;
};
};
};
},
{
glyphname = N;
layers = (
{
anchors = (
{
name = bottom;
position = "{310, -150}";
},
{
name = top;
position = "{462, 810}";
}
);
background = {
paths = (
{
closed = 1;
nodes = (
"55 0 LINE",
"249 0 LINE",
"315 414 LINE",
"510 0 LINE",
"664 0 LINE",
"782 743 LINE",
"588 743 LINE",
"522 329 LINE",
"327 743 LINE",
"173 743 LINE"
);
}
);
};
layerId = "FDCB0490-BEB2-4154-BC16-7BC1D55E5E84";
paths = (
{
closed = 1;
nodes = (
"249 0 LINE",
"315 414 LINE",
"510 0 LINE",
"664 0 LINE",
"782 743 LINE",
"588 743 LINE",
"522 329 LINE",
"327 743 LINE",
"173 743 LINE",
"55 0 LINE"
);
}
);
width = 709;
},
{
anchors = (
{
name = bottom;
position = "{297, -150}";
},
{
name = top;
position = "{449, 810}";
}
);
background = {
paths = (
{
closed = 1;
nodes = (
"80 0 LINE",
"196 732 LINE",
"221 732 LINE",
"551 43 LINE",
"661 732 LINE",
"685 732 LINE",
"569 0 LINE",
"545 0 LINE",
"214 690 LINE",
"104 0 LINE"
);
}
);
};
layerId = "DE62D6C8-A9BF-4A7E-9D02-9A707AFEE35E";
paths = (
{
closed = 1;
nodes = (
"104 0 LINE",
"214 692 LINE",
"547 0 LINE",
"569 0 LINE",
"685 732 LINE",
"661 732 LINE",
"551 41 LINE",
"218 732 LINE",
"196 732 LINE",
"80 0 LINE"
);
}
);
width = 649;
}
);
note = "\012    GF Latin Plus glyph\012  ";
unicode = 004E;
userData = {
com.fontlab.hintData = {
hhints = (
{
position = 0;
width = 21;
},
{
position = 712;
width = 20;
}
);
};
com.typemytype.robofont.layerData = {
background = {
anchors = (
);
components = (
);
contours = (
{
points = (
{
segmentType = line;
smooth = 0;
x = 55;
y = 0;
},
{
segmentType = line;
smooth = 0;
x = 249;
y = 0;
},
{
segmentType = line;
smooth = 0;
x = 315;
y = 414;
},
{
segmentType = line;
smooth = 0;
x = 510;
y = 0;
},
{
segmentType = line;
smooth = 0;
x = 664;
y = 0;
},
{
segmentType = line;
smooth = 0;
x = 782;
y = 743;
},
{
segmentType = line;
smooth = 0;
x = 588;
y = 743;
},
{
segmentType = line;
smooth = 0;
x = 522;
y = 329;
},
{
segmentType = line;
smooth = 0;
x = 327;
y = 743;
},
{
segmentType = line;
smooth = 0;
x = 173;
y = 743;
}
);
}
);
lib = {
};
name = N;
unicodes = (
);
width = 709;
};
};
};
},
{
glyphname = Eng;
layers = (
{
background = {
paths = (
{
closed = 1;
nodes = (
"45 0 LINE",
"161 732 LINE",
"357 732 LINE",
"507 358 LINE",
"566 732 LINE",
"760 732 LINE",
"644 0 LINE",
"634 -64 LINE SMOOTH",
"603 -257 OFFCURVE",
"437 -270 OFFCURVE",
"319 -257 CURVE",
"341 -120 LINE",
"392 -119 OFFCURVE",
"431 -118 OFFCURVE",
"440 -60 CURVE SMOOTH",
"450 0 LINE",
"298 364 LINE",
"240 0 LINE"
);
}
);
};
components = (
{
name = N;
}
);
layerId = "FDCB0490-BEB2-4154-BC16-7BC1D55E5E84";
paths = (
{
closed = 1;
nodes = (
"569 -243 OFFCURVE",
"638 -167 OFFCURVE",
"658 -39 CURVE SMOOTH",
"677 83 LINE",
"483 79 LINE",
"469 -9 LINE SMOOTH",
"463 -45 OFFCURVE",
"445 -69 OFFCURVE",
"406 -69 CURVE SMOOTH",
"377 -69 OFFCURVE",
"347 -69 OFFCURVE",
"318 -69 CURVE",
"293 -225 LINE",
"322 -234 OFFCURVE",
"369 -243 OFFCURVE",
"417 -243 CURVE SMOOTH"
);
}
);
width = 709;
},
{
background = {
paths = (
{
closed = 1;
nodes = (
"108 0 LINE",
"108 732 LINE",
"133 732 LINE",
"573 48 LINE",
"573 732 LINE",
"597 732 LINE",
"597 0 LINE",
"597 -84 LINE SMOOTH",
"597 -236 OFFCURVE",
"551 -257 OFFCURVE",
"433 -257 CURVE",
"433 -239 LINE",
"519 -229 OFFCURVE",
"573 -236 OFFCURVE",
"573 -85 CURVE SMOOTH",
"573 0 LINE",
"133 684 LINE",
"133 0 LINE"
);
}
);
};
components = (
{
name = N;
}
);
layerId = "DE62D6C8-A9BF-4A7E-9D02-9A707AFEE35E";
paths = (
{
closed = 1;
nodes = (
"469 -243 OFFCURVE",
"535 -211 OFFCURVE",
"554 -92 CURVE SMOOTH",
"569 0 LINE",
"546 6 LINE",
"530 -92 LINE SMOOTH",
"512 -200 OFFCURVE",
"449 -221 OFFCURVE",
"368 -221 CURVE SMOOTH",
"337 -221 OFFCURVE",
"292 -211 OFFCURVE",
"264 -202 CURVE",
"262 -218 LINE",
"287 -232 OFFCURVE",
"331 -243 OFFCURVE",
"365 -243 CURVE SMOOTH"
);
}
);
width = 649;
}
);
note = "\012    GF Latin Plus glyph\012  ";
unicode = 014A;
userData = {
com.fontlab.hintData = {
hhints = (
{
position = -257;
width = 137;
},
{
position = 0;
width = 21;
},
{
position = 712;
width = 20;
}
);
};
com.typemytype.robofont.layerData = {
background = {
anchors = (
);
components = (
);
contours = (
{
points = (
{
segmentType = line;
smooth = 0;
x = 45;
y = 0;
},
{
segmentType = line;
smooth = 0;
x = 161;
y = 732;
},
{
segmentType = line;
smooth = 0;
x = 357;
y = 732;
},
{
segmentType = line;
smooth = 0;
x = 507;
y = 358;
},
{
segmentType = line;
smooth = 0;
x = 566;
y = 732;
},
{
segmentType = line;
smooth = 0;
x = 760;
y = 732;
},
{
segmentType = line;
smooth = 0;
x = 644;
y = 0;
},
{
segmentType = line;
smooth = 1;
x = 634;
y = -64;
},
{
smooth = 0;
x = 603;
y = -257;
},
{
smooth = 0;
x = 437;
y = -270;
},
{
segmentType = curve;
smooth = 0;
x = 319;
y = -257;
},
{
segmentType = line;
smooth = 0;
x = 341;
y = -120;
},
{
smooth = 0;
x = 392;
y = -119;
},
{
smooth = 0;
x = 431;
y = -118;
},
{
segmentType = curve;
smooth = 1;
x = 440;
y = -60;
},
{
segmentType = line;
smooth = 0;
x = 450;
y = 0;
},
{
segmentType = line;
smooth = 0;
x = 298;
y = 364;
},
{
segmentType = line;
smooth = 0;
x = 240;
y = 0;
}
);
}
);
lib = {
};
name = Eng;
unicodes = (
);
width = 709;
};
};
};
},
{
glyphname = O;
layers = (
{
anchors = (
{
name = bottom;
position = "{329, -150}";
},
{
name = ogonek;
position = "{444, 0}";
},
{
name = top;
position = "{481, 810}";
}
);
background = {
paths = (
{
closed = 1;
nodes = (
"290 361 CURVE SMOOTH",
"266 208 OFFCURVE",
"270 170 OFFCURVE",
"368 170 CURVE SMOOTH",
"454 170 OFFCURVE",
"483 206 OFFCURVE",
"508 361 CURVE SMOOTH",
"535 531 OFFCURVE",
"522 563 OFFCURVE",
"431 563 CURVE SMOOTH",
"343 563 OFFCURVE",
"318 540 OFFCURVE"
);
},
{
closed = 1;
nodes = (
"96 386 CURVE SMOOTH",
"150 729 OFFCURVE",
"290 737 OFFCURVE",
"458 737 CURVE SMOOTH",
"631 737 OFFCURVE",
"756 679 OFFCURVE",
"702 336 CURVE SMOOTH",
"651 13 OFFCURVE",
"521 -4 OFFCURVE",
"341 -4 CURVE SMOOTH",
"161 -4 OFFCURVE",
"43 53 OFFCURVE"
);
}
);
};
layerId = "FDCB0490-BEB2-4154-BC16-7BC1D55E5E84";
paths = (
{
closed = 1;
nodes = (
"577 -6 OFFCURVE",
"678 56 OFFCURVE",
"722 336 CURVE SMOOTH",
"731 391 OFFCURVE",
"737 451 OFFCURVE",
"737 492 CURVE SMOOTH",
"737 708 OFFCURVE",
"621 749 OFFCURVE",
"470 749 CURVE SMOOTH",
"244 749 OFFCURVE",
"141 667 OFFCURVE",
"98 398 CURVE SMOOTH",
"89 344 OFFCURVE",
"83 284 OFFCURVE",
"83 239 CURVE SMOOTH",
"83 36 OFFCURVE",
"194 -6 OFFCURVE",
"350 -6 CURVE SMOOTH"
);
},
{
closed = 1;
nodes = (
"305 169 OFFCURVE",
"277 188 OFFCURVE",
"277 249 CURVE SMOOTH",
"277 276 OFFCURVE",
"283 325 OFFCURVE",
"291 373 CURVE SMOOTH",
"316 532 OFFCURVE",
"349 575 OFFCURVE",
"443 575 CURVE SMOOTH",
"514 575 OFFCURVE",
"543 559 OFFCURVE",
"543 490 CURVE SMOOTH",
"543 462 OFFCURVE",
"537 411 OFFCURVE",
"529 361 CURVE SMOOTH",
"509 233 OFFCURVE",
"479 169 OFFCURVE",
"380 169 CURVE SMOOTH"
);
}
);
width = 704;
},
{
anchors = (
{
name = bottom;
position = "{319, -150}";
},
{
name = ogonek;
position = "{411, 0}";
},
{
name = top;
position = "{471, 810}";
}
);
background = {
paths = (
{
closed = 1;
nodes = (
"152 361 CURVE SMOOTH",
"105 63 OFFCURVE",
"163 20 OFFCURVE",
"342 20 CURVE SMOOTH",
"513 20 OFFCURVE",
"593 65 OFFCURVE",
"640 361 CURVE SMOOTH",
"691 685 OFFCURVE",
"612 713 OFFCURVE",
"452 713 CURVE SMOOTH",
"304 713 OFFCURVE",
"205 698 OFFCURVE"
);
},
{
closed = 1;
nodes = (
"128 368 CURVE SMOOTH",
"182 711 OFFCURVE",
"285 737 OFFCURVE",
"457 737 CURVE SMOOTH",
"630 737 OFFCURVE",
"718 697 OFFCURVE",
"664 354 CURVE SMOOTH",
"613 31 OFFCURVE",
"516 -4 OFFCURVE",
"336 -4 CURVE SMOOTH",
"156 -4 OFFCURVE",
"75 35 OFFCURVE"
);
}
);
};
layerId = "DE62D6C8-A9BF-4A7E-9D02-9A707AFEE35E";
paths = (
{
closed = 1;
nodes = (
"516 -6 OFFCURVE",
"616 51 OFFCURVE",
"664 354 CURVE SMOOTH",
"675 422 OFFCURVE",
"680 478 OFFCURVE",
"680 524 CURVE SMOOTH",
"680 694 OFFCURVE",
"596 738 OFFCURVE",
"457 738 CURVE SMOOTH",
"270 738 OFFCURVE",
"176 673 OFFCURVE",
"128 368 CURVE SMOOTH",
"117 300 OFFCURVE",
"112 245 OFFCURVE",
"112 199 CURVE SMOOTH",
"112 29 OFFCURVE",
"193 -6 OFFCURVE",
"336 -6 CURVE SMOOTH"
);
},
{
closed = 1;
nodes = (
"202 16 OFFCURVE",
"136 45 OFFCURVE",
"136 199 CURVE SMOOTH",
"136 242 OFFCURVE",
"142 295 OFFCURVE",
"152 361 CURVE SMOOTH",
"199 660 OFFCURVE",
"284 716 OFFCURVE",
"452 716 CURVE SMOOTH",
"579 716 OFFCURVE",
"655 686 OFFCURVE",
"655 525 CURVE SMOOTH",
"655 481 OFFCURVE",
"651 427 OFFCURVE",
"640 361 CURVE SMOOTH",
"592 65 OFFCURVE",
"513 16 OFFCURVE",
"342 16 CURVE SMOOTH"
);
}
);
width = 678;
}
);
leftKerningGroup = O;
note = "\012    GF Latin Plus glyph\012  ";
rightKerningGroup = O;
unicode = 004F;
userData = {
com.fontlab.hintData = {
hhints = (
{
position = -4;
width = 174;
},
{
position = 563;
width = 174;
}
);
};
com.typemytype.robofont.layerData = {
background = {
anchors = (
);
components = (
);
contours = (
{
points = (
{
segmentType = curve;
smooth = 1;
x = 290;
y = 361;
},
{
smooth = 0;
x = 266;
y = 208;
},
{
smooth = 0;
x = 270;
y = 170;
},
{
segmentType = curve;
smooth = 1;
x = 368;
y = 170;
},
{
smooth = 0;
x = 454;
y = 170;
},
{
smooth = 0;
x = 483;
y = 206;
},
{
segmentType = curve;
smooth = 1;
x = 508;
y = 361;
},
{
smooth = 0;
x = 535;
y = 531;
},
{
smooth = 0;
x = 522;
y = 563;
},
{
segmentType = curve;
smooth = 1;
x = 431;
y = 563;
},
{
smooth = 0;
x = 343;
y = 563;
},
{
smooth = 0;
x = 318;
y = 540;
}
);
},
{
points = (
{
segmentType = curve;
smooth = 1;
x = 96;
y = 386;
},
{
smooth = 0;
x = 150;
y = 729;
},
{
smooth = 0;
x = 290;
y = 737;
},
{
segmentType = curve;
smooth = 1;
x = 458;
y = 737;
},
{
smooth = 0;
x = 631;
y = 737;
},
{
smooth = 0;
x = 756;
y = 679;
},
{
segmentType = curve;
smooth = 1;
x = 702;
y = 336;
},
{
smooth = 0;
x = 651;
y = 13;
},
{
smooth = 0;
x = 521;
y = -4;
},
{
segmentType = curve;
smooth = 1;
x = 341;
y = -4;
},
{
smooth = 0;
x = 161;
y = -4;
},
{
smooth = 0;
x = 43;
y = 53;
}
);
}
);
lib = {
};
name = O;
unicodes = (
);
width = 704;
};
};
};
},
{
glyphname = Ohorn;
layers = (
{
anchors = (
{
name = bottom;
position = "{324, -150}";
},
{
name = top;
position = "{452, 810}";
}
);
components = (
{
name = O;
}
);
layerId = "FDCB0490-BEB2-4154-BC16-7BC1D55E5E84";
paths = (
{
closed = 1;
nodes = (
"628 639 LINE SMOOTH",
"729 639 OFFCURVE",
"802 717 OFFCURVE",
"824 851 CURVE",
"692 851 LINE",
"679 770 OFFCURVE",
"651 743 OFFCURVE",
"607 743 CURVE SMOOTH",
"486 743 LINE",
"470 639 LINE"
);
}
);
width = 708;
},
{
anchors = (
{
name = bottom;
position = "{308, -150}";
},
{
name = top;
position = "{468, 810}";
}
);
components = (
{
name = O;
}
);
layerId = "DE62D6C8-A9BF-4A7E-9D02-9A707AFEE35E";
paths = (
{
closed = 1;
nodes = (
"619 716 LINE SMOOTH",
"669 716 OFFCURVE",
"729 740 OFFCURVE",
"746 848 CURVE",
"724 848 LINE",
"710 761 OFFCURVE",
"670 732 OFFCURVE",
"622 732 CURVE SMOOTH",
"494 732 LINE",
"491 716 LINE"
);
}
);
width = 678;
}
);
leftKerningGroup = O;
note = "\012    GF Latin Plus glyph\012  ";
rightKerningGroup = O;
unicode = 01A0;
},
{
glyphname = Oslash;
layers = (
{
anchors = (
{
name = top;
position = "{464, 810}";
}
);
background = {
paths = (
{
closed = 1;
nodes = (
"262 202 LINE",
"278 178 OFFCURVE",
"304 170 OFFCURVE",
"349 170 CURVE SMOOTH",
"435 170 OFFCURVE",
"458 206 OFFCURVE",
"458 361 CURVE SMOOTH",
"458 406 OFFCURVE",
"457 441 OFFCURVE",
"453 469 CURVE"
);
},
{
closed = 1;
nodes = (
"240 361 CURVE SMOOTH",
"240 335 OFFCURVE",
"240 313 OFFCURVE",
"241 293 CURVE",
"422 545 LINE",
"406 559 OFFCURVE",
"382 563 OFFCURVE",
"349 563 CURVE SMOOTH",
"261 563 OFFCURVE",
"240 540 OFFCURVE"
);
},
{
closed = 1;
nodes = (
"46 361 CURVE SMOOTH",
"46 704 OFFCURVE",
"181 737 OFFCURVE",
"349 737 CURVE SMOOTH",
"420 737 OFFCURVE",
"484 731 OFFCURVE",
"534 701 CURVE",
"556 732 LINE",
"642 732 LINE",
"586 654 LINE",
"627 599 OFFCURVE",
"652 509 OFFCURVE",
"652 361 CURVE SMOOTH",
"652 38 OFFCURVE",
"529 -4 OFFCURVE",
"349 -4 CURVE SMOOTH",
"268 -4 OFFCURVE",
"198 2 OFFCURVE",
"146 40 CURVE",
"117 0 LINE",
"31 0 LINE",
"98 93 LINE",
"65 147 OFFCURVE",
"46 231 OFFCURVE"
);
}
);
};
components = (
{
name = O;
}
);
layerId = "FDCB0490-BEB2-4154-BC16-7BC1D55E5E84";
paths = (
{
closed = 1;
nodes = (
"140 0 LINE",
"790 743 LINE",
"685 743 LINE",
"35 0 LINE"
);
}
);
width = 708;
},
{
anchors = (
{
name = top;
position = "{468, 810}";
}
);
background = {
paths = (
{
closed = 1;
nodes = (
"175 70 LINE",
"214 30 OFFCURVE",
"272 20 OFFCURVE",
"356 20 CURVE SMOOTH",
"527 20 OFFCURVE",
"600 65 OFFCURVE",
"600 361 CURVE SMOOTH",
"600 511 OFFCURVE",
"582 597 OFFCURVE",
"547 647 CURVE"
);
},
{
closed = 1;
nodes = (
"112 361 CURVE SMOOTH",
"112 215 OFFCURVE",
"128 131 OFFCURVE",
"165 82 CURVE",
"537 660 LINE",
"496 706 OFFCURVE",
"435 713 OFFCURVE",
"356 713 CURVE SMOOTH",
"208 713 OFFCURVE",
"112 698 OFFCURVE"
);
},
{
closed = 1;
nodes = (
"88 361 CURVE SMOOTH",
"88 704 OFFCURVE",
"184 737 OFFCURVE",
"356 737 CURVE SMOOTH",
"440 737 OFFCURVE",
"506 729 OFFCURVE",
"551 682 CURVE",
"583 732 LINE",
"601 732 LINE",
"561 670 LINE",
"602 617 OFFCURVE",
"624 524 OFFCURVE",
"624 361 CURVE SMOOTH",
"624 38 OFFCURVE",
"536 -4 OFFCURVE",
"356 -4 CURVE SMOOTH",
"270 -4 OFFCURVE",
"205 3 OFFCURVE",
"161 47 CURVE",
"130 0 LINE",
"112 0 LINE",
"150 59 LINE",
"109 110 OFFCURVE",
"88 200 OFFCURVE"
);
}
);
};
components = (
{
name = O;
}
);
layerId = "DE62D6C8-A9BF-4A7E-9D02-9A707AFEE35E";
paths = (
{
closed = 1;
nodes = (
"90 0 LINE",
"729 732 LINE",
"704 732 LINE",
"65 0 LINE"
);
}
);
width = 678;
}
);
leftKerningGroup = O;
note = "\012    GF Latin Plus glyph\012  ";
rightKerningGroup = O;
unicode = 00D8;
userData = {
com.fontlab.hintData = {
hhints = (
{
position = -4;
width = 174;
},
{
position = 563;
width = 174;
}
);
vhints = (
{
position = 46;
width = 194;
},
{
position = 458;
width = 194;
}
);
};
com.typemytype.robofont.layerData = {
background = {
anchors = (
);
components = (
);
contours = (
{
points = (
{
segmentType = line;
smooth = 0;
x = 262;
y = 202;
},
{
smooth = 0;
x = 278;
y = 178;
},
{
smooth = 0;
x = 304;
y = 170;
},
{
segmentType = curve;
smooth = 1;
x = 349;
y = 170;
},
{
smooth = 0;
x = 435;
y = 170;
},
{
smooth = 0;
x = 458;
y = 206;
},
{
segmentType = curve;
smooth = 1;
x = 458;
y = 361;
},
{
smooth = 0;
x = 458;
y = 406;
},
{
smooth = 0;
x = 457;
y = 441;
},
{
segmentType = curve;
smooth = 0;
x = 453;
y = 469;
}
);
},
{
points = (
{
segmentType = curve;
smooth = 1;
x = 240;
y = 361;
},
{
smooth = 0;
x = 240;
y = 335;
},
{
smooth = 0;
x = 240;
y = 313;
},
{
segmentType = curve;
smooth = 0;
x = 241;
y = 293;
},
{
segmentType = line;
smooth = 0;
x = 422;
y = 545;
},
{
smooth = 0;
x = 406;
y = 559;
},
{
smooth = 0;
x = 382;
y = 563;
},
{
segmentType = curve;
smooth = 1;
x = 349;
y = 563;
},
{
smooth = 0;
x = 261;
y = 563;
},
{
smooth = 0;
x = 240;
y = 540;
}
);
},
{
points = (
{
segmentType = curve;
smooth = 1;
x = 46;
y = 361;
},
{
smooth = 0;
x = 46;
y = 704;
},
{
smooth = 0;
x = 181;
y = 737;
},
{
segmentType = curve;
smooth = 1;
x = 349;
y = 737;
},
{
smooth = 0;
x = 420;
y = 737;
},
{
smooth = 0;
x = 484;
y = 731;
},
{
segmentType = curve;
smooth = 0;
x = 534;
y = 701;
},
{
segmentType = line;
smooth = 0;
x = 556;
y = 732;
},
{
segmentType = line;
smooth = 0;
x = 642;
y = 732;
},
{
segmentType = line;
smooth = 0;
x = 586;
y = 654;
},
{
smooth = 0;
x = 627;
y = 599;
},
{
smooth = 0;
x = 652;
y = 509;
},
{
segmentType = curve;
smooth = 1;
x = 652;
y = 361;
},
{
smooth = 0;
x = 652;
y = 38;
},
{
smooth = 0;
x = 529;
y = -4;
},
{
segmentType = curve;
smooth = 1;
x = 349;
y = -4;
},
{
smooth = 0;
x = 268;
y = -4;
},
{
smooth = 0;
x = 198;
y = 2;
},
{
segmentType = curve;
smooth = 0;
x = 146;
y = 40;
},
{
segmentType = line;
smooth = 0;
x = 117;
y = 0;
},
{
segmentType = line;
smooth = 0;
x = 31;
y = 0;
},
{
segmentType = line;
smooth = 0;
x = 98;
y = 93;
},
{
smooth = 0;
x = 65;
y = 147;
},
{
smooth = 0;
x = 46;
y = 231;
}
);
}
);
lib = {
};
name = Oslash;
unicodes = (
);
width = 708;
};
};
};
},
{
glyphname = OE;
layers = (
{
background = {
paths = (
{
closed = 1;
nodes = (
"37 361 CURVE SMOOTH",
"37 704 OFFCURVE",
"172 737 OFFCURVE",
"340 737 CURVE SMOOTH",
"406 737 OFFCURVE",
"465 732 OFFCURVE",
"514 707 CURVE",
"548 728 OFFCURVE",
"592 734 OFFCURVE",
"634 732 CURVE SMOOTH",
"634 732 OFFCURVE",
"824 732 OFFCURVE",
"941 716 CURVE",
"941 553 LINE",
"694 553 LINE SMOOTH",
"642 553 OFFCURVE",
"642 524 OFFCURVE",
"642 497 CURVE SMOOTH",
"642 453 LINE",
"891 442 LINE",
"891 281 LINE",
"642 272 LINE",
"642 228 LINE SMOOTH",
"642 175 OFFCURVE",
"675 176 OFFCURVE",
"704 176 CURVE SMOOTH",
"941 176 LINE",
"941 14 LINE",
"838 0 OFFCURVE",
"644 -3 OFFCURVE",
"644 -3 CURVE SMOOTH",
"608 -5 OFFCURVE",
"551 -4 OFFCURVE",
"508 23 CURVE",
"461 1 OFFCURVE",
"405 -4 OFFCURVE",
"340 -4 CURVE SMOOTH",
"160 -4 OFFCURVE",
"37 28 OFFCURVE"
);
},
{
closed = 1;
nodes = (
"231 361 CURVE SMOOTH",
"231 208 OFFCURVE",
"242 170 OFFCURVE",
"340 170 CURVE SMOOTH",
"426 170 OFFCURVE",
"448 206 OFFCURVE",
"448 361 CURVE SMOOTH",
"448 531 OFFCURVE",
"431 563 OFFCURVE",
"340 563 CURVE SMOOTH",
"252 563 OFFCURVE",
"231 540 OFFCURVE"
);
}
);
};
components = (
{
name = O;
},
{
name = E;
transform = "{1, 0, 0, 1, 418, 0}";
}
);
layerId = "FDCB0490-BEB2-4154-BC16-7BC1D55E5E84";
width = 1021.12;
},
{
background = {
paths = (
{
closed = 1;
nodes = (
"88 361 CURVE SMOOTH",
"88 704 OFFCURVE",
"184 737 OFFCURVE",
"356 737 CURVE SMOOTH",
"477 737 OFFCURVE",
"560 721 OFFCURVE",
"599 593 CURVE",
"599 696 OFFCURVE",
"656 735 OFFCURVE",
"725 732 CURVE SMOOTH",
"992 722 LINE",
"992 708 LINE",
"725 708 LINE SMOOTH",
"663 708 OFFCURVE",
"623 677 OFFCURVE",
"623 602 CURVE SMOOTH",
"623 602 OFFCURVE",
"623 449 OFFCURVE",
"624 375 CURVE",
"952 370 LINE",
"952 356 LINE",
"624 351 LINE",
"624 276 OFFCURVE",
"623 123 OFFCURVE",
"623 123 CURVE SMOOTH",
"623 31 OFFCURVE",
"680 21 OFFCURVE",
"735 21 CURVE SMOOTH",
"992 21 LINE",
"992 7 LINE",
"735 -3 LINE SMOOTH",
"661 -6 OFFCURVE",
"599 15 OFFCURVE",
"599 136 CURVE",
"561 16 OFFCURVE",
"481 -4 OFFCURVE",
"356 -4 CURVE SMOOTH",
"176 -4 OFFCURVE",
"88 28 OFFCURVE"
);
},
{
closed = 1;
nodes = (
"112 361 CURVE SMOOTH",
"112 63 OFFCURVE",
"177 20 OFFCURVE",
"356 20 CURVE SMOOTH",
"546 20 OFFCURVE",
"599 80 OFFCURVE",
"599 370 CURVE SMOOTH",
"599 674 OFFCURVE",
"523 713 OFFCURVE",
"356 713 CURVE SMOOTH",
"208 713 OFFCURVE",
"112 698 OFFCURVE"
);
}
);
};
components = (
{
name = O;
},
{
name = E;
transform = "{1, 0, 0, 1, 505, 0}";
}
);
layerId = "DE62D6C8-A9BF-4A7E-9D02-9A707AFEE35E";
width = 1069.47;
}
);
leftKerningGroup = O;
note = "\012    GF Latin Plus glyph\012  ";
rightKerningGroup = E;
unicode = 0152;
userData = {
com.fontlab.hintData = {
hhints = (
{
position = -4;
width = 174;
},
{
position = 14;
width = 162;
},
{
position = 272;
width = 181;
},
{
position = 281;
width = 161;
},
{
position = 553;
width = 179;
},
{
position = 553;
width = 163;
},
{
position = 563;
width = 174;
}
);
vhints = (
{
position = 37;
width = 194;
},
{
position = 448;
width = 194;
}
);
};
com.typemytype.robofont.layerData = {
background = {
anchors = (
);
components = (
);
contours = (
{
points = (
{
segmentType = curve;
smooth = 1;
x = 37;
y = 361;
},
{
smooth = 0;
x = 37;
y = 704;
},
{
smooth = 0;
x = 172;
y = 737;
},
{
segmentType = curve;
smooth = 1;
x = 340;
y = 737;
},
{
smooth = 0;
x = 406;
y = 737;
},
{
smooth = 0;
x = 465;
y = 732;
},
{
segmentType = curve;
smooth = 0;
x = 514;
y = 707;
},
{
smooth = 0;
x = 548;
y = 728;
},
{
smooth = 0;
x = 592;
y = 734;
},
{
segmentType = curve;
smooth = 1;
x = 634;
y = 732;
},
{
smooth = 0;
x = 634;
y = 732;
},
{
smooth = 0;
x = 824;
y = 732;
},
{
segmentType = curve;
smooth = 0;
x = 941;
y = 716;
},
{
segmentType = line;
smooth = 0;
x = 941;
y = 553;
},
{
segmentType = line;
smooth = 1;
x = 694;
y = 553;
},
{
smooth = 0;
x = 642;
y = 553;
},
{
smooth = 0;
x = 642;
y = 524;
},
{
segmentType = curve;
smooth = 1;
x = 642;
y = 497;
},
{
segmentType = line;
smooth = 0;
x = 642;
y = 453;
},
{
segmentType = line;
smooth = 0;
x = 891;
y = 442;
},
{
segmentType = line;
smooth = 0;
x = 891;
y = 281;
},
{
segmentType = line;
smooth = 0;
x = 642;
y = 272;
},
{
segmentType = line;
smooth = 1;
x = 642;
y = 228;
},
{
smooth = 0;
x = 642;
y = 175;
},
{
smooth = 0;
x = 675;
y = 176;
},
{
segmentType = curve;
smooth = 1;
x = 704;
y = 176;
},
{
segmentType = line;
smooth = 0;
x = 941;
y = 176;
},
{
segmentType = line;
smooth = 0;
x = 941;
y = 14;
},
{
smooth = 0;
x = 838;
y = 0;
},
{
smooth = 0;
x = 644;
y = -3;
},
{
segmentType = curve;
smooth = 1;
x = 644;
y = -3;
},
{
smooth = 0;
x = 608;
y = -5;
},
{
smooth = 0;
x = 551;
y = -4;
},
{
segmentType = curve;
smooth = 0;
x = 508;
y = 23;
},
{
smooth = 0;
x = 461;
y = 1;
},
{
smooth = 0;
x = 405;
y = -4;
},
{
segmentType = curve;
smooth = 1;
x = 340;
y = -4;
},
{
smooth = 0;
x = 160;
y = -4;
},
{
smooth = 0;
x = 37;
y = 28;
}
);
},
{
points = (
{
segmentType = curve;
smooth = 1;
x = 231;
y = 361;
},
{
smooth = 0;
x = 231;
y = 208;
},
{
smooth = 0;
x = 242;
y = 170;
},
{
segmentType = curve;
smooth = 1;
x = 340;
y = 170;
},
{
smooth = 0;
x = 426;
y = 170;
},
{
smooth = 0;
x = 448;
y = 206;
},
{
segmentType = curve;
smooth = 1;
x = 448;
y = 361;
},
{
smooth = 0;
x = 448;
y = 531;
},
{
smooth = 0;
x = 431;
y = 563;
},
{
segmentType = curve;
smooth = 1;
x = 340;
y = 563;
},
{
smooth = 0;
x = 252;
y = 563;
},
{
smooth = 0;
x = 231;
y = 540;
}
);
}
);
lib = {
};
name = OE;
unicodes = (
);
width = 1021.12433;
};
};
};
},
{
glyphname = P;
layers = (
{
anchors = (
{
name = top;
position = "{420, 810}";
}
);
background = {
paths = (
{
closed = 1;
nodes = (
"309 378 LINE",
"339 569 LINE",
"451 569 LINE SMOOTH",
"488 569 OFFCURVE",
"498 537 OFFCURVE",
"488 475 CURVE SMOOTH",
"478 411 OFFCURVE",
"461 378 OFFCURVE",
"421 378 CURVE SMOOTH"
);
},
{
closed = 1;
nodes = (
"55 0 LINE",
"249 0 LINE",
"284 224 LINE",
"314 218 OFFCURVE",
"373 204 OFFCURVE",
"424 204 CURVE SMOOTH",
"519 204 OFFCURVE",
"644 236 OFFCURVE",
"683 477 CURVE SMOOTH",
"720 715 OFFCURVE",
"601 743 OFFCURVE",
"499 743 CURVE SMOOTH",
"173 743 LINE"
);
}
);
};
layerId = "FDCB0490-BEB2-4154-BC16-7BC1D55E5E84";
paths = (
{
closed = 1;
nodes = (
"249 0 LINE",
"285 226 LINE",
"313 215 OFFCURVE",
"378 204 OFFCURVE",
"440 204 CURVE SMOOTH",
"543.137 204 OFFCURVE",
"651 265 OFFCURVE",
"679 443 CURVE SMOOTH",
"683 468 OFFCURVE",
"689 504 OFFCURVE",
"689 525 CURVE SMOOTH",
"689 696 OFFCURVE",
"596 743 OFFCURVE",
"479 743 CURVE SMOOTH",
"173 743 LINE",
"55 0 LINE"
);
},
{
closed = 1;
nodes = (
"339 569 LINE",
"441 569 LINE SMOOTH",
"474.333 569 OFFCURVE",
"491 553 OFFCURVE",
"491 506 CURVE SMOOTH",
"491 500 OFFCURVE",
"489 482 OFFCURVE",
"486 465 CURVE SMOOTH",
"480.011 419.086 OFFCURVE",
"456.048 378 OFFCURVE",
"412 378 CURVE SMOOTH",
"309 378 LINE"
);
}
);
width = 616;
},
{
anchors = (
{
name = top;
position = "{399, 810}";
}
);
background = {
paths = (
{
closed = 1;
nodes = (
"159 347 LINE",
"411 347 LINE SMOOTH",
"490 347 OFFCURVE",
"568 374 OFFCURVE",
"591 533 CURVE",
"615 687 OFFCURVE",
"544 707 OFFCURVE",
"468 707 CURVE SMOOTH",
"216 707 LINE"
);
},
{
closed = 1;
nodes = (
"80 0 LINE",
"196 732 LINE",
"472 732 LINE SMOOTH",
"551 732 OFFCURVE",
"644 711 OFFCURVE",
"616 532 CURVE SMOOTH",
"584 328 OFFCURVE",
"481 323 OFFCURVE",
"407 323 CURVE SMOOTH",
"367 323 OFFCURVE",
"162 330 OFFCURVE",
"157 333 CURVE",
"104 0 LINE"
);
}
);
};
layerId = "DE62D6C8-A9BF-4A7E-9D02-9A707AFEE35E";
paths = (
{
closed = 1;
nodes = (
"104 0 LINE",
"153 309 LINE",
"226 306 OFFCURVE",
"315 303 OFFCURVE",
"383 303 CURVE SMOOTH",
"474 303 OFFCURVE",
"577 340 OFFCURVE",
"605 522 CURVE SMOOTH",
"608 542 OFFCURVE",
"611 571 OFFCURVE",
"611 587 CURVE SMOOTH",
"611 697 OFFCURVE",
"546 732 OFFCURVE",
"462 732 CURVE SMOOTH",
"196 732 LINE",
"80 0 LINE"
);
},
{
closed = 1;
nodes = (
"216 710 LINE",
"458 710 LINE SMOOTH",
"539 710 OFFCURVE",
"587 676 OFFCURVE",
"587 586 CURVE SMOOTH",
"587 570 OFFCURVE",
"584 542 OFFCURVE",
"581 522 CURVE SMOOTH",
"555 363 OFFCURVE",
"472 325 OFFCURVE",
"385 325 CURVE SMOOTH",
"155 325 LINE"
);
}
);
width = 592;
}
);
note = "\012    GF Latin Plus glyph\012  ";
rightKerningGroup = P;
unicode = 0050;
userData = {
com.fontlab.hintData = {
hhints = (
{
position = 0;
width = 21;
},
{
position = 567;
width = 165;
}
);
};
com.typemytype.robofont.layerData = {
background = {
anchors = (
);
components = (
);
contours = (
{
points = (
{
segmentType = line;
smooth = 0;
x = 309;
y = 378;
},
{
segmentType = line;
smooth = 0;
x = 339;
y = 569;
},
{
segmentType = line;
smooth = 1;
x = 451;
y = 569;
},
{
smooth = 0;
x = 488;
y = 569;
},
{
smooth = 0;
x = 498;
y = 537;
},
{
segmentType = curve;
smooth = 1;
x = 488;
y = 475;
},
{
smooth = 0;
x = 478;
y = 411;
},
{
smooth = 0;
x = 461;
y = 378;
},
{
segmentType = curve;
smooth = 1;
x = 421;
y = 378;
}
);
},
{
points = (
{
segmentType = line;
smooth = 0;
x = 55;
y = 0;
},
{
segmentType = line;
smooth = 0;
x = 249;
y = 0;
},
{
segmentType = line;
smooth = 0;
x = 284;
y = 224;
},
{
smooth = 0;
x = 314;
y = 218;
},
{
smooth = 0;
x = 373;
y = 204;
},
{
segmentType = curve;
smooth = 1;
x = 424;
y = 204;
},
{
smooth = 0;
x = 519;
y = 204;
},
{
smooth = 0;
x = 644;
y = 236;
},
{
segmentType = curve;
smooth = 1;
x = 683;
y = 477;
},
{
smooth = 0;
x = 720;
y = 715;
},
{
smooth = 0;
x = 601;
y = 743;
},
{
segmentType = curve;
smooth = 1;
x = 499;
y = 743;
},
{
segmentType = line;
smooth = 0;
x = 173;
y = 743;
}
);
}
);
lib = {
};
name = P;
unicodes = (
);
width = 616;
};
};
};
},
{
glyphname = Thorn;
layers = (
{
background = {
paths = (
{
closed = 1;
nodes = (
"278 313 LINE",
"305 313 LINE SMOOTH",
"357 313 OFFCURVE",
"366 317 OFFCURVE",
"375 372 CURVE SMOOTH",
"383 423 OFFCURVE",
"362 424 OFFCURVE",
"322 424 CURVE SMOOTH",
"295 424 LINE"
);
},
{
closed = 1;
nodes = (
"34 0 LINE",
"72 243 OFFCURVE",
"111 486 OFFCURVE",
"149 729 CURVE",
"343 729 LINE",
"321 588 LINE",
"428 588 LINE SMOOTH",
"507 588 OFFCURVE",
"598 541 OFFCURVE",
"570 362 CURVE SMOOTH",
"538 158 OFFCURVE",
"433 152 OFFCURVE",
"359 149 CURVE SMOOTH",
"313 147 OFFCURVE",
"295 147 OFFCURVE",
"255 168 CURVE",
"228 0 LINE"
);
}
);
};
layerId = "FDCB0490-BEB2-4154-BC16-7BC1D55E5E84";
paths = (
{
closed = 1;
nodes = (
"249 0 LINE",
"367 743 LINE",
"173 743 LINE",
"55 0 LINE"
);
},
{
closed = 1;
nodes = (
"493 124 OFFCURVE",
"603 180 OFFCURVE",
"629 343 CURVE SMOOTH",
"633 368 OFFCURVE",
"639 404 OFFCURVE",
"639 425 CURVE SMOOTH",
"639 583 OFFCURVE",
"542 627 OFFCURVE",
"419 627 CURVE SMOOTH",
"296 627 LINE",
"268 453 LINE",
"381 453 LINE SMOOTH",
"421 453 OFFCURVE",
"441 441 OFFCURVE",
"441 406 CURVE SMOOTH",
"441 400 OFFCURVE",
"439 382 OFFCURVE",
"436 365 CURVE SMOOTH",
"431 329 OFFCURVE",
"406 298 OFFCURVE",
"362 298 CURVE SMOOTH",
"254 298 LINE",
"231 151 LINE",
"270.756 139.641 OFFCURVE",
"330.728 124 OFFCURVE",
"390 124 CURVE SMOOTH"
);
}
);
width = 582;
},
{
background = {
paths = (
{
closed = 1;
nodes = (
"111 173 LINE",
"328 173 LINE SMOOTH",
"422 173 OFFCURVE",
"488 220 OFFCURVE",
"513 377 CURVE SMOOTH",
"539 540 OFFCURVE",
"456 563 OFFCURVE",
"390 564 CURVE",
"173 564 LINE"
);
},
{
closed = 1;
nodes = (
"60 0 LINE",
"98 243 OFFCURVE",
"137 486 OFFCURVE",
"175 729 CURVE",
"199 729 LINE",
"177 588 LINE",
"394 588 LINE SMOOTH",
"473 588 OFFCURVE",
"565 550 OFFCURVE",
"537 371 CURVE SMOOTH",
"505 167 OFFCURVE",
"399 149 OFFCURVE",
"325 149 CURVE",
"285 150 OFFCURVE",
"143 154 OFFCURVE",
"109 159 CURVE",
"84 0 LINE"
);
}
);
};
layerId = "DE62D6C8-A9BF-4A7E-9D02-9A707AFEE35E";
paths = (
{
closed = 1;
nodes = (
"104 0 LINE",
"218 732 LINE",
"196 732 LINE",
"80 0 LINE"
);
},
{
closed = 1;
nodes = (
"394.104 183 OFFCURVE",
"500.974 213.828 OFFCURVE",
"525 372 CURVE SMOOTH",
"528 392 OFFCURVE",
"531 421 OFFCURVE",
"531 437 CURVE SMOOTH",
"531 547 OFFCURVE",
"461.638 582 OFFCURVE",
"372 582 CURVE SMOOTH",
"184 582 LINE",
"183 560 LINE",
"368 560 LINE SMOOTH",
"455.279 560 OFFCURVE",
"507 526 OFFCURVE",
"507 436 CURVE SMOOTH",
"507 420 OFFCURVE",
"504 392 OFFCURVE",
"501 372 CURVE SMOOTH",
"478.969 236.807 OFFCURVE",
"392.462 205 OFFCURVE",
"305 205 CURVE SMOOTH",
"129 205 LINE",
"125 188 LINE",
"189.39 185.159 OFFCURVE",
"245.245 183 OFFCURVE",
"303 183 CURVE SMOOTH"
);
}
);
width = 535.089;
}
);
note = "\012    GF Latin Plus glyph\012  ";
unicode = 00DE;
userData = {
com.fontlab.hintData = {
hhints = (
{
position = 0;
width = 21;
},
{
position = 149;
width = 164;
}
);
};
com.typemytype.robofont.layerData = {
background = {
anchors = (
);
components = (
);
contours = (
{
points = (
{
segmentType = line;
smooth = 0;
x = 278;
y = 313;
},
{
segmentType = line;
smooth = 1;
x = 305;
y = 313;
},
{
smooth = 0;
x = 357;
y = 313;
},
{
smooth = 0;
x = 366;
y = 317;
},
{
segmentType = curve;
smooth = 1;
x = 375;
y = 372;
},
{
smooth = 0;
x = 383;
y = 423;
},
{
smooth = 0;
x = 362;
y = 424;
},
{
segmentType = curve;
smooth = 1;
x = 322;
y = 424;
},
{
segmentType = line;
smooth = 0;
x = 295;
y = 424;
}
);
},
{
points = (
{
segmentType = line;
smooth = 0;
x = 34;
y = 0;
},
{
smooth = 0;
x = 72;
y = 243;
},
{
smooth = 0;
x = 111;
y = 486;
},
{
segmentType = curve;
smooth = 0;
x = 149;
y = 729;
},
{
segmentType = line;
smooth = 0;
x = 343;
y = 729;
},
{
segmentType = line;
smooth = 0;
x = 321;
y = 588;
},
{
segmentType = line;
smooth = 1;
x = 428;
y = 588;
},
{
smooth = 0;
x = 507;
y = 588;
},
{
smooth = 0;
x = 598;
y = 541;
},
{
segmentType = curve;
smooth = 1;
x = 570;
y = 362;
},
{
smooth = 0;
x = 538;
y = 158;
},
{
smooth = 0;
x = 433;
y = 152;
},
{
segmentType = curve;
smooth = 1;
x = 359;
y = 149;
},
{
smooth = 0;
x = 313;
y = 147;
},
{
smooth = 0;
x = 295;
y = 147;
},
{
segmentType = curve;
smooth = 0;
x = 255;
y = 168;
},
{
segmentType = line;
smooth = 0;
x = 228;
y = 0;
}
);
}
);
lib = {
};
name = Thorn;
unicodes = (
);
width = 582;
};
};
};
},
{
glyphname = Q;
layers = (
{
background = {
paths = (
{
closed = 1;
nodes = (
"280 -33 CURVE",
"382 -33 LINE",
"378 -94 OFFCURVE",
"473 -80 OFFCURVE",
"535 -68 CURVE",
"513 -208 LINE",
"386 -226 OFFCURVE",
"257 -184 OFFCURVE"
);
},
{
closed = 1;
nodes = (
"288 361 CURVE SMOOTH",
"264 208 OFFCURVE",
"268 170 OFFCURVE",
"366 170 CURVE SMOOTH",
"452 170 OFFCURVE",
"481 206 OFFCURVE",
"506 361 CURVE SMOOTH",
"533 531 OFFCURVE",
"520 563 OFFCURVE",
"429 563 CURVE SMOOTH",
"341 563 OFFCURVE",
"316 540 OFFCURVE"
);
},
{
closed = 1;
nodes = (
"94 391 CURVE SMOOTH",
"148 734 OFFCURVE",
"288 737 OFFCURVE",
"456 737 CURVE SMOOTH",
"629 737 OFFCURVE",
"754 674 OFFCURVE",
"700 331 CURVE SMOOTH",
"649 8 OFFCURVE",
"519 -2 OFFCURVE",
"339 -4 CURVE",
"159 -4 OFFCURVE",
"41 58 OFFCURVE"
);
}
);
};
components = (
{
name = O;
}
);
layerId = "FDCB0490-BEB2-4154-BC16-7BC1D55E5E84";
paths = (
{
closed = 1;
nodes = (
"527 -212 OFFCURVE",
"545 -211 OFFCURVE",
"563 -208 CURVE",
"585 -68 LINE",
"559 -73 OFFCURVE",
"527 -78 OFFCURVE",
"499 -78 CURVE SMOOTH",
"455 -78 OFFCURVE",
"436 -68 OFFCURVE",
"434 -41 CURVE",
"300 -41 LINE",
"300 -163.279 OFFCURVE",
"388 -212 OFFCURVE",
"500 -212 CURVE SMOOTH"
);
}
);
width = 704;
},
{
background = {
paths = (
{
closed = 1;
nodes = (
"319 -33 CURVE",
"333 -33 LINE",
"350 -115 OFFCURVE",
"436 -116 OFFCURVE",
"499 -96 CURVE",
"495 -120 LINE",
"419 -147 OFFCURVE",
"324 -127 OFFCURVE"
);
},
{
closed = 1;
nodes = (
"146 361 CURVE SMOOTH",
"99 63 OFFCURVE",
"157 20 OFFCURVE",
"336 20 CURVE SMOOTH",
"507 20 OFFCURVE",
"587 65 OFFCURVE",
"634 361 CURVE SMOOTH",
"685 685 OFFCURVE",
"606 713 OFFCURVE",
"446 713 CURVE SMOOTH",
"298 713 OFFCURVE",
"199 698 OFFCURVE"
);
},
{
closed = 1;
nodes = (
"122 368 CURVE SMOOTH",
"176 711 OFFCURVE",
"279 737 OFFCURVE",
"451 737 CURVE SMOOTH",
"624 737 OFFCURVE",
"712 697 OFFCURVE",
"658 354 CURVE SMOOTH",
"607 31 OFFCURVE",
"510 -4 OFFCURVE",
"330 -4 CURVE SMOOTH",
"150 -4 OFFCURVE",
"69 35 OFFCURVE"
);
}
);
};
components = (
{
name = O;
}
);
layerId = "DE62D6C8-A9BF-4A7E-9D02-9A707AFEE35E";
paths = (
{
closed = 1;
nodes = (
"503 -151 OFFCURVE",
"525 -147 OFFCURVE",
"545 -140 CURVE",
"548 -118 LINE",
"529 -125 OFFCURVE",
"506 -129 OFFCURVE",
"483 -129 CURVE SMOOTH",
"422 -129 OFFCURVE",
"382 -104 OFFCURVE",
"368 -33 CURVE",
"352 -33 LINE",
"357 -116 OFFCURVE",
"409 -151 OFFCURVE",
"482 -151 CURVE SMOOTH"
);
}
);
width = 678;
}
);
leftKerningGroup = O;
note = "\012    GF Latin Plus glyph\012  ";
rightKerningGroup = O;
unicode = 0051;
userData = {
com.fontlab.hintData = {
hhints = (
{
position = -4;
width = 174;
},
{
position = 563;
width = 174;
}
);
};
com.typemytype.robofont.layerData = {
background = {
anchors = (
);
components = (
);
contours = (
{
points = (
{
segmentType = curve;
smooth = 0;
x = 280;
y = -33;
},
{
segmentType = line;
smooth = 0;
x = 382;
y = -33;
},
{
smooth = 0;
x = 378;
y = -94;
},
{
smooth = 0;
x = 473;
y = -80;
},
{
segmentType = curve;
smooth = 0;
x = 535;
y = -68;
},
{
segmentType = line;
smooth = 0;
x = 513;
y = -208;
},
{
smooth = 0;
x = 386;
y = -226;
},
{
smooth = 0;
x = 257;
y = -184;
}
);
},
{
points = (
{
segmentType = curve;
smooth = 1;
x = 288;
y = 361;
},
{
smooth = 0;
x = 264;
y = 208;
},
{
smooth = 0;
x = 268;
y = 170;
},
{
segmentType = curve;
smooth = 1;
x = 366;
y = 170;
},
{
smooth = 0;
x = 452;
y = 170;
},
{
smooth = 0;
x = 481;
y = 206;
},
{
segmentType = curve;
smooth = 1;
x = 506;
y = 361;
},
{
smooth = 0;
x = 533;
y = 531;
},
{
smooth = 0;
x = 520;
y = 563;
},
{
segmentType = curve;
smooth = 1;
x = 429;
y = 563;
},
{
smooth = 0;
x = 341;
y = 563;
},
{
smooth = 0;
x = 316;
y = 540;
}
);
},
{
points = (
{
segmentType = curve;
smooth = 1;
x = 94;
y = 391;
},
{
smooth = 0;
x = 148;
y = 734;
},
{
smooth = 0;
x = 288;
y = 737;
},
{
segmentType = curve;
smooth = 1;
x = 456;
y = 737;
},
{
smooth = 0;
x = 629;
y = 737;
},
{
smooth = 0;
x = 754;
y = 674;
},
{
segmentType = curve;
smooth = 1;
x = 700;
y = 331;
},
{
smooth = 0;
x = 649;
y = 8;
},
{
smooth = 0;
x = 519;
y = -2;
},
{
segmentType = curve;
smooth = 0;
x = 339;
y = -4;
},
{
smooth = 0;
x = 159;
y = -4;
},
{
smooth = 0;
x = 41;
y = 58;
}
);
}
);
lib = {
};
name = Q;
unicodes = (
);
width = 704;
};
};
};
},
{
glyphname = R;
layers = (
{
anchors = (
{
name = bottom;
position = "{308, -150}";
},
{
name = top;
position = "{430, 810}";
}
);
background = {
paths = (
{
closed = 1;
nodes = (
"55 0 LINE",
"249 0 LINE",
"290 256 LINE",
"364 256 LINE",
"427 0 LINE",
"624 0 LINE",
"541 288 LINE",
"602 320 OFFCURVE",
"654 369 OFFCURVE",
"674 493 CURVE SMOOTH",
"705 687 OFFCURVE",
"620 743 OFFCURVE",
"490 743 CURVE SMOOTH",
"173 743 LINE"
);
},
{
closed = 1;
nodes = (
"314 410 LINE",
"339 569 LINE",
"427 569 LINE SMOOTH",
"470 569 OFFCURVE",
"489 551 OFFCURVE",
"480 492 CURVE SMOOTH",
"471 433 OFFCURVE",
"445 410 OFFCURVE",
"402 410 CURVE SMOOTH"
);
}
);
};
layerId = "FDCB0490-BEB2-4154-BC16-7BC1D55E5E84";
paths = (
{
closed = 1;
nodes = (
"249 0 LINE",
"290 256 LINE",
"315 256 OFFCURVE",
"339 256 OFFCURVE",
"364 256 CURVE",
"427 0 LINE",
"624 0 LINE",
"541 288 LINE",
"579 309 OFFCURVE",
"655.405 349.565 OFFCURVE",
"675 483 CURVE SMOOTH",
"679 507 OFFCURVE",
"681 529 OFFCURVE",
"681 549 CURVE SMOOTH",
"681 684 OFFCURVE",
"606 743 OFFCURVE",
"465 743 CURVE SMOOTH",
"173 743 LINE",
"55 0 LINE"
);
},
{
closed = 1;
nodes = (
"339 569 LINE",
"426 569 LINE SMOOTH",
"468.264 569 OFFCURVE",
"482 550.647 OFFCURVE",
"482 521 CURVE SMOOTH",
"482 513 OFFCURVE",
"482 504 OFFCURVE",
"480 494 CURVE",
"471.393 438.054 OFFCURVE",
"458 410 OFFCURVE",
"395 410 CURVE SMOOTH",
"314 410 LINE"
);
}
);
width = 644;
},
{
anchors = (
{
name = bottom;
position = "{287, -150}";
},
{
name = top;
position = "{389, 810}";
}
);
background = {
paths = (
{
closed = 1;
nodes = (
"159 347 LINE",
"411 347 LINE SMOOTH",
"490 347 OFFCURVE",
"566 370 OFFCURVE",
"591 532 CURVE SMOOTH",
"615 686 OFFCURVE",
"544 707 OFFCURVE",
"468 707 CURVE SMOOTH",
"216 707 LINE"
);
},
{
closed = 1;
nodes = (
"80 0 LINE",
"196 732 LINE",
"472 732 LINE SMOOTH",
"551 732 OFFCURVE",
"644 707 OFFCURVE",
"616 528 CURVE SMOOTH",
"586 340 OFFCURVE",
"500 325 OFFCURVE",
"425 323 CURVE",
"534 0 LINE",
"508 0 LINE",
"399 323 LINE",
"346 324 OFFCURVE",
"161 330 OFFCURVE",
"157 333 CURVE",
"104 0 LINE"
);
}
);
};
layerId = "DE62D6C8-A9BF-4A7E-9D02-9A707AFEE35E";
paths = (
{
closed = 1;
nodes = (
"104 0 LINE",
"156 331 LINE",
"217 328 OFFCURVE",
"348 326 OFFCURVE",
"401 325 CURVE",
"510 0 LINE",
"534 0 LINE",
"425 326 LINE",
"487 330 OFFCURVE",
"579 353 OFFCURVE",
"606 518 CURVE SMOOTH",
"609 539 OFFCURVE",
"611 558 OFFCURVE",
"611 575 CURVE SMOOTH",
"611 708 OFFCURVE",
"518 732 OFFCURVE",
"452 732 CURVE SMOOTH",
"196 732 LINE",
"80 0 LINE"
);
},
{
closed = 1;
nodes = (
"216 710 LINE",
"448 710 LINE SMOOTH",
"510 710 OFFCURVE",
"585 690.583 OFFCURVE",
"585 573 CURVE SMOOTH",
"585 558 OFFCURVE",
"584 541 OFFCURVE",
"581 522 CURVE SMOOTH",
"557.352 368.762 OFFCURVE",
"476 347 OFFCURVE",
"401 347 CURVE SMOOTH",
"159 347 LINE"
);
}
);
width = 604;
}
);
note = "\012    GF Latin Plus glyph\012  ";
rightKerningGroup = R;
unicode = 0052;
userData = {
com.fontlab.hintData = {
hhints = (
{
position = 0;
width = 21;
},
{
position = 567;
width = 165;
}
);
};
com.typemytype.robofont.layerData = {
background = {
anchors = (
);
components = (
);
contours = (
{
points = (
{
segmentType = line;
smooth = 0;
x = 55;
y = 0;
},
{
segmentType = line;
smooth = 0;
x = 249;
y = 0;
},
{
segmentType = line;
smooth = 0;
x = 290;
y = 256;
},
{
segmentType = line;
smooth = 0;
x = 364;
y = 256;
},
{
segmentType = line;
smooth = 0;
x = 427;
y = 0;
},
{
segmentType = line;
smooth = 0;
x = 624;
y = 0;
},
{
segmentType = line;
smooth = 0;
x = 541;
y = 288;
},
{
smooth = 0;
x = 602;
y = 320;
},
{
smooth = 0;
x = 654;
y = 369;
},
{
segmentType = curve;
smooth = 1;
x = 674;
y = 493;
},
{
smooth = 0;
x = 705;
y = 687;
},
{
smooth = 0;
x = 620;
y = 743;
},
{
segmentType = curve;
smooth = 1;
x = 490;
y = 743;
},
{
segmentType = line;
smooth = 0;
x = 173;
y = 743;
}
);
},
{
points = (
{
segmentType = line;
smooth = 0;
x = 314;
y = 410;
},
{
segmentType = line;
smooth = 0;
x = 339;
y = 569;
},
{
segmentType = line;
smooth = 1;
x = 427;
y = 569;
},
{
smooth = 0;
x = 470;
y = 569;
},
{
smooth = 0;
x = 489;
y = 551;
},
{
segmentType = curve;
smooth = 1;
x = 480;
y = 492;
},
{
smooth = 0;
x = 471;
y = 433;
},
{
smooth = 0;
x = 445;
y = 410;
},
{
segmentType = curve;
smooth = 1;
x = 402;
y = 410;
}
);
}
);
lib = {
};
name = R;
unicodes = (
);
width = 644;
};
};
};
},
{
glyphname = S;
layers = (
{
anchors = (
{
name = bottom;
position = "{261, -150}";
},
{
name = top;
position = "{413, 810}";
}
);
background = {
paths = (
{
closed = 1;
nodes = (
"646 26 CURVE",
"670 177 LINE",
"709 173 OFFCURVE",
"824 166 OFFCURVE",
"917 166 CURVE SMOOTH",
"960 166 OFFCURVE",
"978 177 OFFCURVE",
"983 207 CURVE",
"985 223 LINE",
"990 252 OFFCURVE",
"983 267 OFFCURVE",
"939 267 CURVE SMOOTH",
"869 267 LINE SMOOTH",
"678 267 OFFCURVE",
"686 437 OFFCURVE",
"692 484 CURVE SMOOTH",
"703 568 LINE",
"723 713 OFFCURVE",
"822 735 OFFCURVE",
"934 738 CURVE SMOOTH",
"1082 742 OFFCURVE",
"1159 732 OFFCURVE",
"1229 705 CURVE",
"1205 554 LINE",
"1142 561 OFFCURVE",
"1042 564 OFFCURVE",
"976 564 CURVE SMOOTH",
"922 564 OFFCURVE",
"902 562 OFFCURVE",
"895 520 CURVE SMOOTH",
"893 509 LINE SMOOTH",
"888 478 OFFCURVE",
"892 461 OFFCURVE",
"946 461 CURVE SMOOTH",
"1020 461 LINE SMOOTH",
"1172 461 OFFCURVE",
"1190 329 OFFCURVE",
"1180 249 CURVE",
"1178 186 LINE",
"1171 -2 OFFCURVE",
"1029 -8 OFFCURVE",
"930 -8 CURVE SMOOTH",
"785 -8 OFFCURVE",
"741 -8 OFFCURVE"
);
},
{
closed = 1;
nodes = (
"116 497 LINE SMOOTH",
"90 338 OFFCURVE",
"162 275 OFFCURVE",
"317 275 CURVE SMOOTH",
"370 275 LINE SMOOTH",
"397 275 OFFCURVE",
"419 260 OFFCURVE",
"415 231 CURVE SMOOTH",
"413 219 LINE SMOOTH",
"407 181 OFFCURVE",
"372 168 OFFCURVE",
"306 168 CURVE SMOOTH",
"236 168 OFFCURVE",
"144 171 OFFCURVE",
"78 177 CURVE",
"54 23 LINE",
"120 5 OFFCURVE",
"200 -6 OFFCURVE",
"288 -6 CURVE SMOOTH",
"457 -6 OFFCURVE",
"567 33 OFFCURVE",
"597 224 CURVE SMOOTH",
"603 257 LINE SMOOTH",
"621 372 OFFCURVE",
"564 459 OFFCURVE",
"425 459 CURVE SMOOTH",
"359 459 LINE SMOOTH",
"315 459 OFFCURVE",
"296 477 OFFCURVE",
"302 510 CURVE SMOOTH",
"303 520 LINE SMOOTH",
"311 566 OFFCURVE",
"351 575 OFFCURVE",
"408 575 CURVE SMOOTH",
"470 575 OFFCURVE",
"553 571 OFFCURVE",
"615 566 CURVE",
"639 720 LINE",
"582 734 OFFCURVE",
"505 749 OFFCURVE",
"412 749 CURVE SMOOTH",
"246 749 OFFCURVE",
"144 677 OFFCURVE",
"121 530 CURVE SMOOTH"
);
}
);
};
layerId = "FDCB0490-BEB2-4154-BC16-7BC1D55E5E84";
paths = (
{
closed = 1;
nodes = (
"506 -6 OFFCURVE",
"570 59 OFFCURVE",
"589 179 CURVE SMOOTH",
"600 249 LINE SMOOTH",
"602 263 OFFCURVE",
"603 276 OFFCURVE",
"603 288 CURVE SMOOTH",
"603 387 OFFCURVE",
"530 459 OFFCURVE",
"396 459 CURVE SMOOTH",
"352 459 LINE SMOOTH",
"316 459 OFFCURVE",
"301 473 OFFCURVE",
"301 500 CURVE SMOOTH",
"301 505 OFFCURVE",
"302 511 OFFCURVE",
"303 517 CURVE SMOOTH",
"305 528 LINE SMOOTH",
"311 563 OFFCURVE",
"340 575 OFFCURVE",
"382 575 CURVE SMOOTH",
"448 575 OFFCURVE",
"542 573 OFFCURVE",
"615 566 CURVE",
"639 720 LINE",
"556 741 OFFCURVE",
"480 749 OFFCURVE",
"407 749 CURVE SMOOTH",
"248 749 OFFCURVE",
"147 694 OFFCURVE",
"124 551 CURVE SMOOTH",
"115 494 LINE SMOOTH",
"113 479 OFFCURVE",
"112 465 OFFCURVE",
"112 451 CURVE SMOOTH",
"112 350 OFFCURVE",
"183 276 OFFCURVE",
"304 276 CURVE SMOOTH",
"344 276 LINE SMOOTH",
"393 276 OFFCURVE",
"414 267 OFFCURVE",
"414 240 CURVE SMOOTH",
"414 236 OFFCURVE",
"414 232 OFFCURVE",
"413 227 CURVE SMOOTH",
"411 216 LINE SMOOTH",
"405 180 OFFCURVE",
"380 168 OFFCURVE",
"304 168 CURVE SMOOTH",
"227 168 OFFCURVE",
"142 171 OFFCURVE",
"80 177 CURVE",
"56 23 LINE",
"107 9 OFFCURVE",
"190 -6 OFFCURVE",
"309 -6 CURVE SMOOTH"
);
}
);
width = 576;
},
{
anchors = (
{
name = bottom;
position = "{257, -150}";
},
{
name = top;
position = "{409, 810}";
}
);
background = {
paths = (
{
closed = 1;
nodes = (
"579 7 CURVE",
"581 22 LINE",
"624 18 OFFCURVE",
"725 16 OFFCURVE",
"818 16 CURVE SMOOTH",
"908 16 OFFCURVE",
"990 39 OFFCURVE",
"1008 156 CURVE SMOOTH",
"1018 224 LINE SMOOTH",
"1031 309 OFFCURVE",
"1000 347 OFFCURVE",
"900 347 CURVE SMOOTH",
"788 347 LINE SMOOTH",
"633 347 OFFCURVE",
"626 420 OFFCURVE",
"638 498 CURVE SMOOTH",
"649 564 LINE",
"672 709 OFFCURVE",
"758 738 OFFCURVE",
"870 738 CURVE SMOOTH",
"923 738 OFFCURVE",
"1041 727 OFFCURVE",
"1089 719 CURVE",
"1087 706 LINE",
"1024 710 OFFCURVE",
"866 714 OFFCURVE",
"866 714 CURVE SMOOTH",
"761 718 OFFCURVE",
"692 681 OFFCURVE",
"673 560 CURVE",
"662 494 LINE",
"646 390 OFFCURVE",
"698 371 OFFCURVE",
"790 371 CURVE SMOOTH",
"904 371 LINE SMOOTH",
"1037 371 OFFCURVE",
"1055 301 OFFCURVE",
"1042 219 CURVE SMOOTH",
"1032 151 LINE",
"1010 9 OFFCURVE",
"911 -8 OFFCURVE",
"812 -8 CURVE SMOOTH",
"763 -8 OFFCURVE",
"624 -1 OFFCURVE"
);
},
{
closed = 1;
nodes = (
"154 514 LINE SMOOTH",
"136 396 OFFCURVE",
"197 357 OFFCURVE",
"302 357 CURVE SMOOTH",
"394 357 LINE SMOOTH",
"494 357 OFFCURVE",
"525 309 OFFCURVE",
"511 224 CURVE SMOOTH",
"501 156 LINE SMOOTH",
"482 39 OFFCURVE",
"389 16 OFFCURVE",
"288 16 CURVE SMOOTH",
"203 16 OFFCURVE",
"114 19 OFFCURVE",
"75 23 CURVE",
"72 7 LINE",
"113 0 OFFCURVE",
"240 -6 OFFCURVE",
"285 -6 CURVE SMOOTH",
"394 -6 OFFCURVE",
"504 28 OFFCURVE",
"525 156 CURVE SMOOTH",
"535 224 LINE SMOOTH",
"550 316 OFFCURVE",
"511 381 OFFCURVE",
"398 381 CURVE SMOOTH",
"304 381 LINE SMOOTH",
"213 381 OFFCURVE",
"162 410 OFFCURVE",
"178 514 CURVE SMOOTH",
"186 560 LINE SMOOTH",
"205 683 OFFCURVE",
"272 716 OFFCURVE",
"379 716 CURVE SMOOTH",
"446 716 OFFCURVE",
"522 710 OFFCURVE",
"580 706 CURVE",
"582 722 LINE",
"538 729 OFFCURVE",
"432 738 OFFCURVE",
"383 738 CURVE SMOOTH",
"261 738 OFFCURVE",
"183 695 OFFCURVE",
"162 560 CURVE SMOOTH"
);
}
);
};
layerId = "DE62D6C8-A9BF-4A7E-9D02-9A707AFEE35E";
paths = (
{
closed = 1;
nodes = (
"411 -6 OFFCURVE",
"511 21 OFFCURVE",
"532 158 CURVE SMOOTH",
"542 224 LINE SMOOTH",
"544 239 OFFCURVE",
"545 252 OFFCURVE",
"545 265 CURVE SMOOTH",
"545 343 OFFCURVE",
"501 381 OFFCURVE",
"404 381 CURVE SMOOTH",
"290 381 LINE SMOOTH",
"215 381 OFFCURVE",
"178 400 OFFCURVE",
"178 466 CURVE SMOOTH",
"178 477 OFFCURVE",
"179 489 OFFCURVE",
"181 502 CURVE SMOOTH",
"191 568 LINE SMOOTH",
"209 688 OFFCURVE",
"271 714 OFFCURVE",
"382 714 CURVE SMOOTH",
"426 714 OFFCURVE",
"524 710 OFFCURVE",
"587 706 CURVE",
"589 722 LINE",
"544 729 OFFCURVE",
"423 738 OFFCURVE",
"380 738 CURVE SMOOTH",
"268 738 OFFCURVE",
"188 709 OFFCURVE",
"167 568 CURVE SMOOTH",
"157 502 LINE SMOOTH",
"155 488 OFFCURVE",
"154 476 OFFCURVE",
"154 464 CURVE SMOOTH",
"154 386 OFFCURVE",
"200 357 OFFCURVE",
"288 357 CURVE SMOOTH",
"400 357 LINE SMOOTH",
"485 357 OFFCURVE",
"521 327 OFFCURVE",
"521 261 CURVE SMOOTH",
"521 250 OFFCURVE",
"520 237 OFFCURVE",
"518 224 CURVE SMOOTH",
"508 158 LINE SMOOTH",
"490 39 OFFCURVE",
"408 16 OFFCURVE",
"302 16 CURVE SMOOTH",
"225 16 OFFCURVE",
"134 18 OFFCURVE",
"81 22 CURVE",
"79 6 LINE",
"134 -2 OFFCURVE",
"233 -6 OFFCURVE",
"297 -6 CURVE SMOOTH"
);
}
);
width = 565;
}
);
leftKerningGroup = S;
note = "\012    GF Latin Plus glyph\012  ";
rightKerningGroup = S;
unicode = 0053;
userData = {
com.fontlab.hintData = {
hhints = (
{
position = -8;
width = 174;
},
{
position = 564;
width = 174;
}
);
};
com.typemytype.robofont.layerData = {
background = {
anchors = (
);
components = (
);
contours = (
{
points = (
{
segmentType = curve;
smooth = 0;
x = 646;
y = 26;
},
{
segmentType = line;
smooth = 0;
x = 670;
y = 177;
},
{
smooth = 0;
x = 709;
y = 173;
},
{
smooth = 0;
x = 824;
y = 166;
},
{
segmentType = curve;
smooth = 1;
x = 917;
y = 166;
},
{
smooth = 0;
x = 960;
y = 166;
},
{
smooth = 0;
x = 978;
y = 177;
},
{
segmentType = curve;
smooth = 0;
x = 983;
y = 207;
},
{
segmentType = line;
smooth = 0;
x = 985;
y = 223;
},
{
smooth = 0;
x = 990;
y = 252;
},
{
smooth = 0;
x = 983;
y = 267;
},
{
segmentType = curve;
smooth = 1;
x = 939;
y = 267;
},
{
segmentType = line;
smooth = 1;
x = 869;
y = 267;
},
{
smooth = 0;
x = 678;
y = 267;
},
{
smooth = 0;
x = 686;
y = 437;
},
{
segmentType = curve;
smooth = 1;
x = 692;
y = 484;
},
{
segmentType = line;
smooth = 0;
x = 703;
y = 568;
},
{
smooth = 0;
x = 723;
y = 713;
},
{
smooth = 0;
x = 822;
y = 735;
},
{
segmentType = curve;
smooth = 1;
x = 934;
y = 738;
},
{
smooth = 0;
x = 1082;
y = 742;
},
{
smooth = 0;
x = 1159;
y = 732;
},
{
segmentType = curve;
smooth = 0;
x = 1229;
y = 705;
},
{
segmentType = line;
smooth = 0;
x = 1205;
y = 554;
},
{
smooth = 0;
x = 1142;
y = 561;
},
{
smooth = 0;
x = 1042;
y = 564;
},
{
segmentType = curve;
smooth = 1;
x = 976;
y = 564;
},
{
smooth = 0;
x = 922;
y = 564;
},
{
smooth = 0;
x = 902;
y = 562;
},
{
segmentType = curve;
smooth = 1;
x = 895;
y = 520;
},
{
segmentType = line;
smooth = 1;
x = 893;
y = 509;
},
{
smooth = 0;
x = 888;
y = 478;
},
{
smooth = 0;
x = 892;
y = 461;
},
{
segmentType = curve;
smooth = 1;
x = 946;
y = 461;
},
{
segmentType = line;
smooth = 1;
x = 1020;
y = 461;
},
{
smooth = 0;
x = 1172;
y = 461;
},
{
smooth = 0;
x = 1190;
y = 329;
},
{
segmentType = curve;
smooth = 0;
x = 1180;
y = 249;
},
{
segmentType = line;
smooth = 0;
x = 1178;
y = 186;
},
{
smooth = 0;
x = 1171;
y = -2;
},
{
smooth = 0;
x = 1029;
y = -8;
},
{
segmentType = curve;
smooth = 1;
x = 930;
y = -8;
},
{
smooth = 0;
x = 785;
y = -8;
},
{
smooth = 0;
x = 741;
y = -8;
}
);
},
{
points = (
{
segmentType = line;
smooth = 1;
x = 116;
y = 497;
},
{
smooth = 0;
x = 90;
y = 338;
},
{
smooth = 0;
x = 162;
y = 275;
},
{
segmentType = curve;
smooth = 1;
x = 317;
y = 275;
},
{
segmentType = line;
smooth = 1;
x = 370;
y = 275;
},
{
smooth = 0;
x = 397;
y = 275;
},
{
smooth = 0;
x = 419;
y = 260;
},
{
segmentType = curve;
smooth = 1;
x = 415;
y = 231;
},
{
segmentType = line;
smooth = 1;
x = 413;
y = 219;
},
{
smooth = 0;
x = 407;
y = 181;
},
{
smooth = 0;
x = 372;
y = 168;
},
{
segmentType = curve;
smooth = 1;
x = 306;
y = 168;
},
{
smooth = 0;
x = 236;
y = 168;
},
{
smooth = 0;
x = 144;
y = 171;
},
{
segmentType = curve;
smooth = 0;
x = 78;
y = 177;
},
{
segmentType = line;
smooth = 0;
x = 54;
y = 23;
},
{
smooth = 0;
x = 120;
y = 5;
},
{
smooth = 0;
x = 200;
y = -6;
},
{
segmentType = curve;
smooth = 1;
x = 288;
y = -6;
},
{
smooth = 0;
x = 457;
y = -6;
},
{
smooth = 0;
x = 567;
y = 33;
},
{
segmentType = curve;
smooth = 1;
x = 597;
y = 224;
},
{
segmentType = line;
smooth = 1;
x = 603;
y = 257;
},
{
smooth = 0;
x = 621;
y = 372;
},
{
smooth = 0;
x = 564;
y = 459;
},
{
segmentType = curve;
smooth = 1;
x = 425;
y = 459;
},
{
segmentType = line;
smooth = 1;
x = 359;
y = 459;
},
{
smooth = 0;
x = 315;
y = 459;
},
{
smooth = 0;
x = 296;
y = 477;
},
{
segmentType = curve;
smooth = 1;
x = 302;
y = 510;
},
{
segmentType = line;
smooth = 1;
x = 303;
y = 520;
},
{
smooth = 0;
x = 311;
y = 566;
},
{
smooth = 0;
x = 351;
y = 575;
},
{
segmentType = curve;
smooth = 1;
x = 408;
y = 575;
},
{
smooth = 0;
x = 470;
y = 575;
},
{
smooth = 0;
x = 553;
y = 571;
},
{
segmentType = curve;
smooth = 0;
x = 615;
y = 566;
},
{
segmentType = line;
smooth = 0;
x = 639;
y = 720;
},
{
smooth = 0;
x = 582;
y = 734;
},
{
smooth = 0;
x = 505;
y = 749;
},
{
segmentType = curve;
smooth = 1;
x = 412;
y = 749;
},
{
smooth = 0;
x = 246;
y = 749;
},
{
smooth = 0;
x = 144;
y = 677;
},
{
segmentType = curve;
smooth = 1;
x = 121;
y = 530;
}
);
}
);
lib = {
};
name = S;
unicodes = (
);
width = 576;
};
};
};
},
{
glyphname = Germandbls;
layers = (
{
layerId = "FDCB0490-BEB2-4154-BC16-7BC1D55E5E84";
paths = (
{
closed = 1;
nodes = (
"249 0 LINE",
"332 522 LINE SMOOTH",
"336 548 OFFCURVE",
"355 569 OFFCURVE",
"396 569 CURVE SMOOTH",
"648 569 LINE",
"769 730 LINE",
"674.961 735.532 OFFCURVE",
"568.997 743 OFFCURVE",
"416 743 CURVE SMOOTH",
"284 743 OFFCURVE",
"163 683 OFFCURVE",
"137 519 CURVE SMOOTH",
"55 0 LINE"
);
},
{
closed = 1;
nodes = (
"627 -6 OFFCURVE",
"722 28 OFFCURVE",
"754 195 CURVE SMOOTH",
"762 236 OFFCURVE",
"765 261.825 OFFCURVE",
"765 276 CURVE SMOOTH",
"765 384.319 OFFCURVE",
"678.439 424 OFFCURVE",
"568 424 CURVE SMOOTH",
"399 424 LINE",
"375 270 LINE",
"508 270 LINE SMOOTH",
"548 270 OFFCURVE",
"563 257 OFFCURVE",
"563 234 CURVE SMOOTH",
"563 229 OFFCURVE",
"562 224 OFFCURVE",
"561 218 CURVE SMOOTH",
"555 180 OFFCURVE",
"528 168 OFFCURVE",
"475 168 CURVE SMOOTH",
"433 168 OFFCURVE",
"379 179 OFFCURVE",
"339 189 CURVE",
"311 15 LINE",
"358 2 OFFCURVE",
"424 -6 OFFCURVE",
"477 -6 CURVE SMOOTH"
);
},
{
closed = 1;
nodes = (
"745 579 LINE",
"769 730 LINE",
"529 574 LINE",
"399 424 LINE",
"565 376 LINE"
);
}
);
width = 757;
},
{
layerId = "DE62D6C8-A9BF-4A7E-9D02-9A707AFEE35E";
paths = (
{
closed = 1;
nodes = (
"112 0 LINE",
"207 602 LINE SMOOTH",
"219 677 OFFCURVE",
"264 710 OFFCURVE",
"326 710 CURVE SMOOTH",
"643 710 LINE",
"646 728 LINE",
"541 729 OFFCURVE",
"435 731 OFFCURVE",
"330 732 CURVE SMOOTH",
"257 733 OFFCURVE",
"198 697 OFFCURVE",
"183 602 CURVE SMOOTH",
"88 0 LINE"
);
},
{
closed = 1;
nodes = (
"453 -6 OFFCURVE",
"563 28 OFFCURVE",
"584 156 CURVE SMOOTH",
"595.77 236.036 OFFCURVE",
"597 248 OFFCURVE",
"597 259 CURVE SMOOTH",
"597 332 OFFCURVE",
"555 381 OFFCURVE",
"457 381 CURVE SMOOTH",
"338 381 LINE",
"335 357 LINE",
"454 357 LINE SMOOTH",
"539 357 OFFCURVE",
"573 322 OFFCURVE",
"573 259 CURVE SMOOTH",
"573 248 OFFCURVE",
"571.914 237.013 OFFCURVE",
"560 156 CURVE SMOOTH",
"541 39 OFFCURVE",
"449 16 OFFCURVE",
"348 16 CURVE SMOOTH",
"295 16 OFFCURVE",
"238 18 OFFCURVE",
"213 21 CURVE",
"211 5 LINE",
"237 1 OFFCURVE",
"316 -6 OFFCURVE",
"344 -6 CURVE SMOOTH"
);
},
{
closed = 1;
nodes = (
"365 381 LINE",
"643 710 LINE",
"646 728 LINE",
"616 710 LINE",
"338 381 LINE"
);
}
);
width = 629;
}
);
note = "\012    GF Latin Plus glyph\012  ";
unicode = 1E9E;
},
{
glyphname = Schwa;
layers = (
{
layerId = "FDCB0490-BEB2-4154-BC16-7BC1D55E5E84";
paths = (
{
closed = 1;
nodes = (
"482 -6 OFFCURVE",
"619 60 OFFCURVE",
"668 370 CURVE SMOOTH",
"675 418 OFFCURVE",
"679 460 OFFCURVE",
"679 497 CURVE SMOOTH",
"679 697 OFFCURVE",
"564 750 OFFCURVE",
"405 750 CURVE SMOOTH",
"307 750 OFFCURVE",
"233 735 OFFCURVE",
"186 718 CURVE",
"162 567 LINE",
"195 571 OFFCURVE",
"246 576 OFFCURVE",
"332 576 CURVE SMOOTH",
"430 576 OFFCURVE",
"486 552 OFFCURVE",
"486 470 CURVE SMOOTH",
"486 462 OFFCURVE",
"485 453 OFFCURVE",
"484 444 CURVE",
"105 444 LINE",
"86 324 LINE SMOOTH",
"81 290 OFFCURVE",
"78 259 OFFCURVE",
"78 230 CURVE SMOOTH",
"78 60 OFFCURVE",
"173 -6 OFFCURVE",
"315 -6 CURVE SMOOTH"
);
},
{
closed = 1;
nodes = (
"287.406 168 OFFCURVE",
"274 200 OFFCURVE",
"274 247 CURVE SMOOTH",
"274 261 OFFCURVE",
"275 274 OFFCURVE",
"278 290 CURVE",
"457 290 LINE",
"435 193 OFFCURVE",
"390 168 OFFCURVE",
"340 168 CURVE SMOOTH"
);
}
);
width = 644;
},
{
background = {
paths = (
{
closed = 1;
nodes = (
"579 364 CURVE SMOOTH",
"579 678 OFFCURVE",
"508 738 OFFCURVE",
"326 738 CURVE SMOOTH",
"276 738 OFFCURVE",
"189 730 OFFCURVE",
"122 718 CURVE",
"122 702 LINE",
"163 709 OFFCURVE",
"225 716 OFFCURVE",
"325 716 CURVE SMOOTH",
"490 716 OFFCURVE",
"555 666 OFFCURVE",
"555 364 CURVE SMOOTH",
"555 82 OFFCURVE",
"489 16 OFFCURVE",
"320 16 CURVE SMOOTH",
"244 16 OFFCURVE",
"153 25 OFFCURVE",
"122 30 CURVE",
"122 14 LINE",
"192 1 OFFCURVE",
"284 -6 OFFCURVE",
"318 -6 CURVE SMOOTH",
"508 -6 OFFCURVE",
"579 71 OFFCURVE"
);
}
);
};
layerId = "DE62D6C8-A9BF-4A7E-9D02-9A707AFEE35E";
paths = (
{
closed = 1;
nodes = (
"433 -6 OFFCURVE",
"532 70 OFFCURVE",
"580 370 CURVE SMOOTH",
"591 437 OFFCURVE",
"596 493 OFFCURVE",
"596 538 CURVE SMOOTH",
"596 702 OFFCURVE",
"524 738 OFFCURVE",
"378 738 CURVE SMOOTH",
"311 738 OFFCURVE",
"252 727 OFFCURVE",
"208 718 CURVE",
"205 702 LINE",
"235 706 OFFCURVE",
"282 716 OFFCURVE",
"359 716 CURVE SMOOTH",
"512 716 OFFCURVE",
"571 681 OFFCURVE",
"571 538 CURVE SMOOTH",
"571 492 OFFCURVE",
"565 435 OFFCURVE",
"554 364 CURVE",
"128 364 LINE",
"123 337 LINE SMOOTH",
"114 281 OFFCURVE",
"110 233 OFFCURVE",
"110 193 CURVE SMOOTH",
"110 50 OFFCURVE",
"165 -6 OFFCURVE",
"290 -6 CURVE SMOOTH"
);
},
{
closed = 1;
nodes = (
"179 16 OFFCURVE",
"133 65 OFFCURVE",
"133 191 CURVE SMOOTH",
"133 232 OFFCURVE",
"138 282 OFFCURVE",
"147 342 CURVE",
"549 342 LINE",
"498 84 OFFCURVE",
"425 16 OFFCURVE",
"291 16 CURVE SMOOTH"
);
}
);
width = 591;
}
);
note = "\012    GF Latin Plus glyph\012  ";
rightKerningGroup = O;
unicode = 018F;
},
{
glyphname = T;
layers = (
{
anchors = (
{
name = bottom;
position = "{278, -150}";
},
{
name = top;
position = "{430, 810}";
}
);
background = {
paths = (
{
closed = 1;
nodes = (
"108 558 LINE",
"136 732 LINE",
"704 732 LINE",
"676 558 LINE",
"486 558 LINE",
"398 0 LINE",
"204 0 LINE",
"292 558 LINE"
);
}
);
};
layerId = "FDCB0490-BEB2-4154-BC16-7BC1D55E5E84";
paths = (
{
closed = 1;
nodes = (
"398 0 LINE",
"488 569 LINE",
"672 569 LINE",
"700 743 LINE",
"138 743 LINE",
"110 569 LINE",
"294 569 LINE",
"204 0 LINE"
);
}
);
width = 612;
},
{
anchors = (
{
name = bottom;
position = "{267, -150}";
},
{
name = top;
position = "{419, 810}";
}
);
background = {
paths = (
{
closed = 1;
nodes = (
"142 708 LINE",
"146 732 LINE",
"684 732 LINE",
"680 708 LINE",
"420 708 LINE",
"308 0 LINE",
"284 0 LINE",
"396 708 LINE"
);
}
);
};
layerId = "DE62D6C8-A9BF-4A7E-9D02-9A707AFEE35E";
paths = (
{
closed = 1;
nodes = (
"308 0 LINE",
"420 710 LINE",
"674 710 LINE",
"678 732 LINE",
"146 732 LINE",
"142 710 LINE",
"396 710 LINE",
"284 0 LINE"
);
}
);
width = 602;
}
);
leftKerningGroup = T;
note = "\012    GF Latin Plus glyph\012  ";
rightKerningGroup = T;
unicode = 0054;
userData = {
com.fontlab.hintData = {
hhints = (
{
position = 0;
width = 21;
},
{
position = 558;
width = 174;
}
);
};
com.typemytype.robofont.layerData = {
background = {
anchors = (
);
components = (
);
contours = (
{
points = (
{
segmentType = line;
smooth = 0;
x = 108;
y = 558;
},
{
segmentType = line;
smooth = 0;
x = 136;
y = 732;
},
{
segmentType = line;
smooth = 0;
x = 704;
y = 732;
},
{
segmentType = line;
smooth = 0;
x = 676;
y = 558;
},
{
segmentType = line;
smooth = 0;
x = 486;
y = 558;
},
{
segmentType = line;
smooth = 0;
x = 398;
y = 0;
},
{
segmentType = line;
smooth = 0;
x = 204;
y = 0;
},
{
segmentType = line;
smooth = 0;
x = 292;
y = 558;
}
);
}
);
lib = {
};
name = T;
unicodes = (
);
width = 612;
};
};
};
},
{
glyphname = Tbar;
layers = (
{
background = {
paths = (
{
closed = 1;
nodes = (
"11 558 LINE",
"11 732 LINE",
"579 732 LINE",
"579 558 LINE",
"389 558 LINE",
"389 424 LINE",
"469 424 LINE",
"469 350 LINE",
"389 350 LINE",
"389 0 LINE",
"195 0 LINE",
"195 350 LINE",
"115 350 LINE",
"115 424 LINE",
"195 424 LINE",
"195 558 LINE"
);
}
);
};
components = (
{
name = T;
}
);
layerId = "FDCB0490-BEB2-4154-BC16-7BC1D55E5E84";
paths = (
{
closed = 1;
nodes = (
"611 333 LINE",
"626 427 LINE",
"111 427 LINE",
"96 333 LINE"
);
}
);
width = 600;
},
{
background = {
paths = (
{
closed = 1;
nodes = (
"47 708 LINE",
"47 732 LINE",
"565 732 LINE",
"565 708 LINE",
"315 708 LINE",
"315 424 LINE",
"465 424 LINE",
"465 410 LINE",
"315 410 LINE",
"315 0 LINE",
"291 0 LINE",
"291 410 LINE",
"161 410 LINE",
"161 424 LINE",
"291 424 LINE",
"291 708 LINE"
);
}
);
};
components = (
{
name = T;
}
);
layerId = "DE62D6C8-A9BF-4A7E-9D02-9A707AFEE35E";
paths = (
{
closed = 1;
nodes = (
"569 381 LINE",
"572 403 LINE",
"147 403 LINE",
"144 381 LINE"
);
}
);
width = 602;
}
);
note = "\012    GF Latin Plus glyph\012  ";
unicode = 0166;
userData = {
com.fontlab.hintData = {
hhints = (
{
position = 0;
width = 21;
},
{
position = 350;
width = 74;
},
{
position = 558;
width = 174;
}
);
vhints = (
{
position = 195;
width = 194;
}
);
};
com.typemytype.robofont.layerData = {
background = {
anchors = (
);
components = (
);
contours = (
{
points = (
{
segmentType = line;
smooth = 0;
x = 11;
y = 558;
},
{
segmentType = line;
smooth = 0;
x = 11;
y = 732;
},
{
segmentType = line;
smooth = 0;
x = 579;
y = 732;
},
{
segmentType = line;
smooth = 0;
x = 579;
y = 558;
},
{
segmentType = line;
smooth = 0;
x = 389;
y = 558;
},
{
segmentType = line;
smooth = 0;
x = 389;
y = 424;
},
{
segmentType = line;
smooth = 0;
x = 469;
y = 424;
},
{
segmentType = line;
smooth = 0;
x = 469;
y = 350;
},
{
segmentType = line;
smooth = 0;
x = 389;
y = 350;
},
{
segmentType = line;
smooth = 0;
x = 389;
y = 0;
},
{
segmentType = line;
smooth = 0;
x = 195;
y = 0;
},
{
segmentType = line;
smooth = 0;
x = 195;
y = 350;
},
{
segmentType = line;
smooth = 0;
x = 115;
y = 350;
},
{
segmentType = line;
smooth = 0;
x = 115;
y = 424;
},
{
segmentType = line;
smooth = 0;
x = 195;
y = 424;
},
{
segmentType = line;
smooth = 0;
x = 195;
y = 558;
}
);
}
);
lib = {
};
name = Tbar;
unicodes = (
);
width = 600;
};
};
};
},
{
glyphname = U;
layers = (
{
anchors = (
{
name = bottom;
position = "{320, -150}";
},
{
name = ogonek;
position = "{438, 0}";
},
{
name = top;
position = "{472, 810}";
}
);
background = {
paths = (
{
closed = 1;
nodes = (
"110 350 CURVE",
"172 732 LINE",
"366 732 LINE",
"301 320 LINE SMOOTH",
"286 226 OFFCURVE",
"279 169 OFFCURVE",
"374 169 CURVE SMOOTH",
"463 169 OFFCURVE",
"475 230 OFFCURVE",
"489 320 CURVE SMOOTH",
"554 732 LINE",
"749 732 LINE",
"689 290 LINE",
"638 -33 OFFCURVE",
"467 -5 OFFCURVE",
"346 -5 CURVE SMOOTH",
"210 -5 OFFCURVE",
"57 17 OFFCURVE"
);
}
);
};
layerId = "FDCB0490-BEB2-4154-BC16-7BC1D55E5E84";
paths = (
{
closed = 1;
nodes = (
"540 -6 OFFCURVE",
"647 39 OFFCURVE",
"687 290 CURVE SMOOTH",
"759 743 LINE",
"565 743 LINE",
"498 320 LINE SMOOTH",
"479 200 OFFCURVE",
"447 168 OFFCURVE",
"378 168 CURVE SMOOTH",
"313 168 OFFCURVE",
"291 195 OFFCURVE",
"291 245 CURVE SMOOTH",
"291 266 OFFCURVE",
"296 292 OFFCURVE",
"300 320 CURVE SMOOTH",
"367 743 LINE",
"173 743 LINE",
"110 350 LINE SMOOTH",
"103 306 OFFCURVE",
"97 263 OFFCURVE",
"97 228 CURVE SMOOTH",
"97 64 OFFCURVE",
"182 -6 OFFCURVE",
"350 -6 CURVE SMOOTH"
);
}
);
width = 696;
},
{
anchors = (
{
name = bottom;
position = "{297, -150}";
},
{
name = ogonek;
position = "{405, 0}";
},
{
name = top;
position = "{449, 810}";
}
);
background = {
paths = (
{
closed = 1;
nodes = (
"131 320 CURVE SMOOTH",
"196 732 LINE",
"220 732 LINE",
"155 320 LINE SMOOTH",
"108 21 OFFCURVE",
"203 19 OFFCURVE",
"339 19 CURVE SMOOTH",
"464 19 OFFCURVE",
"569 35 OFFCURVE",
"614 320 CURVE SMOOTH",
"679 732 LINE",
"703 732 LINE",
"638 320 LINE SMOOTH",
"587 -3 OFFCURVE",
"463 -5 OFFCURVE",
"341 -5 CURVE SMOOTH",
"205 -5 OFFCURVE",
"79 -9 OFFCURVE"
);
}
);
};
layerId = "DE62D6C8-A9BF-4A7E-9D02-9A707AFEE35E";
paths = (
{
closed = 1;
nodes = (
"488 -6 OFFCURVE",
"593.305 36.705 OFFCURVE",
"638 320 CURVE SMOOTH",
"703 732 LINE",
"679 732 LINE",
"614 320 LINE SMOOTH",
"571.688 51.804 OFFCURVE",
"479 16 OFFCURVE",
"331 16 CURVE SMOOTH",
"209 16 OFFCURVE",
"142 56 OFFCURVE",
"142 185 CURVE SMOOTH",
"142 220 OFFCURVE",
"147 271 OFFCURVE",
"155 320 CURVE SMOOTH",
"220 732 LINE",
"196 732 LINE",
"131 320 LINE SMOOTH",
"123 272 OFFCURVE",
"119 221 OFFCURVE",
"119 186 CURVE SMOOTH",
"119 43 OFFCURVE",
"195 -6 OFFCURVE",
"333 -6 CURVE SMOOTH"
);
}
);
width = 667;
}
);
leftKerningGroup = U;
note = "\012    GF Latin Plus glyph\012  ";
rightKerningGroup = U;
unicode = 0055;
userData = {
com.fontlab.hintData = {
hhints = (
{
position = -5;
width = 174;
},
{
position = 712;
width = 20;
}
);
};
com.typemytype.robofont.layerData = {
background = {
anchors = (
);
components = (
);
contours = (
{
points = (
{
segmentType = curve;
smooth = 0;
x = 110;
y = 350;
},
{
segmentType = line;
smooth = 0;
x = 172;
y = 732;
},
{
segmentType = line;
smooth = 0;
x = 366;
y = 732;
},
{
segmentType = line;
smooth = 1;
x = 301;
y = 320;
},
{
smooth = 0;
x = 286;
y = 226;
},
{
smooth = 0;
x = 279;
y = 169;
},
{
segmentType = curve;
smooth = 1;
x = 374;
y = 169;
},
{
smooth = 0;
x = 463;
y = 169;
},
{
smooth = 0;
x = 475;
y = 230;
},
{
segmentType = curve;
smooth = 1;
x = 489;
y = 320;
},
{
segmentType = line;
smooth = 0;
x = 554;
y = 732;
},
{
segmentType = line;
smooth = 0;
x = 749;
y = 732;
},
{
segmentType = line;
smooth = 0;
x = 689;
y = 290;
},
{
smooth = 0;
x = 638;
y = -33;
},
{
smooth = 0;
x = 467;
y = -5;
},
{
segmentType = curve;
smooth = 1;
x = 346;
y = -5;
},
{
smooth = 0;
x = 210;
y = -5;
},
{
smooth = 0;
x = 57;
y = 17;
}
);
}
);
lib = {
};
name = U;
unicodes = (
);
width = 696;
};
};
};
},
{
glyphname = Uhorn;
layers = (
{
anchors = (
{
name = bottom;
position = "{346, -150}";
},
{
name = top;
position = "{456, 810}";
}
);
components = (
{
name = U;
}
);
layerId = "FDCB0490-BEB2-4154-BC16-7BC1D55E5E84";
paths = (
{
closed = 1;
nodes = (
"659 639 LINE SMOOTH",
"760 639 OFFCURVE",
"833 717 OFFCURVE",
"855 851 CURVE",
"723 851 LINE",
"710 770 OFFCURVE",
"682 743 OFFCURVE",
"638 743 CURVE SMOOTH",
"579 743 LINE",
"563 639 LINE"
);
}
);
width = 692;
},
{
anchors = (
{
name = bottom;
position = "{304, -150}";
},
{
name = top;
position = "{454, 810}";
}
);
components = (
{
name = U;
}
);
layerId = "DE62D6C8-A9BF-4A7E-9D02-9A707AFEE35E";
paths = (
{
closed = 1;
nodes = (
"698 716 LINE SMOOTH",
"748 716 OFFCURVE",
"808 740 OFFCURVE",
"825 848 CURVE",
"803 848 LINE",
"789 761 OFFCURVE",
"749 732 OFFCURVE",
"701 732 CURVE SMOOTH",
"684 732 LINE",
"681 716 LINE"
);
}
);
width = 667;
}
);
leftKerningGroup = U;
note = "\012    GF Latin Plus glyph\012  ";
rightKerningGroup = U;
unicode = 01AF;
},
{
glyphname = V;
layers = (
{
background = {
paths = (
{
closed = 1;
nodes = (
"132 743 LINE",
"234 0 LINE",
"476 0 LINE",
"814 743 LINE",
"615 743 LINE",
"389 211 LINE",
"333 743 LINE"
);
}
);
};
layerId = "FDCB0490-BEB2-4154-BC16-7BC1D55E5E84";
paths = (
{
closed = 1;
nodes = (
"476 0 LINE",
"814 743 LINE",
"615 743 LINE",
"389 211 LINE",
"333 743 LINE",
"132 743 LINE",
"234 0 LINE"
);
}
);
width = 710;
},
{
background = {
paths = (
{
closed = 1;
nodes = (
"161 732 LINE",
"186 732 LINE",
"327 26 LINE",
"704 732 LINE",
"731 732 LINE",
"341 0 LINE",
"307 0 LINE"
);
}
);
};
layerId = "DE62D6C8-A9BF-4A7E-9D02-9A707AFEE35E";
paths = (
{
closed = 1;
nodes = (
"341 0 LINE",
"731 732 LINE",
"706 732 LINE",
"328 26 LINE",
"186 732 LINE",
"161 732 LINE",
"307 0 LINE"
);
}
);
width = 660;
}
);
leftKerningGroup = V;
note = "\012    GF Latin Plus glyph\012  ";
rightKerningGroup = V;
unicode = 0056;
userData = {
com.fontlab.hintData = {
hhints = (
{
position = 0;
width = 21;
},
{
position = 712;
width = 20;
}
);
};
com.typemytype.robofont.layerData = {
background = {
anchors = (
);
components = (
);
contours = (
{
points = (
{
segmentType = line;
smooth = 0;
x = 132;
y = 743;
},
{
segmentType = line;
smooth = 0;
x = 234;
y = 0;
},
{
segmentType = line;
smooth = 0;
x = 476;
y = 0;
},
{
segmentType = line;
smooth = 0;
x = 814;
y = 743;
},
{
segmentType = line;
smooth = 0;
x = 615;
y = 743;
},
{
segmentType = line;
smooth = 0;
x = 389;
y = 211;
},
{
segmentType = line;
smooth = 0;
x = 333;
y = 743;
}
);
}
);
lib = {
};
name = V;
unicodes = (
);
width = 710;
};
};
};
},
{
glyphname = W;
layers = (
{
anchors = (
{
name = top;
position = "{649, 810}";
}
);
background = {
paths = (
{
closed = 1;
nodes = (
"133 743 LINE",
"185 0 LINE",
"379 0 LINE",
"578 454 LINE",
"632 0 LINE",
"826 0 LINE",
"1114 743 LINE",
"913 743 LINE",
"749 291 LINE",
"711 743 LINE",
"537 743 LINE",
"354 291 LINE",
"334 743 LINE"
);
}
);
};
layerId = "FDCB0490-BEB2-4154-BC16-7BC1D55E5E84";
paths = (
{
closed = 1;
nodes = (
"379 0 LINE",
"578 454 LINE",
"632 0 LINE",
"826 0 LINE",
"1114 743 LINE",
"913 743 LINE",
"749 291 LINE",
"711 743 LINE",
"537 743 LINE",
"354 291 LINE",
"334 743 LINE",
"133 743 LINE",
"185 0 LINE"
);
}
);
width = 1050;
},
{
anchors = (
{
name = top;
position = "{619, 810}";
}
);
background = {
paths = (
{
closed = 1;
nodes = (
"150 732 LINE",
"174 732 LINE",
"316 25 LINE",
"674 732 LINE",
"700 732 LINE",
"550 431 LINE",
"647 24 LINE",
"1006 732 LINE",
"1032 732 LINE",
"662 0 LINE",
"628 0 LINE",
"532 396 LINE",
"330 0 LINE",
"296 0 LINE"
);
},
{
closed = 1;
nodes = (
"161 732 LINE",
"307 0 LINE",
"341 0 LINE",
"731 732 LINE",
"706 732 LINE",
"328 26 LINE",
"186 732 LINE"
);
},
{
closed = 1;
nodes = (
"481 732 LINE",
"627 0 LINE",
"661 0 LINE",
"1051 732 LINE",
"1026 732 LINE",
"648 26 LINE",
"506 732 LINE"
);
}
);
};
layerId = "DE62D6C8-A9BF-4A7E-9D02-9A707AFEE35E";
paths = (
{
closed = 1;
nodes = (
"311 0 LINE",
"601 702 LINE",
"657 0 LINE",
"691 0 LINE",
"1051 732 LINE",
"1025 732 LINE",
"678 26 LINE",
"622 732 LINE",
"588 732 LINE",
"297 25 LINE",
"186 732 LINE",
"161 732 LINE",
"277 0 LINE"
);
}
);
width = 980;
}
);
leftKerningGroup = V;
note = "\012    GF Latin Plus glyph\012  ";
rightKerningGroup = V;
unicode = 0057;
userData = {
com.fontlab.hintData = {
hhints = (
{
position = 0;
width = 21;
},
{
position = 712;
width = 20;
}
);
};
com.typemytype.robofont.layerData = {
background = {
anchors = (
);
components = (
);
contours = (
{
points = (
{
segmentType = line;
smooth = 0;
x = 133;
y = 743;
},
{
segmentType = line;
smooth = 0;
x = 185;
y = 0;
},
{
segmentType = line;
smooth = 0;
x = 379;
y = 0;
},
{
segmentType = line;
smooth = 0;
x = 578;
y = 454;
},
{
segmentType = line;
smooth = 0;
x = 632;
y = 0;
},
{
segmentType = line;
smooth = 0;
x = 826;
y = 0;
},
{
segmentType = line;
smooth = 0;
x = 1114;
y = 743;
},
{
segmentType = line;
smooth = 0;
x = 913;
y = 743;
},
{
segmentType = line;
smooth = 0;
x = 749;
y = 291;
},
{
segmentType = line;
smooth = 0;
x = 711;
y = 743;
},
{
segmentType = line;
smooth = 0;
x = 537;
y = 743;
},
{
segmentType = line;
smooth = 0;
x = 354;
y = 291;
},
{
segmentType = line;
smooth = 0;
x = 334;
y = 743;
}
);
}
);
lib = {
};
name = W;
unicodes = (
);
width = 1050;
};
};
};
},
{
glyphname = X;
layers = (
{
anchors = (
{
name = bottom;
position = "{310, -150}";
},
{
name = top;
position = "{462, 810}";
}
);
background = {
paths = (
{
closed = 1;
nodes = (
"8 0 LINE",
"222 0 LINE",
"401 254 LINE",
"327 417 LINE"
);
},
{
closed = 1;
nodes = (
"403 478 LINE",
"476 318 LINE",
"803 743 LINE",
"589 743 LINE"
);
},
{
closed = 1;
nodes = (
"123 743 LINE",
"466 0 LINE",
"680 0 LINE",
"337 743 LINE"
);
}
);
};
layerId = "FDCB0490-BEB2-4154-BC16-7BC1D55E5E84";
paths = (
{
closed = 1;
nodes = (
"680 0 LINE",
"478 428 LINE",
"333 743 LINE",
"122 743 LINE",
"331 305 LINE",
"470 0 LINE"
);
},
{
closed = 1;
nodes = (
"222 0 LINE",
"401 254 LINE",
"327 417 LINE",
"8 0 LINE"
);
},
{
closed = 1;
nodes = (
"803 743 LINE",
"589 743 LINE",
"402 477 LINE",
"475 316 LINE"
);
}
);
width = 680;
},
{
anchors = (
{
name = bottom;
position = "{275, -150}";
},
{
name = top;
position = "{427, 810}";
}
);
background = {
paths = (
{
closed = 1;
nodes = (
"48 0 LINE",
"323 365 LINE",
"161 732 LINE",
"189 732 LINE",
"341 388 LINE",
"606 732 LINE",
"637 732 LINE",
"353 363 LINE",
"516 0 LINE",
"488 0 LINE",
"336 339 LINE",
"79 0 LINE"
);
}
);
};
layerId = "DE62D6C8-A9BF-4A7E-9D02-9A707AFEE35E";
paths = (
{
closed = 1;
nodes = (
"536 0 LINE",
"357 374 LINE",
"189 732 LINE",
"161 732 LINE",
"340 354 LINE",
"508 0 LINE"
);
},
{
closed = 1;
nodes = (
"79 0 LINE",
"349 346 LINE",
"337 375 LINE",
"48 0 LINE"
);
},
{
closed = 1;
nodes = (
"657 732 LINE",
"626 732 LINE",
"347 379 LINE",
"359 354 LINE"
);
}
);
width = 586;
}
);
leftKerningGroup = X;
note = "\012    GF Latin Plus glyph\012  ";
rightKerningGroup = K;
unicode = 0058;
userData = {
com.fontlab.hintData = {
hhints = (
{
position = 0;
width = 21;
},
{
position = 712;
width = 20;
}
);
};
com.typemytype.robofont.layerData = {
background = {
anchors = (
);
components = (
);
contours = (
{
points = (
{
segmentType = line;
smooth = 0;
x = 8;
y = 0;
},
{
segmentType = line;
smooth = 0;
x = 222;
y = 0;
},
{
segmentType = line;
smooth = 0;
x = 401;
y = 254;
},
{
segmentType = line;
smooth = 0;
x = 327;
y = 417;
}
);
},
{
points = (
{
segmentType = line;
smooth = 0;
x = 403;
y = 478;
},
{
segmentType = line;
smooth = 0;
x = 476;
y = 318;
},
{
segmentType = line;
smooth = 0;
x = 803;
y = 743;
},
{
segmentType = line;
smooth = 0;
x = 589;
y = 743;
}
);
},
{
points = (
{
segmentType = line;
smooth = 0;
x = 123;
y = 743;
},
{
segmentType = line;
smooth = 0;
x = 466;
y = 0;
},
{
segmentType = line;
smooth = 0;
x = 680;
y = 0;
},
{
segmentType = line;
smooth = 0;
x = 337;
y = 743;
}
);
}
);
lib = {
};
name = X;
unicodes = (
);
width = 680;
};
};
};
},
{
glyphname = Y;
layers = (
{
anchors = (
{
name = bottom;
position = "{308, -150}";
},
{
name = top;
position = "{460, 810}";
}
);
background = {
paths = (
{
closed = 1;
nodes = (
"128 732 LINE",
"339 732 LINE",
"387 408 LINE",
"549 732 LINE",
"768 732 LINE",
"453 200 LINE",
"421 0 LINE",
"227 0 LINE",
"259 200 LINE"
);
}
);
};
layerId = "FDCB0490-BEB2-4154-BC16-7BC1D55E5E84";
paths = (
{
closed = 1;
nodes = (
"421 0 LINE",
"453 200 LINE",
"768 743 LINE",
"549 743 LINE",
"388 408 LINE",
"339 743 LINE",
"128 743 LINE",
"259 200 LINE",
"227 0 LINE"
);
}
);
width = 660;
},
{
anchors = (
{
name = bottom;
position = "{255, -150}";
},
{
name = top;
position = "{407, 810}";
}
);
background = {
paths = (
{
closed = 1;
nodes = (
"146 732 LINE",
"173 732 LINE",
"329 292 LINE",
"647 732 LINE",
"676 732 LINE",
"338 260 LINE",
"297 0 LINE",
"273 0 LINE",
"314 260 LINE"
);
}
);
};
layerId = "DE62D6C8-A9BF-4A7E-9D02-9A707AFEE35E";
paths = (
{
closed = 1;
nodes = (
"297 0 LINE",
"338 260 LINE",
"676 732 LINE",
"647 732 LINE",
"329 292 LINE",
"173 732 LINE",
"146 732 LINE",
"314 260 LINE",
"273 0 LINE"
);
}
);
width = 590;
}
);
leftKerningGroup = Y;
note = "\012    GF Latin Plus glyph\012  ";
rightKerningGroup = Y;
unicode = 0059;
userData = {
com.fontlab.hintData = {
hhints = (
{
position = 0;
width = 21;
},
{
position = 712;
width = 20;
}
);
};
com.typemytype.robofont.layerData = {
background = {
anchors = (
);
components = (
);
contours = (
{
points = (
{
segmentType = line;
smooth = 0;
x = 128;
y = 732;
},
{
segmentType = line;
smooth = 0;
x = 339;
y = 732;
},
{
segmentType = line;
smooth = 0;
x = 387;
y = 408;
},
{
segmentType = line;
smooth = 0;
x = 549;
y = 732;
},
{
segmentType = line;
smooth = 0;
x = 768;
y = 732;
},
{
segmentType = line;
smooth = 0;
x = 453;
y = 200;
},
{
segmentType = line;
smooth = 0;
x = 421;
y = 0;
},
{
segmentType = line;
smooth = 0;
x = 227;
y = 0;
},
{
segmentType = line;
smooth = 0;
x = 259;
y = 200;
}
);
}
);
lib = {
};
name = Y;
unicodes = (
);
width = 660;
};
};
};
},
{
glyphname = Z;
layers = (
{
anchors = (
{
name = bottom;
position = "{268, -150}";
},
{
name = top;
position = "{420, 810}";
}
);
background = {
paths = (
{
closed = 1;
nodes = (
"30 0 LINE",
"58 174 LINE",
"399 558 LINE",
"118 558 LINE",
"146 732 LINE",
"659 732 LINE",
"631 558 LINE",
"309 174 LINE",
"571 174 LINE",
"543 0 LINE"
);
}
);
};
layerId = "FDCB0490-BEB2-4154-BC16-7BC1D55E5E84";
paths = (
{
closed = 1;
nodes = (
"543 0 LINE",
"571 174 LINE",
"281 174 LINE",
"625 579 LINE",
"651 743 LINE",
"148 743 LINE",
"120 569 LINE",
"401 569 LINE",
"56 164 LINE",
"30 0 LINE"
);
}
);
width = 573;
},
{
anchors = (
{
name = bottom;
position = "{235, -150}";
},
{
name = top;
position = "{387, 810}";
}
);
background = {
paths = (
{
closed = 1;
nodes = (
"45 0 LINE",
"49 24 LINE",
"588 708 LINE",
"157 708 LINE",
"161 732 LINE",
"624 732 LINE",
"620 708 LINE",
"81 24 LINE",
"512 24 LINE",
"508 0 LINE"
);
}
);
};
layerId = "DE62D6C8-A9BF-4A7E-9D02-9A707AFEE35E";
paths = (
{
closed = 1;
nodes = (
"508 0 LINE",
"511 22 LINE",
"76 22 LINE",
"610 710 LINE",
"614 732 LINE",
"161 732 LINE",
"157 710 LINE",
"582 710 LINE",
"48 22 LINE",
"45 0 LINE"
);
}
);
width = 553;
}
);
leftKerningGroup = Z;
note = "\012    GF Latin Plus glyph\012  ";
unicode = 005A;
userData = {
com.fontlab.hintData = {
hhints = (
{
position = 0;
width = 174;
},
{
position = 558;
width = 174;
}
);
};
com.typemytype.robofont.layerData = {
background = {
anchors = (
);
components = (
);
contours = (
{
points = (
{
segmentType = line;
smooth = 0;
x = 30;
y = 0;
},
{
segmentType = line;
smooth = 0;
x = 58;
y = 174;
},
{
segmentType = line;
smooth = 0;
x = 399;
y = 558;
},
{
segmentType = line;
smooth = 0;
x = 118;
y = 558;
},
{
segmentType = line;
smooth = 0;
x = 146;
y = 732;
},
{
segmentType = line;
smooth = 0;
x = 659;
y = 732;
},
{
segmentType = line;
smooth = 0;
x = 631;
y = 558;
},
{
segmentType = line;
smooth = 0;
x = 309;
y = 174;
},
{
segmentType = line;
smooth = 0;
x = 571;
y = 174;
},
{
segmentType = line;
smooth = 0;
x = 543;
y = 0;
}
);
}
);
lib = {
};
name = Z;
unicodes = (
);
width = 573;
};
};
};
},
{
glyphname = M.salt;
layers = (
{
anchors = (
{
name = bottom;
position = "{423, -150}";
},
{
name = top;
position = "{575, 810}";
}
);
background = {
components = (
{
name = M;
}
);
paths = (
{
closed = 1;
nodes = (
"-969 0 LINE",
"-940 600 LINE SMOOTH",
"-931 782 OFFCURVE",
"-569 782 OFFCURVE",
"-569 578 CURVE SMOOTH",
"-569 340 LINE SMOOTH",
"-569 320 OFFCURVE",
"-538 324 OFFCURVE",
"-538 340 CURVE SMOOTH",
"-538 582 LINE SMOOTH",
"-538 782 OFFCURVE",
"-169 781 OFFCURVE",
"-159 612 CURVE SMOOTH",
"-124 0 LINE",
"-320 0 LINE",
"-339 498 LINE SMOOTH",
"-340 515 OFFCURVE",
"-365 508 OFFCURVE",
"-365 492 CURVE SMOOTH",
"-368 270 LINE",
"-380 118 OFFCURVE",
"-721 110 OFFCURVE",
"-732 273 CURVE",
"-736 503 LINE SMOOTH",
"-736 520 OFFCURVE",
"-761 513 OFFCURVE",
"-762 496 CURVE SMOOTH",
"-776 0 LINE"
);
}
);
};
layerId = "FDCB0490-BEB2-4154-BC16-7BC1D55E5E84";
paths = (
{
closed = 1;
nodes = (
"222 0 LINE",
"333 541 LINE SMOOTH",
"337 561 OFFCURVE",
"343 566 OFFCURVE",
"352 566 CURVE SMOOTH",
"359.059 566 OFFCURVE",
"361 560 OFFCURVE",
"361 548 CURVE SMOOTH",
"357 253 LINE SMOOTH",
"356 177 OFFCURVE",
"402.882 127 OFFCURVE",
"477 127 CURVE SMOOTH",
"541 127 OFFCURVE",
"609 157 OFFCURVE",
"638 253 CURVE SMOOTH",
"728 546 LINE SMOOTH",
"734 563 OFFCURVE",
"739 567 OFFCURVE",
"745 567 CURVE SMOOTH",
"751 567 OFFCURVE",
"755 564 OFFCURVE",
"755 554 CURVE SMOOTH",
"755 551 OFFCURVE",
"755 549 OFFCURVE",
"754 546 CURVE SMOOTH",
"693 0 LINE",
"880 0 LINE",
"942 593 LINE SMOOTH",
"943 603 OFFCURVE",
"944 613 OFFCURVE",
"944 623 CURVE SMOOTH",
"944 729 OFFCURVE",
"875 759 OFFCURVE",
"798 759 CURVE SMOOTH",
"713 759 OFFCURVE",
"639 729 OFFCURVE",
"601 594 CURVE SMOOTH",
"533 355 LINE SMOOTH",
"528 337 OFFCURVE",
"520 331 OFFCURVE",
"511 331 CURVE SMOOTH",
"503 331 OFFCURVE",
"497 336 OFFCURVE",
"497 355 CURVE SMOOTH",
"503 594 LINE SMOOTH",
"506 697 OFFCURVE",
"459 760 OFFCURVE",
"359 760 CURVE SMOOTH",
"275 760 OFFCURVE",
"186 723 OFFCURVE",
"159 591 CURVE SMOOTH",
"35 0 LINE"
);
}
);
width = 906;
},
{
anchors = (
{
name = bottom;
position = "{374, -150}";
},
{
name = top;
position = "{526, 810}";
}
);
background = {
components = (
{
name = M;
}
);
};
layerId = "DE62D6C8-A9BF-4A7E-9D02-9A707AFEE35E";
paths = (
{
closed = 1;
nodes = (
"91 0 LINE",
"248 662 LINE SMOOTH",
"258 704 OFFCURVE",
"281 717 OFFCURVE",
"304 717 CURVE SMOOTH",
"322 717 OFFCURVE",
"337 702 OFFCURVE",
"341 672 CURVE SMOOTH",
"398 263 LINE SMOOTH",
"403 231 OFFCURVE",
"420 215 OFFCURVE",
"446 215 CURVE SMOOTH",
"473 215 OFFCURVE",
"497 232 OFFCURVE",
"510 263 CURVE SMOOTH",
"684 673 LINE SMOOTH",
"696 701 OFFCURVE",
"713 717 OFFCURVE",
"728 717 CURVE SMOOTH",
"742 717 OFFCURVE",
"754 709 OFFCURVE",
"754 670 CURVE SMOOTH",
"754 667 OFFCURVE",
"754 665 OFFCURVE",
"754 662 CURVE SMOOTH",
"705 0 LINE",
"729 0 LINE",
"778 654 LINE SMOOTH",
"778 659 OFFCURVE",
"778 664 OFFCURVE",
"778 669 CURVE SMOOTH",
"778 725 OFFCURVE",
"762 739 OFFCURVE",
"730 739 CURVE SMOOTH",
"702 739 OFFCURVE",
"678 720 OFFCURVE",
"662 681 CURVE SMOOTH",
"488 270 LINE SMOOTH",
"480 250 OFFCURVE",
"466 240 OFFCURVE",
"450 240 CURVE SMOOTH",
"435 240 OFFCURVE",
"425 249 OFFCURVE",
"422 270 CURVE SMOOTH",
"365 680 LINE SMOOTH",
"359 720 OFFCURVE",
"341 739 OFFCURVE",
"309 739 CURVE SMOOTH",
"271 739 OFFCURVE",
"238 717 OFFCURVE",
"223 652 CURVE SMOOTH",
"68 0 LINE"
);
}
);
width = 809;
}
);
userData = {
com.fontlab.hintData = {
hhints = (
{
position = 0;
width = 21;
}
);
vhints = (
{
position = 31;
width = 193;
},
{
position = 268;
width = 163;
},
{
position = 462;
width = 170;
},
{
position = 680;
width = 196;
}
);
};
com.typemytype.robofont.layerData = {
background = {
anchors = (
);
components = (
{
baseGlyph = M;
transformation = (
1,
0,
0,
1,
0,
0
);
}
);
contours = (
{
points = (
{
segmentType = line;
smooth = 0;
x = -969;
y = 0;
},
{
segmentType = line;
smooth = 1;
x = -940;
y = 600;
},
{
smooth = 0;
x = -931;
y = 782;
},
{
smooth = 0;
x = -569;
y = 782;
},
{
segmentType = curve;
smooth = 1;
x = -569;
y = 578;
},
{
segmentType = line;
smooth = 1;
x = -569;
y = 340;
},
{
smooth = 0;
x = -569;
y = 320;
},
{
smooth = 0;
x = -538;
y = 324;
},
{
segmentType = curve;
smooth = 1;
x = -538;
y = 340;
},
{
segmentType = line;
smooth = 1;
x = -538;
y = 582;
},
{
smooth = 0;
x = -538;
y = 782;
},
{
smooth = 0;
x = -169;
y = 781;
},
{
segmentType = curve;
smooth = 1;
x = -159;
y = 612;
},
{
segmentType = line;
smooth = 0;
x = -124;
y = 0;
},
{
segmentType = line;
smooth = 0;
x = -320;
y = 0;
},
{
segmentType = line;
smooth = 1;
x = -339;
y = 498;
},
{
smooth = 0;
x = -340;
y = 515;
},
{
smooth = 0;
x = -365;
y = 508;
},
{
segmentType = curve;
smooth = 1;
x = -365;
y = 492;
},
{
segmentType = line;
smooth = 0;
x = -368;
y = 270;
},
{
smooth = 0;
x = -380;
y = 118;
},
{
smooth = 0;
x = -721;
y = 110;
},
{
segmentType = curve;
smooth = 0;
x = -732;
y = 273;
},
{
segmentType = line;
smooth = 1;
x = -736;
y = 503;
},
{
smooth = 0;
x = -736;
y = 520;
},
{
smooth = 0;
x = -761;
y = 513;
},
{
segmentType = curve;
smooth = 1;
x = -762;
y = 496;
},
{
segmentType = line;
smooth = 0;
x = -776;
y = 0;
}
);
}
);
lib = {
};
name = M.salt;
unicodes = (
);
width = 906;
};
};
};
},
{
glyphname = N.salt;
layers = (
{
anchors = (
{
name = bottom;
position = "{407, -150}";
},
{
name = top;
position = "{579, 810}";
}
);
background = {
components = (
{
name = N;
}
);
paths = (
{
closed = 1;
nodes = (
"745 0 LINE",
"745 569 LINE SMOOTH",
"745 796 OFFCURVE",
"1128 794 OFFCURVE",
"1149 593 CURVE SMOOTH",
"1192 182 LINE SMOOTH",
"1194 162 OFFCURVE",
"1216 170 OFFCURVE",
"1216 185 CURVE SMOOTH",
"1216 732 LINE",
"1410 732 LINE",
"1410 165 LINE SMOOTH",
"1410 -47 OFFCURVE",
"1031 -73 OFFCURVE",
"1008 153 CURVE SMOOTH",
"965 569 LINE SMOOTH",
"963 585 OFFCURVE",
"940 579 OFFCURVE",
"940 562 CURVE SMOOTH",
"940 0 LINE"
);
}
);
};
layerId = "FDCB0490-BEB2-4154-BC16-7BC1D55E5E84";
paths = (
{
closed = 1;
nodes = (
"693 -6 OFFCURVE",
"777 38 OFFCURVE",
"799 175 CURVE SMOOTH",
"889 743 LINE",
"695 743 LINE",
"609 202 LINE SMOOTH",
"607 190 OFFCURVE",
"603 188 OFFCURVE",
"598 188 CURVE SMOOTH",
"594 188 OFFCURVE",
"591 191 OFFCURVE",
"590 199 CURVE SMOOTH",
"530 583 LINE SMOOTH",
"516 677 OFFCURVE",
"476 749 OFFCURVE",
"361 749 CURVE SMOOTH",
"249 749 OFFCURVE",
"166 702 OFFCURVE",
"144 559 CURVE SMOOTH",
"55 0 LINE",
"249 0 LINE",
"334 539 LINE SMOOTH",
"337 554 OFFCURVE",
"343 555 OFFCURVE",
"347 555 CURVE SMOOTH",
"352 555 OFFCURVE",
"354 552 OFFCURVE",
"355 546 CURVE SMOOTH",
"417 153 LINE SMOOTH",
"434 49 OFFCURVE",
"481 -6 OFFCURVE",
"581 -6 CURVE SMOOTH"
);
}
);
width = 826;
},
{
anchors = (
{
name = bottom;
position = "{333, -150}";
},
{
name = top;
position = "{485, 810}";
}
);
background = {
paths = (
{
closed = 1;
nodes = (
"108 0 LINE",
"108 652 LINE SMOOTH",
"108 754 OFFCURVE",
"236 769 OFFCURVE",
"267 680 CURVE SMOOTH",
"484 59 LINE SMOOTH",
"508 -10 OFFCURVE",
"597 12 OFFCURVE",
"599 77 CURVE",
"599 732 LINE",
"623 732 LINE",
"623 79 LINE SMOOTH",
"623 -16 OFFCURVE",
"493 -42 OFFCURVE",
"461 51 CURVE SMOOTH",
"244 672 LINE SMOOTH",
"222 735 OFFCURVE",
"132 725 OFFCURVE",
"132 650 CURVE SMOOTH",
"132 0 LINE"
);
}
);
};
layerId = "DE62D6C8-A9BF-4A7E-9D02-9A707AFEE35E";
paths = (
{
closed = 1;
nodes = (
"585 -6 OFFCURVE",
"625 14 OFFCURVE",
"636 79 CURVE SMOOTH",
"739 732 LINE",
"715 732 LINE",
"611 77 LINE SMOOTH",
"604 29 OFFCURVE",
"576 16 OFFCURVE",
"547 16 CURVE SMOOTH",
"515 16 OFFCURVE",
"500 30 OFFCURVE",
"494 59 CURVE SMOOTH",
"372 680 LINE SMOOTH",
"364 720 OFFCURVE",
"344 739 OFFCURVE",
"305 739 CURVE SMOOTH",
"263 739 OFFCURVE",
"222 719 OFFCURVE",
"211 652 CURVE SMOOTH",
"108 0 LINE",
"132 0 LINE",
"235 650 LINE SMOOTH",
"243 702 OFFCURVE",
"269 717 OFFCURVE",
"303 717 CURVE SMOOTH",
"329 717 OFFCURVE",
"344 700 OFFCURVE",
"349 672 CURVE SMOOTH",
"472 51 LINE SMOOTH",
"480 11 OFFCURVE",
"502 -6 OFFCURVE",
"542 -6 CURVE SMOOTH"
);
}
);
width = 691;
}
);
userData = {
com.fontlab.hintData = {
hhints = (
{
position = 0;
width = 21;
},
{
position = 712;
width = 20;
}
);
vhints = (
{
position = 45;
width = 195;
},
{
position = 516;
width = 194;
}
);
};
com.typemytype.robofont.layerData = {
background = {
anchors = (
);
components = (
{
baseGlyph = N;
transformation = (
1,
0,
0,
1,
0,
0
);
}
);
contours = (
{
points = (
{
segmentType = line;
smooth = 0;
x = 745;
y = 0;
},
{
segmentType = line;
smooth = 1;
x = 745;
y = 569;
},
{
smooth = 0;
x = 745;
y = 796;
},
{
smooth = 0;
x = 1128;
y = 794;
},
{
segmentType = curve;
smooth = 1;
x = 1149;
y = 593;
},
{
segmentType = line;
smooth = 1;
x = 1192;
y = 182;
},
{
smooth = 0;
x = 1194;
y = 162;
},
{
smooth = 0;
x = 1216;
y = 170;
},
{
segmentType = curve;
smooth = 1;
x = 1216;
y = 185;
},
{
segmentType = line;
smooth = 0;
x = 1216;
y = 732;
},
{
segmentType = line;
smooth = 0;
x = 1410;
y = 732;
},
{
segmentType = line;
smooth = 1;
x = 1410;
y = 165;
},
{
smooth = 0;
x = 1410;
y = -47;
},
{
smooth = 0;
x = 1031;
y = -73;
},
{
segmentType = curve;
smooth = 1;
x = 1008;
y = 153;
},
{
segmentType = line;
smooth = 1;
x = 965;
y = 569;
},
{
smooth = 0;
x = 963;
y = 585;
},
{
smooth = 0;
x = 940;
y = 579;
},
{
segmentType = curve;
smooth = 1;
x = 940;
y = 562;
},
{
segmentType = line;
smooth = 0;
x = 940;
y = 0;
}
);
}
);
lib = {
};
name = N.salt;
unicodes = (
);
width = 826;
};
};
};
},
{
glyphname = W.salt;
layers = (
{
anchors = (
{
name = top;
position = "{662, 810}";
}
);
background = {
components = (
{
name = V;
transform = "{1, 0, 0, 1, 369, 0}";
},
{
name = W;
}
);
};
layerId = "FDCB0490-BEB2-4154-BC16-7BC1D55E5E84";
paths = (
{
closed = 1;
nodes = (
"447 0 LINE",
"569 248 LINE",
"614 0 LINE",
"866 0 LINE",
"1164 743 LINE",
"965 743 LINE",
"762 221 LINE",
"708 541 LINE",
"786 743 LINE",
"586 743 LINE",
"373 221 LINE",
"324 743 LINE",
"123 743 LINE",
"195 0 LINE"
);
}
);
width = 1051;
},
{
anchors = (
{
name = top;
position = "{650, 810}";
}
);
background = {
components = (
{
name = V;
},
{
name = V;
transform = "{1, 0, 0, 1, 325, 0}";
}
);
paths = (
{
closed = 1;
nodes = (
"61 732 LINE",
"87 732 LINE",
"340 24 LINE",
"585 732 LINE",
"611 732 LINE",
"508 431 LINE",
"671 24 LINE",
"919 732 LINE",
"943 732 LINE",
"689 0 LINE",
"655 0 LINE",
"495 396 LINE",
"357 0 LINE",
"323 0 LINE"
);
}
);
};
layerId = "DE62D6C8-A9BF-4A7E-9D02-9A707AFEE35E";
paths = (
{
closed = 1;
nodes = (
"340 0 LINE",
"561 436 LINE",
"651 0 LINE",
"685 0 LINE",
"1059 732 LINE",
"1035 732 LINE",
"672 24 LINE",
"578 470 LINE",
"707 732 LINE",
"681 732 LINE",
"327 24 LINE",
"190 732 LINE",
"164 732 LINE",
"306 0 LINE"
);
}
);
width = 991;
}
);
leftKerningGroup = V;
rightKerningGroup = V;
userData = {
com.fontlab.hintData = {
hhints = (
{
position = 0;
width = 21;
},
{
position = 712;
width = 20;
}
);
};
com.typemytype.robofont.layerData = {
background = {
anchors = (
);
components = (
{
baseGlyph = V;
transformation = (
1,
0,
0,
1,
369,
0
);
},
{
baseGlyph = W;
transformation = (
1,
0,
0,
1,
0,
0
);
}
);
contours = (
);
lib = {
};
name = W.salt;
unicodes = (
);
width = 1051;
};
};
};
},
{
glyphname = X.salt;
layers = (
{
anchors = (
{
name = bottom;
position = "{338, -150}";
},
{
name = top;
position = "{490, 810}";
}
);
background = {
components = (
{
name = X;
transform = "{1, 0, 0, 1, -6, 0}";
}
);
paths = (
{
closed = 1;
nodes = (
"1155 261 LINE",
"1155 261 OFFCURVE",
"1154 485 OFFCURVE",
"1155 487 CURVE SMOOTH",
"1276 732 LINE",
"1476 732 LINE",
"1358 457 LINE SMOOTH",
"1328 387 OFFCURVE",
"1322 368 OFFCURVE",
"1348 305 CURVE SMOOTH",
"1476 0 LINE",
"1266 0 LINE"
);
},
{
closed = 1;
nodes = (
"805 0 LINE",
"933 305 LINE SMOOTH",
"959 368 OFFCURVE",
"953 387 OFFCURVE",
"923 457 CURVE SMOOTH",
"805 732 LINE",
"1005 732 LINE",
"1125 487 LINE SMOOTH",
"1127 483 OFFCURVE",
"1125 261 OFFCURVE",
"1125 261 CURVE",
"1015 0 LINE"
);
}
);
};
layerId = "FDCB0490-BEB2-4154-BC16-7BC1D55E5E84";
paths = (
{
closed = 1;
nodes = (
"215 0 LINE",
"364 246 LINE SMOOTH",
"396 297 OFFCURVE",
"414 366 OFFCURVE",
"414 425 CURVE SMOOTH",
"414 452 OFFCURVE",
"411 477 OFFCURVE",
"404 498 CURVE SMOOTH",
"323 743 LINE",
"123 743 LINE",
"205 456 LINE SMOOTH",
"211 435 OFFCURVE",
"214 416 OFFCURVE",
"214 398 CURVE SMOOTH",
"214 362 OFFCURVE",
"202 327 OFFCURVE",
"179 288 CURVE SMOOTH",
"5 0 LINE"
);
},
{
closed = 1;
nodes = (
"720 0 LINE",
"638 288 LINE SMOOTH",
"632 309 OFFCURVE",
"629 328 OFFCURVE",
"629 346 CURVE SMOOTH",
"629 382 OFFCURVE",
"641 417 OFFCURVE",
"664 456 CURVE SMOOTH",
"838 743 LINE",
"638 743 LINE",
"479 498 LINE SMOOTH",
"447 449 OFFCURVE",
"429 382 OFFCURVE",
"429 320 CURVE SMOOTH",
"429 294 OFFCURVE",
"432 268 OFFCURVE",
"439 246 CURVE SMOOTH",
"510 0 LINE"
);
}
);
width = 725;
},
{
anchors = (
{
name = bottom;
position = "{271, -150}";
},
{
name = top;
position = "{423, 810}";
}
);
background = {
components = (
{
name = X;
}
);
paths = (
{
closed = 1;
nodes = (
"1044 284 LINE",
"996 345 OFFCURVE",
"1020 427 OFFCURVE",
"1065 487 CURVE SMOOTH",
"1250 732 LINE",
"1279 732 LINE",
"1087 476 LINE",
"1041 420 OFFCURVE",
"1024 353 OFFCURVE",
"1066 295 CURVE SMOOTH",
"1279 0 LINE",
"1249 0 LINE"
);
},
{
closed = 1;
nodes = (
"727 0 LINE",
"940 295 LINE SMOOTH",
"982 353 OFFCURVE",
"965 420 OFFCURVE",
"919 476 CURVE",
"727 732 LINE",
"756 732 LINE",
"941 487 LINE SMOOTH",
"986 427 OFFCURVE",
"1010 345 OFFCURVE",
"962 284 CURVE",
"757 0 LINE"
);
}
);
};
layerId = "DE62D6C8-A9BF-4A7E-9D02-9A707AFEE35E";
paths = (
{
closed = 1;
nodes = (
"79 0 LINE",
"279 254 LINE SMOOTH",
"314 298 OFFCURVE",
"335 343 OFFCURVE",
"335 389 CURVE SMOOTH",
"335 427 OFFCURVE",
"321 463 OFFCURVE",
"305 495 CURVE SMOOTH",
"192 732 LINE",
"166 732 LINE",
"286 481 LINE SMOOTH",
"301 450 OFFCURVE",
"313 419 OFFCURVE",
"313 387 CURVE SMOOTH",
"313 345 OFFCURVE",
"292 304 OFFCURVE",
"261 265 CURVE SMOOTH",
"53 0 LINE"
);
},
{
closed = 1;
nodes = (
"541 0 LINE",
"415 265 LINE SMOOTH",
"404 289 OFFCURVE",
"399 312 OFFCURVE",
"399 336 CURVE SMOOTH",
"399 384 OFFCURVE",
"426 435 OFFCURVE",
"462 481 CURVE SMOOTH",
"657 732 LINE",
"631 732 LINE",
"447 495 LINE SMOOTH",
"409 446 OFFCURVE",
"376 390 OFFCURVE",
"376 334 CURVE SMOOTH",
"376 307 OFFCURVE",
"382 280 OFFCURVE",
"395 253 CURVE SMOOTH",
"515 0 LINE"
);
}
);
width = 591;
}
);
leftKerningGroup = X;
rightKerningGroup = K;
userData = {
com.fontlab.hintData = {
hhints = (
{
position = 0;
width = 21;
},
{
position = 712;
width = 20;
}
);
};
com.typemytype.robofont.layerData = {
background = {
anchors = (
);
components = (
{
baseGlyph = X;
transformation = (
1,
0,
0,
1,
-6,
0
);
}
);
contours = (
{
points = (
{
segmentType = line;
smooth = 0;
x = 1155;
y = 261;
},
{
smooth = 0;
x = 1155;
y = 261;
},
{
smooth = 0;
x = 1154;
y = 485;
},
{
segmentType = curve;
smooth = 1;
x = 1155;
y = 487;
},
{
segmentType = line;
smooth = 0;
x = 1276;
y = 732;
},
{
segmentType = line;
smooth = 0;
x = 1476;
y = 732;
},
{
segmentType = line;
smooth = 1;
x = 1358;
y = 457;
},
{
smooth = 0;
x = 1328;
y = 387;
},
{
smooth = 0;
x = 1322;
y = 368;
},
{
segmentType = curve;
smooth = 1;
x = 1348;
y = 305;
},
{
segmentType = line;
smooth = 0;
x = 1476;
y = 0;
},
{
segmentType = line;
smooth = 0;
x = 1266;
y = 0;
}
);
},
{
points = (
{
segmentType = line;
smooth = 0;
x = 805;
y = 0;
},
{
segmentType = line;
smooth = 1;
x = 933;
y = 305;
},
{
smooth = 0;
x = 959;
y = 368;
},
{
smooth = 0;
x = 953;
y = 387;
},
{
segmentType = curve;
smooth = 1;
x = 923;
y = 457;
},
{
segmentType = line;
smooth = 0;
x = 805;
y = 732;
},
{
segmentType = line;
smooth = 0;
x = 1005;
y = 732;
},
{
segmentType = line;
smooth = 1;
x = 1125;
y = 487;
},
{
smooth = 0;
x = 1127;
y = 483;
},
{
smooth = 0;
x = 1125;
y = 261;
},
{
segmentType = curve;
smooth = 0;
x = 1125;
y = 261;
},
{
segmentType = line;
smooth = 0;
x = 1015;
y = 0;
}
);
}
);
lib = {
};
name = X.salt;
unicodes = (
);
width = 725;
};
};
};
},
{
glyphname = a;
layers = (
{
anchors = (
{
name = bottom;
position = "{254, -150}";
},
{
name = ogonek;
position = "{523, 0}";
},
{
name = top;
position = "{380, 650}";
}
);
background = {
components = (
{
name = d;
transform = "{1, 0, 0, 1, -3, 0}";
}
);
};
layerId = "FDCB0490-BEB2-4154-BC16-7BC1D55E5E84";
paths = (
{
closed = 1;
nodes = (
"260 -6 OFFCURVE",
"319 25 OFFCURVE",
"347 52 CURVE",
"359 0 LINE",
"533 0 LINE",
"609 479 LINE",
"560 515 OFFCURVE",
"470 545 OFFCURVE",
"367 545 CURVE SMOOTH",
"192 545 OFFCURVE",
"103 462 OFFCURVE",
"77 299 CURVE SMOOTH",
"73 272 OFFCURVE",
"65 223 OFFCURVE",
"65 182 CURVE SMOOTH",
"65 50 OFFCURVE",
"129 -6 OFFCURVE",
"203 -6 CURVE SMOOTH"
);
},
{
closed = 1;
nodes = (
"267 149 OFFCURVE",
"259 184 OFFCURVE",
"259 218 CURVE SMOOTH",
"259 231 OFFCURVE",
"262 260 OFFCURVE",
"267 288 CURVE SMOOTH",
"277 348 OFFCURVE",
"305 390 OFFCURVE",
"358 390 CURVE SMOOTH",
"376 390 OFFCURVE",
"394 385 OFFCURVE",
"399 383 CURVE",
"366 178 LINE",
"355 166 OFFCURVE",
"333 149 OFFCURVE",
"302 149 CURVE SMOOTH"
);
}
);
width = 575;
},
{
anchors = (
{
name = bottom;
position = "{257, -150}";
},
{
name = ogonek;
position = "{469, 0}";
},
{
name = top;
position = "{383, 650}";
}
);
background = {
components = (
{
name = o;
transform = "{1, 0, 0, 1, 559, 0}";
},
{
name = o;
}
);
paths = (
{
closed = 1;
nodes = (
"683 246 CURVE SMOOTH",
"660 98 OFFCURVE",
"702 16 OFFCURVE",
"812 16 CURVE SMOOTH",
"899 16 OFFCURVE",
"959 46 OFFCURVE",
"1027 75 CURVE",
"1085 476 LINE",
"1056 494 OFFCURVE",
"980 530 OFFCURVE",
"883 517 CURVE SMOOTH",
"766 501 OFFCURVE",
"713 438 OFFCURVE"
);
},
{
closed = 1;
nodes = (
"664 279 CURVE SMOOTH",
"704 507 OFFCURVE",
"802 531 OFFCURVE",
"884 541 CURVE SMOOTH",
"954 550 OFFCURVE",
"1059 528 OFFCURVE",
"1110 479 CURVE",
"1040 0 LINE",
"1026 0 LINE",
"1027 60 LINE",
"998 41 OFFCURVE",
"897 -7 OFFCURVE",
"820 -7 CURVE SMOOTH",
"706 -7 OFFCURVE",
"623 45 OFFCURVE"
);
}
);
};
layerId = "DE62D6C8-A9BF-4A7E-9D02-9A707AFEE35E";
paths = (
{
closed = 1;
nodes = (
"336 -6 OFFCURVE",
"436 40 OFFCURVE",
"465 59 CURVE",
"463 0 LINE",
"479 0 LINE",
"555 481 LINE",
"509.675 524.265 OFFCURVE",
"426 537 OFFCURVE",
"369 537 CURVE SMOOTH",
"203 537 OFFCURVE",
"130.976 453.843 OFFCURVE",
"102 268 CURVE SMOOTH",
"97 238 OFFCURVE",
"92 202 OFFCURVE",
"92 171 CURVE SMOOTH",
"92 46 OFFCURVE",
"165 -6 OFFCURVE",
"259 -6 CURVE SMOOTH"
);
},
{
closed = 1;
nodes = (
"175 16 OFFCURVE",
"116 62 OFFCURVE",
"116 172 CURVE SMOOTH",
"116 196 OFFCURVE",
"119 220 OFFCURVE",
"125 258 CURVE SMOOTH",
"153.972 439.825 OFFCURVE",
"206 515 OFFCURVE",
"367 515 CURVE SMOOTH",
"445 515 OFFCURVE",
"503.789 491.727 OFFCURVE",
"530 476 CURVE",
"467 75 LINE",
"400 44 OFFCURVE",
"338 16 OFFCURVE",
"258 16 CURVE SMOOTH"
);
}
);
width = 559;
}
);
leftKerningGroup = a;
note = "\012    GF Latin Plus glyph\012  ";
rightKerningGroup = a;
unicode = 0061;
userData = {
com.fontlab.hintData = {
hhints = (
{
position = -5;
width = 155;
}
);
};
com.typemytype.robofont.layerData = {
background = {
anchors = (
);
components = (
{
baseGlyph = d;
transformation = (
1,
0,
0,
1,
-3,
0
);
}
);
contours = (
);
lib = {
};
name = a;
unicodes = (
);
width = 575;
};
};
};
},
{
glyphname = ae;
layers = (
{
anchors = (
{
name = top;
position = "{530, 650}";
}
);
background = {
components = (
{
name = a;
transform = "{1, 0, 0, 1, 0.502, 0}";
},
{
name = e;
transform = "{1, 0, 0, 1, 309.502, 0}";
}
);
};
layerId = "FDCB0490-BEB2-4154-BC16-7BC1D55E5E84";
paths = (
{
closed = 1;
nodes = (
"281 -6 OFFCURVE",
"338 13 OFFCURVE",
"414 63 CURVE",
"438 19 OFFCURVE",
"512 -6 OFFCURVE",
"582 -6 CURVE SMOOTH",
"666.654 -6 OFFCURVE",
"769.219 6.06 OFFCURVE",
"827 22 CURVE",
"845 135 LINE",
"666 135 LINE SMOOTH",
"589 135 OFFCURVE",
"567 153 OFFCURVE",
"567 179 CURVE SMOOTH",
"567 184 OFFCURVE",
"568 193 OFFCURVE",
"569 198 CURVE",
"583 194 OFFCURVE",
"636 190 OFFCURVE",
"670 190 CURVE SMOOTH",
"827 190 OFFCURVE",
"888 255 OFFCURVE",
"888 372 CURVE SMOOTH",
"888 493 OFFCURVE",
"813 545 OFFCURVE",
"660 545 CURVE SMOOTH",
"647 545 OFFCURVE",
"550 536 OFFCURVE",
"520 514 CURVE",
"467 540 OFFCURVE",
"404 545 OFFCURVE",
"355 545 CURVE SMOOTH",
"214 545 OFFCURVE",
"67 478 OFFCURVE",
"67 179 CURVE SMOOTH",
"67 43 OFFCURVE",
"133 -6 OFFCURVE",
"210 -6 CURVE SMOOTH"
);
},
{
closed = 1;
nodes = (
"272 151 OFFCURVE",
"260 178 OFFCURVE",
"260 216 CURVE SMOOTH",
"260 327 OFFCURVE",
"296 390 OFFCURVE",
"374 390 CURVE SMOOTH",
"383 390 OFFCURVE",
"402 388 OFFCURVE",
"409 385 CURVE",
"391 337 OFFCURVE",
"378 277 OFFCURVE",
"378 216 CURVE SMOOTH",
"378 208 OFFCURVE",
"378 198 OFFCURVE",
"378 190 CURVE",
"367 172 OFFCURVE",
"332 151 OFFCURVE",
"302 151 CURVE SMOOTH"
);
},
{
closed = 1;
nodes = (
"610 295 OFFCURVE",
"592 297 OFFCURVE",
"582 299 CURVE",
"594 361 OFFCURVE",
"613 398 OFFCURVE",
"662 398 CURVE SMOOTH",
"691 398 OFFCURVE",
"708 384 OFFCURVE",
"708 351 CURVE SMOOTH",
"708 323 OFFCURVE",
"696 295 OFFCURVE",
"630 295 CURVE SMOOTH"
);
}
);
width = 861.213;
},
{
anchors = (
{
name = top;
position = "{556, 650}";
}
);
background = {
components = (
{
name = a;
transform = "{1, 0, 0, 1, 2.817, 0}";
},
{
name = e;
transform = "{1, 0, 0, 1, 364.817, 0}";
}
);
};
layerId = "DE62D6C8-A9BF-4A7E-9D02-9A707AFEE35E";
paths = (
{
closed = 1;
nodes = (
"340 -6 OFFCURVE",
"433 56 OFFCURVE",
"472 92 CURVE",
"490 35 OFFCURVE",
"540 -6 OFFCURVE",
"631 -6 CURVE SMOOTH",
"700 -6 OFFCURVE",
"775 -5 OFFCURVE",
"837 0 CURVE",
"840 16 LINE",
"628 16 LINE SMOOTH",
"515 16 OFFCURVE",
"486 74 OFFCURVE",
"486 177 CURVE SMOOTH",
"486 205 OFFCURVE",
"486 216 OFFCURVE",
"490 255 CURVE",
"507 248 OFFCURVE",
"589 236 OFFCURVE",
"674 236 CURVE SMOOTH",
"821 236 OFFCURVE",
"917 302 OFFCURVE",
"917 395 CURVE SMOOTH",
"917 490 OFFCURVE",
"855 541 OFFCURVE",
"739 541 CURVE SMOOTH",
"662 541 OFFCURVE",
"600 522 OFFCURVE",
"556 481 CURVE",
"513 516 OFFCURVE",
"429 537 OFFCURVE",
"371 537 CURVE SMOOTH",
"150 537 OFFCURVE",
"95 344 OFFCURVE",
"95 171 CURVE SMOOTH",
"95 46 OFFCURVE",
"158 -6 OFFCURVE",
"252 -6 CURVE SMOOTH"
);
},
{
closed = 1;
nodes = (
"157 16 OFFCURVE",
"119 72 OFFCURVE",
"119 174 CURVE SMOOTH",
"119 325 OFFCURVE",
"164 515 OFFCURVE",
"370 515 CURVE SMOOTH",
"444 515 OFFCURVE",
"511 486 OFFCURVE",
"544 468 CURVE",
"481 385 OFFCURVE",
"462 258 OFFCURVE",
"462 167 CURVE SMOOTH",
"462 147 OFFCURVE",
"464 128 OFFCURVE",
"468 112 CURVE",
"418 67 OFFCURVE",
"329 16 OFFCURVE",
"244 16 CURVE SMOOTH"
);
},
{
closed = 1;
nodes = (
"571 258 OFFCURVE",
"492 269 OFFCURVE",
"492 269 CURVE",
"520 428 OFFCURVE",
"558 519 OFFCURVE",
"746 519 CURVE SMOOTH",
"841 519 OFFCURVE",
"892 471 OFFCURVE",
"892 392 CURVE SMOOTH",
"892 299 OFFCURVE",
"797 258 OFFCURVE",
"657 258 CURVE SMOOTH"
);
}
);
width = 915.077;
}
);
leftKerningGroup = ae;
note = "\012    GF Latin Plus glyph\012  ";
rightKerningGroup = e;
unicode = 00E6;
userData = {
com.fontlab.hintData = {
hhints = (
{
position = -7;
width = 155;
},
{
position = 22;
width = 136;
},
{
position = 397;
width = 144;
}
);
};
com.typemytype.robofont.layerData = {
background = {
anchors = (
);
components = (
{
baseGlyph = a;
transformation = (
1,
0,
0,
1,
0.50240,
0
);
},
{
baseGlyph = e;
transformation = (
1,
0,
0,
1,
309.50229,
0
);
}
);
contours = (
);
lib = {
};
name = ae;
unicodes = (
);
width = 861.21350;
};
};
};
},
{
glyphname = b;
layers = (
{
anchors = (
{
name = bottom;
position = "{276, -150}";
},
{
name = top;
position = "{276, 850}";
}
);
background = {
components = (
{
name = o;
transform = "{1, 0, 0, 1, -2, 0}";
}
);
paths = (
{
closed = 1;
nodes = (
"266 173 LINE",
"273 156 OFFCURVE",
"297 151 OFFCURVE",
"328 151 CURVE SMOOTH",
"357 151 OFFCURVE",
"374 164 OFFCURVE",
"391 273 CURVE SMOOTH",
"409 386 OFFCURVE",
"395 400 OFFCURVE",
"367 400 CURVE SMOOTH",
"342 400 OFFCURVE",
"312 396 OFFCURVE",
"300 385 CURVE"
);
},
{
closed = 1;
nodes = (
"44 0 LINE",
"168 785 LINE",
"362 785 LINE",
"319 509 LINE",
"358 528 OFFCURVE",
"410 539 OFFCURVE",
"455 539 CURVE SMOOTH",
"599 539 OFFCURVE",
"614 412 OFFCURVE",
"584 223 CURVE SMOOTH",
"553 30 OFFCURVE",
"488 -6 OFFCURVE",
"369 -6 CURVE SMOOTH",
"310 -6 OFFCURVE",
"281 16 OFFCURVE",
"247 49 CURVE",
"210 0 LINE"
);
}
);
};
layerId = "FDCB0490-BEB2-4154-BC16-7BC1D55E5E84";
paths = (
{
closed = 1;
nodes = (
"498 -6 OFFCURVE",
"571 73 OFFCURVE",
"594 223 CURVE SMOOTH",
"602 274 OFFCURVE",
"608 321 OFFCURVE",
"608 351 CURVE SMOOTH",
"608 474 OFFCURVE",
"544 545 OFFCURVE",
"436 545 CURVE SMOOTH",
"404 545 OFFCURVE",
"357 533 OFFCURVE",
"320 515 CURVE",
"359 763 LINE",
"165 763 LINE",
"44 0 LINE",
"218 0 LINE",
"247 49 LINE",
"282 15 OFFCURVE",
"337 -6 OFFCURVE",
"398 -6 CURVE SMOOTH"
);
},
{
closed = 1;
nodes = (
"299 149 OFFCURVE",
"282 155 OFFCURVE",
"266 171 CURVE",
"298 375 LINE",
"316 385 OFFCURVE",
"347 390 OFFCURVE",
"369 390 CURVE SMOOTH",
"394 390 OFFCURVE",
"414 375 OFFCURVE",
"414 320 CURVE SMOOTH",
"414 308 OFFCURVE",
"412 292 OFFCURVE",
"410 273 CURVE SMOOTH",
"397 175 OFFCURVE",
"371 149 OFFCURVE",
"335 149 CURVE SMOOTH"
);
}
);
width = 589;
},
{
anchors = (
{
name = bottom;
position = "{257, -150}";
},
{
name = top;
position = "{227, 850}";
}
);
background = {
components = (
{
name = q;
transform = "{-1, 0, 0, -1, 645, 531}";
}
);
paths = (
{
closed = 1;
nodes = (
"642 73 LINE",
"691 46 OFFCURVE",
"750 18 OFFCURVE",
"829 18 CURVE SMOOTH",
"914 18 OFFCURVE",
"1001 89 OFFCURVE",
"1029 263 CURVE SMOOTH",
"1061 468 OFFCURVE",
"992 515 OFFCURVE",
"908 515 CURVE SMOOTH",
"831 515 OFFCURVE",
"779 503 OFFCURVE",
"707 485 CURVE"
);
},
{
closed = 1;
nodes = (
"607 0 LINE",
"731 785 LINE",
"753 785 LINE",
"708 499 LINE",
"776 525 OFFCURVE",
"869 539 OFFCURVE",
"914 539 CURVE SMOOTH",
"1065 539 OFFCURVE",
"1075 392 OFFCURVE",
"1053 256 CURVE SMOOTH",
"1034 134 OFFCURVE",
"973 -6 OFFCURVE",
"828 -6 CURVE SMOOTH",
"760 -6 OFFCURVE",
"661 35 OFFCURVE",
"639 59 CURVE",
"620 0 LINE"
);
}
);
};
layerId = "DE62D6C8-A9BF-4A7E-9D02-9A707AFEE35E";
paths = (
{
closed = 1;
nodes = (
"436 -6 OFFCURVE",
"517 101 OFFCURVE",
"541 254 CURVE SMOOTH",
"547 295 OFFCURVE",
"551 333 OFFCURVE",
"551 365 CURVE SMOOTH",
"551 481 OFFCURVE",
"484 537 OFFCURVE",
"393 537 CURVE SMOOTH",
"338 537 OFFCURVE",
"250 514 OFFCURVE",
"179 472 CURVE",
"225 763 LINE",
"201 763 LINE",
"80 0 LINE",
"96 0 LINE",
"113 57 LINE",
"157 27 OFFCURVE",
"234 -6 OFFCURVE",
"302 -6 CURVE SMOOTH"
);
},
{
closed = 1;
nodes = (
"224 16 OFFCURVE",
"165 46 OFFCURVE",
"116 73 CURVE",
"176 456 LINE",
"249 490 OFFCURVE",
"321 515 OFFCURVE",
"390 515 CURVE SMOOTH",
"468 515 OFFCURVE",
"527 472 OFFCURVE",
"527 363 CURVE SMOOTH",
"527 334 OFFCURVE",
"523 300 OFFCURVE",
"517 261 CURVE SMOOTH",
"492 106 OFFCURVE",
"428 16 OFFCURVE",
"303 16 CURVE SMOOTH"
);
}
);
width = 561;
}
);
leftKerningGroup = l;
note = "\012    GF Latin Plus glyph\012  ";
rightKerningGroup = b;
unicode = 0062;
userData = {
com.fontlab.hintData = {
hhints = (
{
position = -6;
width = 157;
},
{
position = 400;
width = 139;
},
{
position = 765;
width = 20;
}
);
};
com.typemytype.robofont.layerData = {
background = {
anchors = (
);
components = (
{
baseGlyph = o;
transformation = (
1,
0,
0,
1,
-2,
0
);
}
);
contours = (
{
points = (
{
segmentType = line;
smooth = 0;
x = 266;
y = 173;
},
{
smooth = 0;
x = 273;
y = 156;
},
{
smooth = 0;
x = 297;
y = 151;
},
{
segmentType = curve;
smooth = 1;
x = 328;
y = 151;
},
{
smooth = 0;
x = 357;
y = 151;
},
{
smooth = 0;
x = 374;
y = 164;
},
{
segmentType = curve;
smooth = 1;
x = 391;
y = 273;
},
{
smooth = 0;
x = 409;
y = 386;
},
{
smooth = 0;
x = 395;
y = 400;
},
{
segmentType = curve;
smooth = 1;
x = 367;
y = 400;
},
{
smooth = 0;
x = 342;
y = 400;
},
{
smooth = 0;
x = 312;
y = 396;
},
{
segmentType = curve;
smooth = 0;
x = 300;
y = 385;
}
);
},
{
points = (
{
segmentType = line;
smooth = 0;
x = 44;
y = 0;
},
{
segmentType = line;
smooth = 0;
x = 168;
y = 785;
},
{
segmentType = line;
smooth = 0;
x = 362;
y = 785;
},
{
segmentType = line;
smooth = 0;
x = 319;
y = 509;
},
{
smooth = 0;
x = 358;
y = 528;
},
{
smooth = 0;
x = 410;
y = 539;
},
{
segmentType = curve;
smooth = 1;
x = 455;
y = 539;
},
{
smooth = 0;
x = 599;
y = 539;
},
{
smooth = 0;
x = 614;
y = 412;
},
{
segmentType = curve;
smooth = 1;
x = 584;
y = 223;
},
{
smooth = 0;
x = 553;
y = 30;
},
{
smooth = 0;
x = 488;
y = -6;
},
{
segmentType = curve;
smooth = 1;
x = 369;
y = -6;
},
{
smooth = 0;
x = 310;
y = -6;
},
{
smooth = 0;
x = 281;
y = 16;
},
{
segmentType = curve;
smooth = 0;
x = 247;
y = 49;
},
{
segmentType = line;
smooth = 0;
x = 210;
y = 0;
}
);
}
);
lib = {
};
name = b;
unicodes = (
);
width = 589;
};
};
};
},
{
glyphname = c;
layers = (
{
anchors = (
{
name = bottom;
position = "{234, -150}";
},
{
name = top;
position = "{360, 650}";
}
);
background = {
paths = (
{
closed = 1;
nodes = (
"273 307 CURVE",
"282 367 OFFCURVE",
"308 398 OFFCURVE",
"351 398 CURVE SMOOTH",
"383 398 OFFCURVE",
"398 381 OFFCURVE",
"398 355 CURVE SMOOTH",
"398 323 OFFCURVE",
"385 303 OFFCURVE",
"312 303 CURVE SMOOTH",
"300 303 OFFCURVE",
"286 305 OFFCURVE"
);
},
{
closed = 1;
nodes = (
"68 203 CURVE SMOOTH",
"68 72 OFFCURVE",
"121 -6 OFFCURVE",
"278 -6 CURVE SMOOTH",
"373 -6 OFFCURVE",
"458 7 OFFCURVE",
"518 22 CURVE",
"539 149 LINE",
"360 149 LINE SMOOTH",
"293 149 OFFCURVE",
"261 161 OFFCURVE",
"261 190 CURVE SMOOTH",
"261 194 OFFCURVE",
"261 198 OFFCURVE",
"262 203 CURVE",
"284 198 OFFCURVE",
"317 195 OFFCURVE",
"357 195 CURVE SMOOTH",
"480 195 OFFCURVE",
"578 224 OFFCURVE",
"578 376 CURVE SMOOTH",
"578 516 OFFCURVE",
"465 545 OFFCURVE",
"364 545 CURVE SMOOTH",
"181 545 OFFCURVE",
"106 482 OFFCURVE",
"77 299 CURVE SMOOTH",
"72 269 OFFCURVE",
"68 237 OFFCURVE"
);
}
);
};
layerId = "FDCB0490-BEB2-4154-BC16-7BC1D55E5E84";
paths = (
{
closed = 1;
nodes = (
"351 -6 OFFCURVE",
"403 9 OFFCURVE",
"450 30 CURVE",
"467 139 LINE",
"334 139 LINE SMOOTH",
"286 139 OFFCURVE",
"262 167 OFFCURVE",
"262 223 CURVE SMOOTH",
"262 229 OFFCURVE",
"263 244 OFFCURVE",
"267 270 CURVE SMOOTH",
"280 346 OFFCURVE",
"301 398 OFFCURVE",
"376 398 CURVE SMOOTH",
"501 398 LINE",
"519 509 LINE",
"456 529 OFFCURVE",
"392 545 OFFCURVE",
"329 545 CURVE SMOOTH",
"203 545 OFFCURVE",
"105 481 OFFCURVE",
"78 300 CURVE SMOOTH",
"72 263 OFFCURVE",
"69 227 OFFCURVE",
"69 204 CURVE SMOOTH",
"69 47 OFFCURVE",
"145 -6 OFFCURVE",
"270 -6 CURVE SMOOTH"
);
}
);
width = 471;
},
{
anchors = (
{
name = bottom;
position = "{227, -150}";
},
{
name = top;
position = "{353, 650}";
}
);
background = {
paths = (
{
closed = 1;
nodes = (
"103 273 CURVE SMOOTH",
"140 505 OFFCURVE",
"219 536 OFFCURVE",
"321 536 CURVE SMOOTH",
"373 536 OFFCURVE",
"455 524 OFFCURVE",
"515 510 CURVE",
"512 496 LINE",
"512 496 OFFCURVE",
"406 512 OFFCURVE",
"317 512 CURVE SMOOTH",
"226 512 OFFCURVE",
"160 478 OFFCURVE",
"126 262 CURVE SMOOTH",
"93 56 OFFCURVE",
"153 19 OFFCURVE",
"239 19 CURVE SMOOTH",
"331 19 OFFCURVE",
"447 40 OFFCURVE",
"447 40 CURVE",
"445 24 LINE",
"360 1 OFFCURVE",
"318 -4 OFFCURVE",
"235 -5 CURVE",
"136 -5 OFFCURVE",
"66 40 OFFCURVE"
);
}
);
};
layerId = "DE62D6C8-A9BF-4A7E-9D02-9A707AFEE35E";
paths = (
{
closed = 1;
nodes = (
"345.684 -6 OFFCURVE",
"403.82 -2.686 OFFCURVE",
"445 0 CURVE",
"447 16 LINE",
"279 16 LINE SMOOTH",
"174.042 16 OFFCURVE",
"117 46.329 OFFCURVE",
"117 180 CURVE SMOOTH",
"117 202.96 OFFCURVE",
"121.055 229.857 OFFCURVE",
"126 262 CURVE SMOOTH",
"158 465 OFFCURVE",
"241.448 515 OFFCURVE",
"347 515 CURVE SMOOTH",
"512 515 LINE",
"516 531 LINE",
"466.864 533.68 OFFCURVE",
"395 537 OFFCURVE",
"349 537 CURVE SMOOTH",
"219 537 OFFCURVE",
"133 462 OFFCURVE",
"103 273 CURVE SMOOTH",
"97.106 236.793 OFFCURVE",
"93 205.973 OFFCURVE",
"93 180 CURVE SMOOTH",
"93 28.321 OFFCURVE",
"168.272 -6 OFFCURVE",
"275 -6 CURVE SMOOTH"
);
}
);
width = 485;
}
);
leftKerningGroup = c;
note = "\012    GF Latin Plus glyph\012  ";
rightKerningGroup = c;
unicode = 0063;
userData = {
com.fontlab.hintData = {
hhints = (
{
position = -5;
width = 144;
},
{
position = 397;
width = 144;
}
);
};
com.typemytype.robofont.layerData = {
background = {
anchors = (
);
components = (
);
contours = (
{
points = (
{
segmentType = curve;
smooth = 0;
x = 273;
y = 307;
},
{
smooth = 0;
x = 282;
y = 367;
},
{
smooth = 0;
x = 308;
y = 398;
},
{
segmentType = curve;
smooth = 1;
x = 351;
y = 398;
},
{
smooth = 0;
x = 383;
y = 398;
},
{
smooth = 0;
x = 398;
y = 381;
},
{
segmentType = curve;
smooth = 1;
x = 398;
y = 355;
},
{
smooth = 0;
x = 398;
y = 323;
},
{
smooth = 0;
x = 385;
y = 303;
},
{
segmentType = curve;
smooth = 1;
x = 312;
y = 303;
},
{
smooth = 0;
x = 300;
y = 303;
},
{
smooth = 0;
x = 286;
y = 305;
}
);
},
{
points = (
{
segmentType = curve;
smooth = 1;
x = 68;
y = 203;
},
{
smooth = 0;
x = 68;
y = 72;
},
{
smooth = 0;
x = 121;
y = -6;
},
{
segmentType = curve;
smooth = 1;
x = 278;
y = -6;
},
{
smooth = 0;
x = 373;
y = -6;
},
{
smooth = 0;
x = 458;
y = 7;
},
{
segmentType = curve;
smooth = 0;
x = 518;
y = 22;
},
{
segmentType = line;
smooth = 0;
x = 539;
y = 149;
},
{
segmentType = line;
smooth = 1;
x = 360;
y = 149;
},
{
smooth = 0;
x = 293;
y = 149;
},
{
smooth = 0;
x = 261;
y = 161;
},
{
segmentType = curve;
smooth = 1;
x = 261;
y = 190;
},
{
smooth = 0;
x = 261;
y = 194;
},
{
smooth = 0;
x = 261;
y = 198;
},
{
segmentType = curve;
smooth = 0;
x = 262;
y = 203;
},
{
smooth = 0;
x = 284;
y = 198;
},
{
smooth = 0;
x = 317;
y = 195;
},
{
segmentType = curve;
smooth = 1;
x = 357;
y = 195;
},
{
smooth = 0;
x = 480;
y = 195;
},
{
smooth = 0;
x = 578;
y = 224;
},
{
segmentType = curve;
smooth = 1;
x = 578;
y = 376;
},
{
smooth = 0;
x = 578;
y = 516;
},
{
smooth = 0;
x = 465;
y = 545;
},
{
segmentType = curve;
smooth = 1;
x = 364;
y = 545;
},
{
smooth = 0;
x = 181;
y = 545;
},
{
smooth = 0;
x = 106;
y = 482;
},
{
segmentType = curve;
smooth = 1;
x = 77;
y = 299;
},
{
smooth = 0;
x = 72;
y = 269;
},
{
smooth = 0;
x = 68;
y = 237;
}
);
}
);
lib = {
};
name = c;
unicodes = (
);
width = 471;
};
};
};
},
{
glyphname = d;
layers = (
{
anchors = (
{
name = altcaron;
position = "{658, 650}";
},
{
name = bottom;
position = "{267, -150}";
},
{
name = top;
position = "{573, 850}";
}
);
background = {
components = (
{
name = a;
transform = "{1, 0, 0, 1, -2.512, 0}";
}
);
paths = (
{
closed = 1;
nodes = (
"862.488 273 CURVE SMOOTH",
"845.488 164 OFFCURVE",
"858.488 151 OFFCURVE",
"887.488 151 CURVE SMOOTH",
"918.488 151 OFFCURVE",
"942.488 156 OFFCURVE",
"955.488 173 CURVE",
"989.488 385 LINE",
"981.488 396 OFFCURVE",
"951.488 400 OFFCURVE",
"926.488 400 CURVE SMOOTH",
"898.488 400 OFFCURVE",
"880.488 386 OFFCURVE"
);
},
{
closed = 1;
nodes = (
"666.488 303 CURVE SMOOTH",
"693.488 454 OFFCURVE",
"738.488 539 OFFCURVE",
"882.488 539 CURVE SMOOTH",
"927.488 539 OFFCURVE",
"976.488 528 OFFCURVE",
"1009.488 509 CURVE",
"1053.488 785 LINE",
"1247.488 785 LINE",
"1123.488 0 LINE",
"957.488 0 LINE",
"935.488 49 LINE",
"891.488 16 OFFCURVE",
"855.488 -6 OFFCURVE",
"796.488 -6 CURVE SMOOTH",
"677.488 -6 OFFCURVE",
"634.488 124 OFFCURVE"
);
}
);
};
layerId = "FDCB0490-BEB2-4154-BC16-7BC1D55E5E84";
paths = (
{
closed = 1;
nodes = (
"265 -6 OFFCURVE",
"313 18 OFFCURVE",
"349 52 CURVE",
"361 0 LINE",
"535 0 LINE",
"656 763 LINE",
"462 763 LINE",
"427 541 LINE",
"405 544 OFFCURVE",
"378 545 OFFCURVE",
"351 545 CURVE SMOOTH",
"166 545 OFFCURVE",
"110 454 OFFCURVE",
"80 303 CURVE SMOOTH",
"72 262 OFFCURVE",
"68 221 OFFCURVE",
"68 186 CURVE SMOOTH",
"68 67 OFFCURVE",
"114 -6 OFFCURVE",
"215 -6 CURVE SMOOTH"
);
},
{
closed = 1;
nodes = (
"281.087 149 OFFCURVE",
"261 163.492 OFFCURVE",
"261 217 CURVE SMOOTH",
"261 236 OFFCURVE",
"263 252 OFFCURVE",
"266 271 CURVE SMOOTH",
"285.788 380.935 OFFCURVE",
"328.312 390 OFFCURVE",
"361 390 CURVE SMOOTH",
"380 390 OFFCURVE",
"395 386 OFFCURVE",
"402 383 CURVE",
"369 178 LINE",
"354 163 OFFCURVE",
"335 149 OFFCURVE",
"305 149 CURVE SMOOTH"
);
}
);
width = 580;
},
{
anchors = (
{
name = altcaron;
position = "{602, 650}";
},
{
name = bottom;
position = "{257, -150}";
},
{
name = top;
position = "{603, 850}";
}
);
background = {
components = (
{
name = a;
transform = "{1, 0, 0, 1, 1, 0}";
}
);
paths = (
{
closed = 1;
nodes = (
"714 263 CURVE SMOOTH",
"685 82 OFFCURVE",
"754 18 OFFCURVE",
"839 18 CURVE SMOOTH",
"918 18 OFFCURVE",
"983 46 OFFCURVE",
"1040 73 CURVE",
"1106 485 LINE",
"1040 503 OFFCURVE",
"994 515 OFFCURVE",
"917 515 CURVE SMOOTH",
"833 515 OFFCURVE",
"747 472 OFFCURVE"
);
},
{
closed = 1;
nodes = (
"690 271 CURVE SMOOTH",
"712 407 OFFCURVE",
"767 539 OFFCURVE",
"918 539 CURVE SMOOTH",
"963 539 OFFCURVE",
"1049 525 OFFCURVE",
"1109 499 CURVE",
"1154 785 LINE",
"1176 785 LINE",
"1052 0 LINE",
"1039 0 LINE",
"1038 59 LINE",
"1008 35 OFFCURVE",
"900 -6 OFFCURVE",
"832 -6 CURVE SMOOTH",
"687 -6 OFFCURVE",
"671 149 OFFCURVE"
);
}
);
};
layerId = "DE62D6C8-A9BF-4A7E-9D02-9A707AFEE35E";
paths = (
{
closed = 1;
nodes = (
"336 -6 OFFCURVE",
"417 31 OFFCURVE",
"466 59 CURVE",
"464 0 LINE",
"480 0 LINE",
"601 763 LINE",
"577 763 LINE",
"535 498 LINE",
"483.589 526.329 OFFCURVE",
"432 537 OFFCURVE",
"368 537 CURVE SMOOTH",
"182 537 OFFCURVE",
"132.964 431.807 OFFCURVE",
"103 271 CURVE SMOOTH",
"96 235 OFFCURVE",
"93 202 OFFCURVE",
"93 165 CURVE SMOOTH",
"93 49 OFFCURVE",
"164 -6 OFFCURVE",
"253 -6 CURVE SMOOTH"
);
},
{
closed = 1;
nodes = (
"178 16 OFFCURVE",
"117 59 OFFCURVE",
"117 171 CURVE SMOOTH",
"117 197 OFFCURVE",
"121 228 OFFCURVE",
"127 263 CURVE SMOOTH",
"156.964 430.796 OFFCURVE",
"199 515 OFFCURVE",
"366 515 CURVE SMOOTH",
"435 515 OFFCURVE",
"482.693 502.254 OFFCURVE",
"531 476 CURVE",
"468 75 LINE",
"401 43 OFFCURVE",
"331 16 OFFCURVE",
"252 16 CURVE SMOOTH"
);
}
);
width = 560;
}
);
leftKerningGroup = d;
note = "\012    GF Latin Plus glyph\012  ";
rightKerningGroup = d;
unicode = 0064;
userData = {
com.fontlab.hintData = {
hhints = (
{
position = -6;
width = 157;
},
{
position = 400;
width = 139;
},
{
position = 765;
width = 20;
}
);
};
com.typemytype.robofont.layerData = {
background = {
anchors = (
);
components = (
{
baseGlyph = a;
transformation = (
1,
0,
0,
1,
-3,
0
);
}
);
contours = (
{
points = (
{
segmentType = curve;
smooth = 1;
x = 862.48792;
y = 273;
},
{
smooth = 0;
x = 845.48792;
y = 164;
},
{
smooth = 0;
x = 858.48792;
y = 151;
},
{
segmentType = curve;
smooth = 1;
x = 887.48792;
y = 151;
},
{
smooth = 0;
x = 918.48792;
y = 151;
},
{
smooth = 0;
x = 942.48792;
y = 156;
},
{
segmentType = curve;
smooth = 0;
x = 955.48792;
y = 173;
},
{
segmentType = line;
smooth = 0;
x = 989.48792;
y = 385;
},
{
smooth = 0;
x = 981.48792;
y = 396;
},
{
smooth = 0;
x = 951.48792;
y = 400;
},
{
segmentType = curve;
smooth = 1;
x = 926.48792;
y = 400;
},
{
smooth = 0;
x = 898.48792;
y = 400;
},
{
smooth = 0;
x = 880.48792;
y = 386;
}
);
},
{
points = (
{
segmentType = curve;
smooth = 1;
x = 666.48792;
y = 303;
},
{
smooth = 0;
x = 693.48792;
y = 454;
},
{
smooth = 0;
x = 738.48792;
y = 539;
},
{
segmentType = curve;
smooth = 1;
x = 882.48792;
y = 539;
},
{
smooth = 0;
x = 927.48792;
y = 539;
},
{
smooth = 0;
x = 976.48792;
y = 528;
},
{
segmentType = curve;
smooth = 0;
x = 1009.48792;
y = 509;
},
{
segmentType = line;
smooth = 0;
x = 1053.48792;
y = 785;
},
{
segmentType = line;
smooth = 0;
x = 1247.48792;
y = 785;
},
{
segmentType = line;
smooth = 0;
x = 1123.48792;
y = 0;
},
{
segmentType = line;
smooth = 0;
x = 957.48792;
y = 0;
},
{
segmentType = line;
smooth = 0;
x = 935.48792;
y = 49;
},
{
smooth = 0;
x = 891.48792;
y = 16;
},
{
smooth = 0;
x = 855.48792;
y = -6;
},
{
segmentType = curve;
smooth = 1;
x = 796.48792;
y = -6;
},
{
smooth = 0;
x = 677.48792;
y = -6;
},
{
smooth = 0;
x = 634.48792;
y = 124;
}
);
}
);
lib = {
};
name = d;
unicodes = (
);
width = 580;
};
};
};
},
{
glyphname = eth;
layers = (
{
background = {
paths = (
{
closed = 1;
nodes = (
"257 264 CURVE SMOOTH",
"246 192 OFFCURVE",
"243 176 OFFCURVE",
"285 176 CURVE SMOOTH",
"312 176 LINE SMOOTH",
"352 176 OFFCURVE",
"354 184 OFFCURVE",
"367 264 CURVE SMOOTH",
"381 352 OFFCURVE",
"381 357 OFFCURVE",
"341 357 CURVE SMOOTH",
"314 357 LINE SMOOTH",
"280 357 OFFCURVE",
"269 342 OFFCURVE"
);
},
{
closed = 1;
nodes = (
"63 287 CURVE SMOOTH",
"90 457 OFFCURVE",
"164 531 OFFCURVE",
"299 531 CURVE SMOOTH",
"319 531 LINE SMOOTH",
"325 531 OFFCURVE",
"379 531 OFFCURVE",
"398 526 CURVE",
"394 557 OFFCURVE",
"382 578 OFFCURVE",
"365 594 CURVE",
"269 544 LINE",
"246 600 LINE",
"291 624 LINE",
"259 629 OFFCURVE",
"218 629 OFFCURVE",
"170 628 CURVE",
"195 783 LINE",
"329 783 OFFCURVE",
"419 762 OFFCURVE",
"480 722 CURVE",
"557 762 LINE",
"581 706 LINE",
"528 679 LINE",
"597 594 OFFCURVE",
"591 425 OFFCURVE",
"561 234 CURVE SMOOTH",
"529 35 OFFCURVE",
"432 0 OFFCURVE",
"325 0 CURVE SMOOTH",
"215 0 LINE SMOOTH",
"78 0 OFFCURVE",
"35 108 OFFCURVE"
);
}
);
};
layerId = "FDCB0490-BEB2-4154-BC16-7BC1D55E5E84";
paths = (
{
closed = 1;
nodes = (
"73 269 CURVE SMOOTH",
"68.982 244.089 OFFCURVE",
"68 218.115 OFFCURVE",
"68 185 CURVE SMOOTH",
"68 64 OFFCURVE",
"138 -6 OFFCURVE",
"289 -6 CURVE SMOOTH",
"466 -6 OFFCURVE",
"557 38 OFFCURVE",
"586 235 CURVE",
"562 281 OFFCURVE",
"539 328 OFFCURVE",
"515 374 CURVE",
"515 459.928 OFFCURVE",
"425.643 525 OFFCURVE",
"324 525 CURVE SMOOTH",
"183.218 525 OFFCURVE",
"106.942 485.63 OFFCURVE"
);
},
{
closed = 1;
nodes = (
"263 242 CURVE SMOOTH",
"278 350 OFFCURVE",
"291 374 OFFCURVE",
"347 374 CURVE SMOOTH",
"385.423 374 OFFCURVE",
"401 366.143 OFFCURVE",
"401 341 CURVE SMOOTH",
"401 319.297 OFFCURVE",
"397.342 295.003 OFFCURVE",
"393 262 CURVE SMOOTH",
"378 170 OFFCURVE",
"365 149 OFFCURVE",
"309 149 CURVE SMOOTH",
"273 149 OFFCURVE",
"260 160 OFFCURVE",
"260 194 CURVE SMOOTH",
"260 208.118 OFFCURVE",
"260.192 223.043 OFFCURVE"
);
},
{
closed = 1;
nodes = (
"192 639 LINE",
"376 639 OFFCURVE",
"450 604 OFFCURVE",
"450 463 CURVE SMOOTH",
"450 429 OFFCURVE",
"446 390 OFFCURVE",
"439 345 CURVE",
"586 235 LINE",
"599 318 OFFCURVE",
"607 388.852 OFFCURVE",
"607 452 CURVE SMOOTH",
"607 680 OFFCURVE",
"488 763 OFFCURVE",
"212 763 CURVE"
);
},
{
closed = 1;
nodes = (
"206 601 LINE",
"223 542 LINE",
"618 703 LINE",
"602 762 LINE"
);
}
);
width = 579;
},
{
background = {
paths = (
{
closed = 1;
nodes = (
"104 264 CURVE SMOOTH",
"72 63 OFFCURVE",
"123 26 OFFCURVE",
"220 26 CURVE SMOOTH",
"290 26 LINE SMOOTH",
"416 26 OFFCURVE",
"463 133 OFFCURVE",
"484 264 CURVE SMOOTH",
"501 374 OFFCURVE",
"510 507 OFFCURVE",
"367 507 CURVE SMOOTH",
"297 507 LINE SMOOTH",
"208 507 OFFCURVE",
"136 466 OFFCURVE"
);
},
{
closed = 1;
nodes = (
"80 270 CURVE SMOOTH",
"107 440 OFFCURVE",
"165 531 OFFCURVE",
"300 531 CURVE SMOOTH",
"370 531 LINE SMOOTH",
"457 531 OFFCURVE",
"494 484 OFFCURVE",
"500 465 CURVE",
"498 523 OFFCURVE",
"489 617 OFFCURVE",
"433 684 CURVE",
"261 620 LINE",
"259 634 LINE",
"422 695 LINE",
"382 734 OFFCURVE",
"329 761 OFFCURVE",
"243 762 CURVE",
"246 783 LINE",
"340 782 OFFCURVE",
"403 751 OFFCURVE",
"447 704 CURVE",
"584 755 LINE",
"588 741 LINE",
"457 693 LINE",
"537 590 OFFCURVE",
"532 409 OFFCURVE",
"508 258 CURVE SMOOTH",
"476 59 OFFCURVE",
"393 0 OFFCURVE",
"286 0 CURVE SMOOTH",
"216 0 LINE SMOOTH",
"79 0 OFFCURVE",
"52 91 OFFCURVE"
);
}
);
};
layerId = "DE62D6C8-A9BF-4A7E-9D02-9A707AFEE35E";
paths = (
{
closed = 1;
nodes = (
"102 265 CURVE SMOOTH",
"97 230 OFFCURVE",
"94 199 OFFCURVE",
"94 170 CURVE SMOOTH",
"94 35 OFFCURVE",
"172 -6 OFFCURVE",
"279 -6 CURVE SMOOTH",
"440 -6 OFFCURVE",
"509 56 OFFCURVE",
"542 266 CURVE SMOOTH",
"546 290 OFFCURVE",
"540 325 OFFCURVE",
"540 356 CURVE SMOOTH",
"540 475 OFFCURVE",
"486 537 OFFCURVE",
"365 537 CURVE SMOOTH",
"206 537 OFFCURVE",
"136 477 OFFCURVE"
);
},
{
closed = 1;
nodes = (
"126 258 CURVE SMOOTH",
"160 469 OFFCURVE",
"220 515 OFFCURVE",
"360 515 CURVE SMOOTH",
"475 515 OFFCURVE",
"525 470 OFFCURVE",
"525 356 CURVE SMOOTH",
"525 328 OFFCURVE",
"522 296 OFFCURVE",
"517 264 CURVE SMOOTH",
"484 54 OFFCURVE",
"415 16 OFFCURVE",
"284 16 CURVE SMOOTH",
"188 16 OFFCURVE",
"118 42 OFFCURVE",
"118 170 CURVE SMOOTH",
"118 195 OFFCURVE",
"121 224 OFFCURVE"
);
},
{
closed = 1;
nodes = (
"256 741 LINE",
"421 738 OFFCURVE",
"535 658 OFFCURVE",
"535 435 CURVE SMOOTH",
"535 385 OFFCURVE",
"531 328 OFFCURVE",
"522 264 CURVE",
"542 266 LINE",
"552 331 OFFCURVE",
"556 389 OFFCURVE",
"556 440 CURVE SMOOTH",
"556 666 OFFCURVE",
"432 761 OFFCURVE",
"260 763 CURVE"
);
},
{
closed = 1;
nodes = (
"292 634 LINE",
"295 620 LINE",
"621 741 LINE",
"618 755 LINE"
);
}
);
width = 560;
}
);
note = "\012    GF Latin Plus glyph\012  ";
unicode = 00F0;
userData = {
com.fontlab.hintData = {
hhints = (
{
position = 0;
width = 176;
},
{
position = 357;
width = 174;
},
{
position = 628;
width = 155;
}
);
};
com.typemytype.robofont.layerData = {
background = {
anchors = (
);
components = (
);
contours = (
{
points = (
{
segmentType = curve;
smooth = 1;
x = 257;
y = 264;
},
{
smooth = 0;
x = 246;
y = 192;
},
{
smooth = 0;
x = 243;
y = 176;
},
{
segmentType = curve;
smooth = 1;
x = 285;
y = 176;
},
{
segmentType = line;
smooth = 1;
x = 312;
y = 176;
},
{
smooth = 0;
x = 352;
y = 176;
},
{
smooth = 0;
x = 354;
y = 184;
},
{
segmentType = curve;
smooth = 1;
x = 367;
y = 264;
},
{
smooth = 0;
x = 381;
y = 352;
},
{
smooth = 0;
x = 381;
y = 357;
},
{
segmentType = curve;
smooth = 1;
x = 341;
y = 357;
},
{
segmentType = line;
smooth = 1;
x = 314;
y = 357;
},
{
smooth = 0;
x = 280;
y = 357;
},
{
smooth = 0;
x = 269;
y = 342;
}
);
},
{
points = (
{
segmentType = curve;
smooth = 1;
x = 63;
y = 287;
},
{
smooth = 0;
x = 90;
y = 457;
},
{
smooth = 0;
x = 164;
y = 531;
},
{
segmentType = curve;
smooth = 1;
x = 299;
y = 531;
},
{
segmentType = line;
smooth = 1;
x = 319;
y = 531;
},
{
smooth = 0;
x = 325;
y = 531;
},
{
smooth = 0;
x = 379;
y = 531;
},
{
segmentType = curve;
smooth = 0;
x = 398;
y = 526;
},
{
smooth = 0;
x = 394;
y = 557;
},
{
smooth = 0;
x = 382;
y = 578;
},
{
segmentType = curve;
smooth = 0;
x = 365;
y = 594;
},
{
segmentType = line;
smooth = 0;
x = 269;
y = 544;
},
{
segmentType = line;
smooth = 0;
x = 246;
y = 600;
},
{
segmentType = line;
smooth = 0;
x = 291;
y = 624;
},
{
smooth = 0;
x = 259;
y = 629;
},
{
smooth = 0;
x = 218;
y = 629;
},
{
segmentType = curve;
smooth = 0;
x = 170;
y = 628;
},
{
segmentType = line;
smooth = 0;
x = 195;
y = 783;
},
{
smooth = 0;
x = 329;
y = 783;
},
{
smooth = 0;
x = 419;
y = 762;
},
{
segmentType = curve;
smooth = 0;
x = 480;
y = 722;
},
{
segmentType = line;
smooth = 0;
x = 557;
y = 762;
},
{
segmentType = line;
smooth = 0;
x = 581;
y = 706;
},
{
segmentType = line;
smooth = 0;
x = 528;
y = 679;
},
{
smooth = 0;
x = 597;
y = 594;
},
{
smooth = 0;
x = 591;
y = 425;
},
{
segmentType = curve;
smooth = 1;
x = 561;
y = 234;
},
{
smooth = 0;
x = 529;
y = 35;
},
{
smooth = 0;
x = 432;
y = 0;
},
{
segmentType = curve;
smooth = 1;
x = 325;
y = 0;
},
{
segmentType = line;
smooth = 1;
x = 215;
y = 0;
},
{
smooth = 0;
x = 78;
y = 0;
},
{
smooth = 0;
x = 35;
y = 108;
}
);
}
);
lib = {
};
name = eth;
unicodes = (
);
width = 579;
};
};
};
},
{
glyphname = dcroat;
layers = (
{
components = (
{
name = d;
}
);
layerId = "FDCB0490-BEB2-4154-BC16-7BC1D55E5E84";
paths = (
{
closed = 1;
nodes = (
"683 606 LINE",
"695 680 LINE",
"347 680 LINE",
"335 606 LINE"
);
}
);
width = 580;
},
{
background = {
paths = (
{
closed = 1;
nodes = (
"92 263 CURVE SMOOTH",
"92 89 OFFCURVE",
"168 18 OFFCURVE",
"253 18 CURVE SMOOTH",
"332 18 OFFCURVE",
"396 46 OFFCURVE",
"449 73 CURVE",
"449 485 LINE",
"380 503 OFFCURVE",
"330 515 OFFCURVE",
"253 515 CURVE SMOOTH",
"169 515 OFFCURVE",
"92 468 OFFCURVE"
);
},
{
closed = 1;
nodes = (
"68 263 CURVE SMOOTH",
"68 399 OFFCURVE",
"102 539 OFFCURVE",
"253 539 CURVE SMOOTH",
"298 539 OFFCURVE",
"386 525 OFFCURVE",
"450 499 CURVE",
"450 641 LINE",
"318 641 LINE",
"318 655 LINE",
"450 655 LINE",
"450 785 LINE",
"472 785 LINE",
"472 655 LINE",
"555 655 LINE",
"555 641 LINE",
"472 641 LINE",
"472 0 LINE",
"459 0 LINE",
"449 59 LINE",
"423 35 OFFCURVE",
"321 -6 OFFCURVE",
"253 -6 CURVE SMOOTH",
"108 -6 OFFCURVE",
"68 141 OFFCURVE"
);
}
);
};
components = (
{
name = d;
}
);
layerId = "DE62D6C8-A9BF-4A7E-9D02-9A707AFEE35E";
paths = (
{
closed = 1;
nodes = (
"658 640 LINE",
"661 656 LINE",
"403 656 LINE",
"400 640 LINE"
);
}
);
width = 568;
}
);
leftKerningGroup = d;
note = "\012    GF Latin Plus glyph\012  ";
rightKerningGroup = d;
unicode = 0111;
},
{
glyphname = e;
layers = (
{
anchors = (
{
name = bottom;
position = "{273, -150}";
},
{
name = ogonek;
position = "{508, 22}";
},
{
name = top;
position = "{379, 650}";
}
);
background = {
components = (
{
name = o;
}
);
};
layerId = "FDCB0490-BEB2-4154-BC16-7BC1D55E5E84";
paths = (
{
closed = 1;
nodes = (
"373 -6 OFFCURVE",
"458 7 OFFCURVE",
"518 22 CURVE",
"536 135 LINE",
"357 135 LINE SMOOTH",
"288.306 135 OFFCURVE",
"258 149 OFFCURVE",
"258 178 CURVE SMOOTH",
"258 184 OFFCURVE",
"259 192 OFFCURVE",
"260 198 CURVE",
"282.44 192.9 OFFCURVE",
"316.583 190 OFFCURVE",
"357 190 CURVE SMOOTH",
"480 190 OFFCURVE",
"578 220 OFFCURVE",
"578 376 CURVE SMOOTH",
"578 516 OFFCURVE",
"465 545 OFFCURVE",
"364 545 CURVE SMOOTH",
"209 545 OFFCURVE",
"106 482 OFFCURVE",
"77 299 CURVE SMOOTH",
"72 269 OFFCURVE",
"68 237 OFFCURVE",
"68 203 CURVE SMOOTH",
"68 72 OFFCURVE",
"121 -6 OFFCURVE",
"278 -6 CURVE SMOOTH"
);
},
{
closed = 1;
nodes = (
"299 295 OFFCURVE",
"285 297 OFFCURVE",
"272 299 CURVE",
"284 364 OFFCURVE",
"307 398 OFFCURVE",
"351 398 CURVE SMOOTH",
"383 398 OFFCURVE",
"398 381 OFFCURVE",
"398 355 CURVE SMOOTH",
"398 318.077 OFFCURVE",
"384.849 295 OFFCURVE",
"311 295 CURVE SMOOTH"
);
}
);
width = 548;
},
{
anchors = (
{
name = bottom;
position = "{275, -150}";
},
{
name = ogonek;
position = "{458, 0}";
},
{
name = top;
position = "{381, 650}";
}
);
background = {
components = (
{
name = o;
transform = "{1, 0, 0, 1, -2, 0}";
}
);
paths = (
{
closed = 1;
nodes = (
"673 261 CURVE",
"673 261 OFFCURVE",
"1042 192 OFFCURVE",
"1067 388 CURVE SMOOTH",
"1080 486 OFFCURVE",
"1016 517 OFFCURVE",
"912 517 CURVE SMOOTH",
"714 517 OFFCURVE",
"702 406 OFFCURVE"
);
},
{
closed = 1;
nodes = (
"652 278 CURVE SMOOTH",
"678 430 OFFCURVE",
"709 541 OFFCURVE",
"904 541 CURVE SMOOTH",
"1030 541 OFFCURVE",
"1107 504 OFFCURVE",
"1092 388 CURVE SMOOTH",
"1064 169 OFFCURVE",
"708 232 OFFCURVE",
"671 247 CURVE",
"651 94 OFFCURVE",
"670 19 OFFCURVE",
"777 17 CURVE SMOOTH",
"854 16 OFFCURVE",
"937 27 OFFCURVE",
"1015 38 CURVE",
"1012 22 LINE",
"928 -1 OFFCURVE",
"862 -7 OFFCURVE",
"779 -7 CURVE SMOOTH",
"651 -7 OFFCURVE",
"619 84 OFFCURVE"
);
}
);
};
layerId = "DE62D6C8-A9BF-4A7E-9D02-9A707AFEE35E";
paths = (
{
closed = 1;
nodes = (
"372 -6 OFFCURVE",
"434 -2 OFFCURVE",
"468 0 CURVE",
"471 16 LINE",
"317 16 LINE SMOOTH",
"174 16 OFFCURVE",
"119 64 OFFCURVE",
"119 173 CURVE SMOOTH",
"119 199 OFFCURVE",
"120 227 OFFCURVE",
"124 254 CURVE",
"151 246 OFFCURVE",
"213 236 OFFCURVE",
"287 236 CURVE SMOOTH",
"418 236 OFFCURVE",
"550 269 OFFCURVE",
"550 406 CURVE SMOOTH",
"550 503 OFFCURVE",
"486 541 OFFCURVE",
"370 541 CURVE SMOOTH",
"201 541 OFFCURVE",
"128 443 OFFCURVE",
"106 291 CURVE SMOOTH",
"100 254 OFFCURVE",
"95 214 OFFCURVE",
"95 171 CURVE SMOOTH",
"95 52 OFFCURVE",
"162 -6 OFFCURVE",
"315 -6 CURVE SMOOTH"
);
},
{
closed = 1;
nodes = (
"215 258 OFFCURVE",
"162 263 OFFCURVE",
"126 270 CURVE",
"148 428 OFFCURVE",
"206 519 OFFCURVE",
"368 519 CURVE SMOOTH",
"473 519 OFFCURVE",
"526 489 OFFCURVE",
"526 404 CURVE SMOOTH",
"526 285 OFFCURVE",
"415 258 OFFCURVE",
"269 258 CURVE SMOOTH"
);
}
);
width = 548;
}
);
leftKerningGroup = e;
note = "\012    GF Latin Plus glyph\012  ";
rightKerningGroup = e;
unicode = 0065;
userData = {
com.fontlab.hintData = {
hhints = (
{
position = 22;
width = 136;
},
{
position = 397;
width = 144;
}
);
};
com.typemytype.robofont.layerData = {
background = {
anchors = (
);
components = (
{
baseGlyph = o;
transformation = (
1,
0,
0,
1,
0,
0
);
}
);
contours = (
);
lib = {
};
name = e;
unicodes = (
);
width = 548;
};
};
};
},
{
glyphname = f;
layers = (
{
anchors = (
{
name = bottom;
position = "{175, -150}";
},
{
name = top;
position = "{361, 850}";
}
);
background = {
paths = (
{
closed = 1;
nodes = (
"71 397 LINE",
"90 514 LINE",
"164 531 LINE",
"180 630 LINE SMOOTH",
"199 751 OFFCURVE",
"269 786 OFFCURVE",
"389 786 CURVE SMOOTH",
"438 786 OFFCURVE",
"478 782 OFFCURVE",
"514 762 CURVE",
"496 651 LINE SMOOTH",
"495 651 OFFCURVE",
"423 652 OFFCURVE",
"423 652 CURVE SMOOTH",
"373 653 OFFCURVE",
"374 632 OFFCURVE",
"364 570 CURVE SMOOTH",
"358 531 LINE",
"456 531 LINE",
"435 397 LINE",
"337 397 LINE",
"274 0 LINE",
"80 0 LINE",
"143 397 LINE"
);
}
);
};
layerId = "FDCB0490-BEB2-4154-BC16-7BC1D55E5E84";
paths = (
{
closed = 1;
nodes = (
"274 0 LINE",
"335 385 LINE",
"444 385 LINE",
"468 539 LINE",
"359 539 LINE",
"361 560 LINE SMOOTH",
"365 605 OFFCURVE",
"387 615 OFFCURVE",
"430 615 CURVE SMOOTH",
"493 615 LINE",
"516 758 LINE",
"487 764 OFFCURVE",
"442 769 OFFCURVE",
"392 769 CURVE SMOOTH",
"271 769 OFFCURVE",
"198 736 OFFCURVE",
"178 616 CURVE SMOOTH",
"165 539 LINE",
"90 509 LINE",
"70 385 LINE",
"141 385 LINE",
"80 0 LINE"
);
}
);
width = 401;
},
{
anchors = (
{
name = bottom;
position = "{117, -150}";
},
{
name = top;
position = "{360, 850}";
}
);
background = {
paths = (
{
closed = 1;
nodes = (
"113 507 LINE",
"115 521 LINE",
"204 531 LINE",
"219 630 LINE SMOOTH",
"228 684 OFFCURVE",
"234 782 OFFCURVE",
"344 786 CURVE SMOOTH",
"374 787 OFFCURVE",
"451 785 OFFCURVE",
"485 775 CURVE",
"483 762 LINE",
"341 762 LINE SMOOTH",
"273 762 OFFCURVE",
"255 708 OFFCURVE",
"243 630 CURVE SMOOTH",
"228 531 LINE",
"406 531 LINE",
"402 507 LINE",
"224 507 LINE",
"144 0 LINE",
"120 0 LINE",
"200 507 LINE"
);
}
);
};
layerId = "DE62D6C8-A9BF-4A7E-9D02-9A707AFEE35E";
paths = (
{
closed = 1;
nodes = (
"144 0 LINE",
"224 507 LINE",
"412 507 LINE",
"416 531 LINE",
"228 531 LINE",
"242 616 LINE SMOOTH",
"255 694 OFFCURVE",
"271 748 OFFCURVE",
"355 748 CURVE SMOOTH",
"471 748 LINE",
"473 764 LINE",
"439 767 OFFCURVE",
"394 769 OFFCURVE",
"358 769 CURVE SMOOTH",
"232 769 OFFCURVE",
"227 670 OFFCURVE",
"218 616 CURVE SMOOTH",
"204 531 LINE",
"116 523 LINE",
"113 507 LINE",
"200 507 LINE",
"120 0 LINE"
);
}
);
width = 360;
}
);
note = "\012    GF Latin Plus glyph\012  ";
rightKerningGroup = f;
unicode = 0066;
userData = {
com.fontlab.hintData = {
hhints = (
{
position = 0;
width = 21;
},
{
position = 397;
width = 134;
},
{
position = 652;
width = 134;
}
);
};
com.typemytype.robofont.layerData = {
background = {
anchors = (
);
components = (
);
contours = (
{
points = (
{
segmentType = line;
smooth = 0;
x = 71;
y = 397;
},
{
segmentType = line;
smooth = 0;
x = 90;
y = 514;
},
{
segmentType = line;
smooth = 0;
x = 164;
y = 531;
},
{
segmentType = line;
smooth = 1;
x = 180;
y = 630;
},
{
smooth = 0;
x = 199;
y = 751;
},
{
smooth = 0;
x = 269;
y = 786;
},
{
segmentType = curve;
smooth = 1;
x = 389;
y = 786;
},
{
smooth = 0;
x = 438;
y = 786;
},
{
smooth = 0;
x = 478;
y = 782;
},
{
segmentType = curve;
smooth = 0;
x = 514;
y = 762;
},
{
segmentType = line;
smooth = 1;
x = 496;
y = 651;
},
{
smooth = 0;
x = 495;
y = 651;
},
{
smooth = 0;
x = 423;
y = 652;
},
{
segmentType = curve;
smooth = 1;
x = 423;
y = 652;
},
{
smooth = 0;
x = 373;
y = 653;
},
{
smooth = 0;
x = 374;
y = 632;
},
{
segmentType = curve;
smooth = 1;
x = 364;
y = 570;
},
{
segmentType = line;
smooth = 0;
x = 358;
y = 531;
},
{
segmentType = line;
smooth = 0;
x = 456;
y = 531;
},
{
segmentType = line;
smooth = 0;
x = 435;
y = 397;
},
{
segmentType = line;
smooth = 0;
x = 337;
y = 397;
},
{
segmentType = line;
smooth = 0;
x = 274;
y = 0;
},
{
segmentType = line;
smooth = 0;
x = 80;
y = 0;
},
{
segmentType = line;
smooth = 0;
x = 143;
y = 397;
}
);
}
);
lib = {
};
name = f;
unicodes = (
);
width = 401;
};
};
};
},
